<?xml version="1.0" standalone="no"?>
<!DOCTYPE svg PUBLIC "-//W3C//DTD SVG 1.1//EN" "http://www.w3.org/Graphics/SVG/1.1/DTD/svg11.dtd" >
<svg xmlns="http://www.w3.org/2000/svg" xmlns:xlink="http://www.w3.org/1999/xlink" version="1.1">
<metadata>
Created by FontForge 20161003 at Tue Nov 28 16:28:34 2017
 By www-data
Copyright \(c\) 2015 by Mariya Pigoulevskaya. All rights reserved.
</metadata>
<defs>
<font id="Stolzl-Bold" horiz-adv-x="0" >
  <font-face 
    font-family="Stolzl Bold"
    font-weight="700"
    font-stretch="normal"
    units-per-em="1000"
    panose-1="0 0 8 0 0 0 0 0 0 0"
    ascent="800"
    descent="-200"
    x-height="550"
    cap-height="700"
    bbox="-588 -263 1498 1074"
    underline-thickness="50"
    underline-position="-100"
    stemh="162"
    stemv="170"
    unicode-range="U+0020-25CA"
  />
<missing-glyph horiz-adv-x="510" 
d="M418 770v-1020h-323v1020h323zM340 702h-169v-34h67v-38h-68v-33h170v33h-68v38h68v34zM272 570h-102v-106h170v35h-68v71zM238 535v-36h-34v36h34zM340 436h-170v-33h68v-38h-68v-34h102v72h68v33zM340 375h-34v-67h-136v-35h170v102zM340 251h-102v-57h34v23h34v-48
h-102v82h-34v-115h170v115zM340 74h-170v-115h170v115zM306 41v-48h-102v48h102zM340 -64h-170v-34h72l-72 -48v-34h170v34h-104l71 48h33v34z" />
    <glyph glyph-name=".notdef" horiz-adv-x="510" 
d="M418 770v-1020h-323v1020h323zM340 702h-169v-34h67v-38h-68v-33h170v33h-68v38h68v34zM272 570h-102v-106h170v35h-68v71zM238 535v-36h-34v36h34zM340 436h-170v-33h68v-38h-68v-34h102v72h68v33zM340 375h-34v-67h-136v-35h170v102zM340 251h-102v-57h34v23h34v-48
h-102v82h-34v-115h170v115zM340 74h-170v-115h170v115zM306 41v-48h-102v48h102zM340 -64h-170v-34h72l-72 -48v-34h170v34h-104l71 48h33v34z" />
    <glyph glyph-name="A" unicode="A" horiz-adv-x="772" 
d="M567 0l-50 145h-262l-50 -145h-180l254 700h214l254 -700h-180zM311 307h150l-75 218z" />
    <glyph glyph-name="Aacute" unicode="&#xc1;" horiz-adv-x="772" 
d="M516 904l-188 -134l-73 73l161 161zM567 0l-50 145h-262l-50 -145h-180l254 700h214l254 -700h-180zM311 307h150l-75 218z" />
    <glyph glyph-name="Abreve" unicode="&#x102;" horiz-adv-x="772" 
d="M386 770c-88 0 -171 59 -171 163v31h132v-27c0 -24 16 -40 39 -40c22 0 38 16 38 40v27h132v-31c0 -104 -83 -163 -170 -163zM567 0l-50 145h-262l-50 -145h-180l254 700h214l254 -700h-180zM311 307h150l-75 218z" />
    <glyph glyph-name="Acircumflex" unicode="&#xc2;" horiz-adv-x="772" 
d="M386 852l-72 -82l-89 89l161 161l161 -161l-89 -89zM567 0l-50 145h-262l-50 -145h-180l254 700h214l254 -700h-180zM311 307h150l-75 218z" />
    <glyph glyph-name="Adieresis" unicode="&#xc4;" horiz-adv-x="772" 
d="M272 790c-53 0 -93 37 -93 89c0 51 40 88 93 88c54 0 93 -37 93 -88c0 -52 -39 -89 -93 -89zM499 790c-53 0 -93 37 -93 89c0 51 40 88 93 88c54 0 94 -37 94 -88c0 -52 -40 -89 -94 -89zM567 0l-50 145h-262l-50 -145h-180l254 700h214l254 -700h-180zM311 307h150
l-75 218z" />
    <glyph glyph-name="Agrave" unicode="&#xc0;" horiz-adv-x="772" 
d="M516 843l-73 -73l-188 134l100 100zM567 0l-50 145h-262l-50 -145h-180l254 700h214l254 -700h-180zM311 307h150l-75 218z" />
    <glyph glyph-name="Amacron" unicode="&#x100;" horiz-adv-x="772" 
d="M511 934v-122h-250v122h250zM567 0l-50 145h-262l-50 -145h-180l254 700h214l254 -700h-180zM311 307h150l-75 218z" />
    <glyph glyph-name="Aogonek" unicode="&#x104;" horiz-adv-x="772" 
d="M659 -137c0 -25 15 -35 50 -35c19 0 32 3 39 4v-92c-8 -1 -43 -3 -67 -3c-88 0 -151 27 -151 102c0 65 49 109 109 161h-72l-50 145h-262l-50 -145h-180l254 700h214l254 -700h1c-60 -72 -89 -103 -89 -137zM311 307h150l-75 218z" />
    <glyph glyph-name="Aring" unicode="&#xc5;" horiz-adv-x="772" 
d="M385 770c-73 0 -134 60 -134 135c0 74 60 134 134 134c75 0 135 -60 135 -134c0 -75 -61 -135 -135 -135zM385 945c-22 0 -40 -17 -39 -41c-1 -25 17 -41 39 -41s40 16 40 41c0 24 -18 41 -40 41zM567 0l-50 145h-262l-50 -145h-180l254 700h214l254 -700h-180zM311 307
h150l-75 218z" />
    <glyph glyph-name="Atilde" unicode="&#xc3;" horiz-adv-x="772" 
d="M330 816c-11 0 -27 -6 -27 -37h-100c0 132 56 167 120 167c32 0 48 -9 72 -24c16 -10 33 -19 47 -19c11 0 27 6 27 37h100c0 -132 -56 -167 -120 -167c-32 0 -48 9 -72 24c-16 10 -33 19 -47 19zM567 0l-50 145h-262l-50 -145h-180l254 700h214l254 -700h-180zM311 307
h150l-75 218z" />
    <glyph glyph-name="AE" unicode="&#xc6;" horiz-adv-x="905" 
d="M870 538h-312v-104h284v-162h-284v-110h312v-162h-482v145h-133l-50 -145h-180l254 700h214h377v-162zM311 307h77v223z" />
    <glyph glyph-name="B" unicode="B" horiz-adv-x="660" 
d="M519 379c72 -26 106 -95 106 -174c0 -132 -99 -205 -239 -205h-316v700h316c122 0 215 -60 215 -184c0 -68 -29 -109 -82 -137zM429 486c0 43 -25 52 -66 52h-123v-105h130c38 0 59 16 59 53zM382 162c57 0 71 22 71 58c0 39 -14 58 -71 58h-142v-116h142z" />
    <glyph glyph-name="C" unicode="C" horiz-adv-x="784" 
d="M408 -13c-210 0 -363 157 -363 363s153 363 363 363c172 0 303 -108 341 -260h-182c-28 61 -85 98 -159 98c-116 0 -191 -84 -191 -201s75 -201 191 -201c74 0 131 37 159 98h182c-38 -152 -169 -260 -341 -260z" />
    <glyph glyph-name="Cacute" unicode="&#x106;" horiz-adv-x="784" 
d="M422 1004l100 -100l-188 -134l-73 73zM408 -13c-210 0 -363 157 -363 363s153 363 363 363c172 0 303 -108 341 -260h-182c-28 61 -85 98 -159 98c-116 0 -191 -84 -191 -201s75 -201 191 -201c74 0 131 37 159 98h182c-38 -152 -169 -260 -341 -260z" />
    <glyph glyph-name="Ccaron" unicode="&#x10c;" horiz-adv-x="784" 
d="M553 935l-161 -161l-161 161l89 89l72 -82l72 82zM408 -13c-210 0 -363 157 -363 363s153 363 363 363c172 0 303 -108 341 -260h-182c-28 61 -85 98 -159 98c-116 0 -191 -84 -191 -201s75 -201 191 -201c74 0 131 37 159 98h182c-38 -152 -169 -260 -341 -260z" />
    <glyph glyph-name="Ccedilla" unicode="&#xc7;" horiz-adv-x="784" 
d="M408 149c74 0 131 37 159 98h182c-35 -141 -150 -244 -304 -258l-35 -65c43 -13 76 -42 76 -90c0 -67 -64 -97 -160 -97c-25 0 -51 2 -59 3v81c7 -1 20 -4 39 -4c32 0 51 9 51 27c0 14 -10 29 -70 40l47 110c-171 32 -289 175 -289 356c0 206 153 363 363 363
c172 0 303 -108 341 -260h-182c-28 61 -85 98 -159 98c-116 0 -191 -84 -191 -201s75 -201 191 -201z" />
    <glyph glyph-name="D" unicode="D" horiz-adv-x="729" 
d="M331 700c204 0 358 -151 358 -350s-154 -350 -358 -350h-261v700h261zM331 162c111 0 188 77 188 188c0 112 -77 188 -188 188h-91v-376h91z" />
    <glyph glyph-name="Eth" unicode="&#xd0;" horiz-adv-x="729" 
d="M331 700c204 0 358 -151 358 -350s-154 -350 -358 -350h-261v269h-51v162h51v269h261zM331 162c111 0 188 77 188 188c0 112 -77 188 -188 188h-91v-107h90v-162h-90v-107h91z" />
    <glyph glyph-name="Dcaron" unicode="&#x10e;" horiz-adv-x="729" 
d="M492 935l-161 -161l-161 161l89 89l72 -82l72 82zM331 700c204 0 358 -151 358 -350s-154 -350 -358 -350h-261v700h261zM331 162c111 0 188 77 188 188c0 112 -77 188 -188 188h-91v-376h91z" />
    <glyph glyph-name="Dcroat" unicode="&#x110;" horiz-adv-x="729" 
d="M331 700c204 0 358 -151 358 -350s-154 -350 -358 -350h-261v269h-51v162h51v269h261zM331 162c111 0 188 77 188 188c0 112 -77 188 -188 188h-91v-107h90v-162h-90v-107h91z" />
    <glyph glyph-name="E" unicode="E" horiz-adv-x="587" 
d="M552 538h-312v-104h284v-162h-284v-110h312v-162h-482v700h482v-162z" />
    <glyph glyph-name="Eacute" unicode="&#xc9;" horiz-adv-x="587" 
d="M424 904l-188 -134l-73 73l161 161zM552 538h-312v-104h284v-162h-284v-110h312v-162h-482v700h482v-162z" />
    <glyph glyph-name="Ecaron" unicode="&#x11a;" horiz-adv-x="587" 
d="M455 935l-161 -161l-161 161l89 89l72 -82l72 82zM552 538h-312v-104h284v-162h-284v-110h312v-162h-482v700h482v-162z" />
    <glyph glyph-name="Ecircumflex" unicode="&#xca;" horiz-adv-x="587" 
d="M294 852l-72 -82l-89 89l161 161l161 -161l-89 -89zM552 538h-312v-104h284v-162h-284v-110h312v-162h-482v700h482v-162z" />
    <glyph glyph-name="Edieresis" unicode="&#xcb;" horiz-adv-x="587" 
d="M180 790c-53 0 -93 37 -93 89c0 51 40 88 93 88c54 0 93 -37 93 -88c0 -52 -39 -89 -93 -89zM407 790c-53 0 -93 37 -93 89c0 51 40 88 93 88c54 0 94 -37 94 -88c0 -52 -40 -89 -94 -89zM552 538h-312v-104h284v-162h-284v-110h312v-162h-482v700h482v-162z" />
    <glyph glyph-name="Edotaccent" unicode="&#x116;" horiz-adv-x="587" 
d="M294 790c-53 0 -93 37 -93 89c0 51 40 88 93 88c54 0 93 -37 93 -88c0 -52 -39 -89 -93 -89zM552 538h-312v-104h284v-162h-284v-110h312v-162h-482v700h482v-162z" />
    <glyph glyph-name="Egrave" unicode="&#xc8;" horiz-adv-x="587" 
d="M424 843l-73 -73l-188 134l100 100zM552 538h-312v-104h284v-162h-284v-110h312v-162h-482v700h482v-162z" />
    <glyph glyph-name="Emacron" unicode="&#x112;" horiz-adv-x="587" 
d="M419 934v-122h-250v122h250zM552 538h-312v-104h284v-162h-284v-110h312v-162h-482v700h482v-162z" />
    <glyph glyph-name="Eogonek" unicode="&#x118;" horiz-adv-x="587" 
d="M463 -137c0 -25 15 -35 50 -35c19 0 32 3 39 4v-92c-8 -1 -43 -3 -67 -3c-88 0 -151 27 -151 102c0 65 49 109 109 161h-373v700h482v-162h-312v-104h284v-162h-284v-110h312v-162c-60 -72 -89 -103 -89 -137z" />
    <glyph glyph-name="F" unicode="F" horiz-adv-x="587" 
d="M552 538h-312v-111h284v-162h-284v-265h-170v700h482v-162z" />
    <glyph glyph-name="G" unicode="G" horiz-adv-x="816" 
d="M362 387h389v-387h-145v98c-31 -62 -110 -111 -220 -111c-193 0 -346 151 -346 361s153 365 363 365c172 0 303 -104 341 -251h-182c-28 56 -85 89 -159 89c-116 0 -191 -82 -191 -205c0 -112 62 -202 187 -202c77 0 143 34 171 101h-208v142z" />
    <glyph glyph-name="Gcommaaccent" unicode="&#x122;" horiz-adv-x="816" 
d="M362 387h389v-387h-145v98c-31 -62 -110 -111 -220 -111c-193 0 -346 151 -346 361s153 365 363 365c172 0 303 -104 341 -251h-182c-28 56 -85 89 -159 89c-116 0 -191 -82 -191 -205c0 -112 62 -202 187 -202c77 0 143 34 171 101h-208v142zM408 -53
c38 0 77 -25 77 -69c0 -24 -12 -59 -61 -128h-89l47 71c-32 6 -51 26 -51 57c0 44 38 69 77 69z" />
    <glyph glyph-name="H" unicode="H" horiz-adv-x="749" 
d="M509 700h170v-700h-170v276h-269v-276h-170v700h170v-262h269v262z" />
    <glyph glyph-name="I" unicode="I" horiz-adv-x="310" 
d="M70 0v700h170v-700h-170z" />
    <glyph glyph-name="Iacute" unicode="&#xcd;" horiz-adv-x="310" 
d="M185 1004l100 -100l-188 -134l-73 73zM70 0v700h170v-700h-170z" />
    <glyph glyph-name="Icircumflex" unicode="&#xce;" horiz-adv-x="310" 
d="M316 859l-89 -89l-72 82l-72 -82l-89 89l161 161zM70 0v700h170v-700h-170z" />
    <glyph glyph-name="Idieresis" unicode="&#xcf;" horiz-adv-x="310" 
d="M41 967c54 0 93 -37 93 -88c0 -52 -39 -89 -93 -89c-53 0 -93 37 -93 89c0 51 40 88 93 88zM268 967c54 0 94 -37 94 -88c0 -52 -40 -89 -94 -89c-53 0 -93 37 -93 89c0 51 40 88 93 88zM70 0v700h170v-700h-170z" />
    <glyph glyph-name="Igrave" unicode="&#xcc;" horiz-adv-x="310" 
d="M124 1004l161 -161l-73 -73l-188 134zM70 0v700h170v-700h-170z" />
    <glyph glyph-name="Imacron" unicode="&#x12a;" horiz-adv-x="310" 
d="M280 934v-122h-250v122h250zM70 0v700h170v-700h-170z" />
    <glyph glyph-name="Iogonek" unicode="&#x12e;" horiz-adv-x="310" 
d="M240 700v-700c-60 -72 -89 -103 -89 -137c0 -25 15 -35 50 -35c19 0 32 3 39 4v-92c-8 -1 -43 -3 -67 -3c-88 0 -151 27 -151 102c0 65 49 109 109 161h-61v700h170z" />
    <glyph glyph-name="J" unicode="J" horiz-adv-x="594" 
d="M352 700h172v-462c0 -168 -115 -251 -252 -251c-135 0 -247 81 -247 249v32h172v-27c0 -79 35 -92 75 -92c42 0 80 15 80 94v457z" />
    <glyph glyph-name="K" unicode="K" horiz-adv-x="711" 
d="M686 0h-212l-234 317v-317h-170v700h170v-298l219 298h209l-252 -338z" />
    <glyph glyph-name="Kcommaaccent" unicode="&#x136;" horiz-adv-x="711" 
d="M416 362l270 -362h-212l-234 317v-317h-170v700h170v-298l219 298h209zM356 -53c38 0 77 -25 77 -69c0 -24 -12 -59 -61 -128h-89l47 71c-32 6 -51 26 -51 57c0 44 38 69 77 69z" />
    <glyph glyph-name="L" unicode="L" horiz-adv-x="549" 
d="M240 162h284v-162h-454v700h170v-538z" />
    <glyph glyph-name="Lacute" unicode="&#x139;" horiz-adv-x="549" 
d="M405 904l-188 -134l-73 73l161 161zM240 162h284v-162h-454v700h170v-538z" />
    <glyph glyph-name="Lcaron" unicode="&#x13d;" horiz-adv-x="549" 
d="M365 587c-32 6 -51 26 -51 57c0 44 38 69 77 69c38 0 77 -25 77 -69c0 -24 -12 -59 -61 -128h-89zM240 162h284v-162h-454v700h170v-538z" />
    <glyph glyph-name="Lcommaaccent" unicode="&#x13b;" horiz-adv-x="549" 
d="M240 162h284v-162h-454v700h170v-538zM275 -53c38 0 77 -25 77 -69c0 -24 -12 -59 -61 -128h-89l47 71c-32 6 -51 26 -51 57c0 44 38 69 77 69z" />
    <glyph glyph-name="Lslash" unicode="&#x141;" horiz-adv-x="549" 
d="M240 162h284v-162h-454v227l-53 -13v162l53 13v311h170v-269l88 22v-162l-88 -22v-107z" />
    <glyph glyph-name="M" unicode="M" horiz-adv-x="841" 
d="M578 700h193v-700h-170v462l-175 -267h-16l-175 267v-462h-170v700h193l160 -240z" />
    <glyph glyph-name="N" unicode="N" horiz-adv-x="742" 
d="M507 700h170v-700h-193l-263 441l14 -148v-293h-170v700h193l262 -441l-13 148v293z" />
    <glyph glyph-name="Nacute" unicode="&#x143;" horiz-adv-x="742" 
d="M501 904l-188 -134l-73 73l161 161zM507 700h170v-700h-193l-263 441l14 -148v-293h-170v700h193l262 -441l-13 148v293z" />
    <glyph glyph-name="Ncaron" unicode="&#x147;" horiz-adv-x="742" 
d="M532 935l-161 -161l-161 161l89 89l72 -82l72 82zM507 700h170v-700h-193l-263 441l14 -148v-293h-170v700h193l262 -441l-13 148v293z" />
    <glyph glyph-name="Ncommaaccent" unicode="&#x145;" horiz-adv-x="742" 
d="M507 700h170v-700h-193l-263 441l14 -148v-293h-170v700h193l262 -441l-13 148v293zM371 -53c38 0 77 -25 77 -69c0 -24 -12 -59 -61 -128h-89l47 71c-32 6 -51 26 -51 57c0 44 38 69 77 69z" />
    <glyph glyph-name="Eng" unicode="&#x14a;" horiz-adv-x="742" 
d="M507 700h170v-700v-37c0 -164 -104 -226 -210 -226c-69 0 -141 26 -172 48l29 137c47 -15 83 -27 113 -27c43 0 70 25 70 78v27h-23l-263 441l14 -148v-293h-170v700h193l262 -441l-13 148v293z" />
    <glyph glyph-name="Ntilde" unicode="&#xd1;" horiz-adv-x="742" 
d="M315 816c-11 0 -27 -6 -27 -37h-100c0 132 56 167 120 167c32 0 48 -9 72 -24c16 -10 33 -19 47 -19c11 0 27 6 27 37h100c0 -132 -56 -167 -120 -167c-32 0 -48 9 -72 24c-16 10 -33 19 -47 19zM507 700h170v-700h-193l-263 441l14 -148v-293h-170v700h193l262 -441
l-13 148v293z" />
    <glyph glyph-name="O" unicode="O" horiz-adv-x="812" 
d="M406 713c207 0 366 -157 366 -363s-159 -363 -366 -363s-366 157 -366 363s159 363 366 363zM406 551c-112 0 -194 -84 -194 -201s82 -201 194 -201s194 84 194 201s-82 201 -194 201z" />
    <glyph glyph-name="Oacute" unicode="&#xd3;" horiz-adv-x="812" 
d="M436 1004l100 -100l-188 -134l-73 73zM406 713c207 0 366 -157 366 -363s-159 -363 -366 -363s-366 157 -366 363s159 363 366 363zM406 551c-112 0 -194 -84 -194 -201s82 -201 194 -201s194 84 194 201s-82 201 -194 201z" />
    <glyph glyph-name="Ocircumflex" unicode="&#xd4;" horiz-adv-x="812" 
d="M567 859l-89 -89l-72 82l-72 -82l-89 89l161 161zM406 713c207 0 366 -157 366 -363s-159 -363 -366 -363s-366 157 -366 363s159 363 366 363zM406 551c-112 0 -194 -84 -194 -201s82 -201 194 -201s194 84 194 201s-82 201 -194 201z" />
    <glyph glyph-name="Odieresis" unicode="&#xd6;" horiz-adv-x="812" 
d="M292 967c54 0 93 -37 93 -88c0 -52 -39 -89 -93 -89c-53 0 -93 37 -93 89c0 51 40 88 93 88zM519 967c54 0 94 -37 94 -88c0 -52 -40 -89 -94 -89c-53 0 -93 37 -93 89c0 51 40 88 93 88zM406 713c207 0 366 -157 366 -363s-159 -363 -366 -363s-366 157 -366 363
s159 363 366 363zM406 551c-112 0 -194 -84 -194 -201s82 -201 194 -201s194 84 194 201s-82 201 -194 201z" />
    <glyph glyph-name="Ograve" unicode="&#xd2;" horiz-adv-x="812" 
d="M375 1004l161 -161l-73 -73l-188 134zM406 713c207 0 366 -157 366 -363s-159 -363 -366 -363s-366 157 -366 363s159 363 366 363zM406 551c-112 0 -194 -84 -194 -201s82 -201 194 -201s194 84 194 201s-82 201 -194 201z" />
    <glyph glyph-name="Ohungarumlaut" unicode="&#x150;" horiz-adv-x="812" 
d="M323 1010l101 -47l-126 -193l-71 33zM483 1010l101 -47l-126 -193l-71 33zM406 713c207 0 366 -157 366 -363s-159 -363 -366 -363s-366 157 -366 363s159 363 366 363zM406 551c-112 0 -194 -84 -194 -201s82 -201 194 -201s194 84 194 201s-82 201 -194 201z" />
    <glyph glyph-name="Omacron" unicode="&#x14c;" horiz-adv-x="812" 
d="M531 934v-122h-250v122h250zM406 713c207 0 366 -157 366 -363s-159 -363 -366 -363s-366 157 -366 363s159 363 366 363zM406 551c-112 0 -194 -84 -194 -201s82 -201 194 -201s194 84 194 201s-82 201 -194 201z" />
    <glyph glyph-name="Oslash" unicode="&#xd8;" horiz-adv-x="812" 
d="M624 645c90 -65 148 -171 148 -295c0 -206 -159 -363 -366 -363c-25 0 -50 2 -74 7l-13 -29h-172l41 91c-91 65 -148 170 -148 294c0 206 159 363 366 363c25 0 50 -2 73 -7l13 29h172zM212 350c0 -54 17 -100 47 -135l151 336h-4c-112 0 -194 -84 -194 -201zM406 149
c112 0 194 84 194 201c0 54 -18 101 -48 136l-151 -337h5z" />
    <glyph glyph-name="Otilde" unicode="&#xd5;" horiz-adv-x="812" 
d="M489 940h100c0 -132 -56 -167 -120 -167c-32 0 -48 9 -72 24c-16 10 -33 19 -47 19c-11 0 -27 -6 -27 -37h-100c0 132 56 167 120 167c32 0 48 -9 72 -24c16 -10 33 -19 47 -19c11 0 27 6 27 37zM406 713c207 0 366 -157 366 -363s-159 -363 -366 -363s-366 157 -366 363
s159 363 366 363zM406 551c-112 0 -194 -84 -194 -201s82 -201 194 -201s194 84 194 201s-82 201 -194 201z" />
    <glyph glyph-name="OE" unicode="&#x152;" horiz-adv-x="1117" 
d="M1082 538h-312v-104h284v-162h-284v-110h312v-162h-482v40c-56 -34 -122 -53 -194 -53c-207 0 -366 157 -366 363s159 363 366 363c72 0 138 -19 194 -53v40h482v-162zM406 149c112 0 194 84 194 201s-82 201 -194 201s-194 -84 -194 -201s82 -201 194 -201z" />
    <glyph glyph-name="P" unicode="P" horiz-adv-x="662" 
d="M370 700c148 0 252 -85 252 -240s-104 -244 -252 -244h-130v-216h-170v700h300zM363 378c58 0 87 27 87 80s-29 80 -87 80h-123v-160h123z" />
    <glyph glyph-name="Thorn" unicode="&#xde;" horiz-adv-x="662" 
d="M370 618c148 0 252 -85 252 -240s-104 -244 -252 -244h-130v-134h-170v700h170v-82h130zM363 296c58 0 87 27 87 80s-29 80 -87 80h-123v-160h123z" />
    <glyph glyph-name="Q" unicode="Q" horiz-adv-x="812" 
d="M772 350c0 -97 -35 -183 -94 -246l94 -124l-129 -98l-99 130c-42 -16 -89 -25 -138 -25c-207 0 -366 157 -366 363s159 363 366 363s366 -157 366 -363zM212 350c0 -117 82 -201 194 -201s194 84 194 201s-82 201 -194 201s-194 -84 -194 -201z" />
    <glyph glyph-name="R" unicode="R" horiz-adv-x="691" 
d="M458 0l-165 243h-53v-243h-170v700h312c148 0 240 -88 240 -234c0 -112 -54 -179 -140 -207l184 -259h-208zM450 464c0 49 -30 74 -87 74h-123v-146h123c59 0 87 24 87 72z" />
    <glyph glyph-name="Racute" unicode="&#x154;" horiz-adv-x="691" 
d="M476 904l-188 -134l-73 73l161 161zM458 0l-165 243h-53v-243h-170v700h312c148 0 240 -88 240 -234c0 -112 -54 -179 -140 -207l184 -259h-208zM450 464c0 49 -30 74 -87 74h-123v-146h123c59 0 87 24 87 72z" />
    <glyph glyph-name="Rcaron" unicode="&#x158;" horiz-adv-x="691" 
d="M507 935l-161 -161l-161 161l89 89l72 -82l72 82zM458 0l-165 243h-53v-243h-170v700h312c148 0 240 -88 240 -234c0 -112 -54 -179 -140 -207l184 -259h-208zM450 464c0 49 -30 74 -87 74h-123v-146h123c59 0 87 24 87 72z" />
    <glyph glyph-name="Rcommaaccent" unicode="&#x156;" horiz-adv-x="691" 
d="M482 259l184 -259h-208l-165 243h-53v-243h-170v700h312c148 0 240 -88 240 -234c0 -112 -54 -179 -140 -207zM450 464c0 49 -30 74 -87 74h-123v-146h123c59 0 87 24 87 72zM346 -53c38 0 77 -25 77 -69c0 -24 -12 -59 -61 -128h-89l47 71c-32 6 -51 26 -51 57
c0 44 38 69 77 69z" />
    <glyph glyph-name="S" unicode="S" horiz-adv-x="649" 
d="M325 441c196 -42 289 -86 289 -229c0 -171 -158 -225 -270 -225c-214 0 -295 125 -309 244h172c16 -58 47 -85 136 -85c69 0 100 22 100 59c0 41 -42 44 -159 69c-114 24 -231 66 -231 211c0 154 137 228 270 228c198 0 273 -111 285 -232h-172c-10 41 -33 73 -113 73
c-76 0 -99 -31 -99 -61c0 -33 32 -37 101 -52z" />
    <glyph glyph-name="Sacute" unicode="&#x15a;" horiz-adv-x="649" 
d="M355 1004l100 -100l-188 -134l-73 73zM325 441c196 -42 289 -86 289 -229c0 -171 -158 -225 -270 -225c-214 0 -295 125 -309 244h172c16 -58 47 -85 136 -85c69 0 100 22 100 59c0 41 -42 44 -159 69c-114 24 -231 66 -231 211c0 154 137 228 270 228
c198 0 273 -111 285 -232h-172c-10 41 -33 73 -113 73c-76 0 -99 -31 -99 -61c0 -33 32 -37 101 -52z" />
    <glyph glyph-name="Scaron" unicode="&#x160;" horiz-adv-x="649" 
d="M486 935l-161 -161l-161 161l89 89l72 -82l72 82zM325 441c196 -42 289 -86 289 -229c0 -171 -158 -225 -270 -225c-214 0 -295 125 -309 244h172c16 -58 47 -85 136 -85c69 0 100 22 100 59c0 41 -42 44 -159 69c-114 24 -231 66 -231 211c0 154 137 228 270 228
c198 0 273 -111 285 -232h-172c-10 41 -33 73 -113 73c-76 0 -99 -31 -99 -61c0 -33 32 -37 101 -52z" />
    <glyph glyph-name="Scedilla" unicode="&#x15e;" horiz-adv-x="649" 
d="M614 212c0 -154 -129 -213 -236 -223l-35 -65c43 -13 76 -42 76 -90c0 -67 -64 -97 -160 -97c-25 0 -51 2 -59 3v81c7 -1 20 -4 39 -4c32 0 51 9 51 27c0 14 -10 29 -70 40l47 109c-157 26 -220 134 -232 238h172c16 -58 47 -85 136 -85c69 0 100 22 100 59
c0 41 -42 44 -159 69c-114 24 -231 66 -231 211c0 154 137 228 270 228c198 0 273 -111 285 -232h-172c-10 41 -33 73 -113 73c-76 0 -99 -31 -99 -61c0 -33 32 -37 101 -52c196 -42 289 -86 289 -229z" />
    <glyph glyph-name="T" unicode="T" horiz-adv-x="601" 
d="M576 700v-162h-191v-538h-170v538h-190v162h551z" />
    <glyph glyph-name="Tbar" unicode="&#x166;" horiz-adv-x="601" 
d="M576 538h-191v-107h71v-162h-71v-269h-170v269h-70v162h70v107h-190v162h551v-162z" />
    <glyph glyph-name="Tcaron" unicode="&#x164;" horiz-adv-x="601" 
d="M462 935l-161 -161l-161 161l89 89l72 -82l72 82zM576 700v-162h-191v-538h-170v538h-190v162h551z" />
    <glyph glyph-name="uni0162" unicode="&#x162;" horiz-adv-x="601" 
d="M385 0h-25l-41 -76c43 -13 76 -42 76 -90c0 -67 -64 -97 -160 -97c-25 0 -51 2 -59 3v81c7 -1 20 -4 39 -4c32 0 51 9 51 27c0 14 -10 29 -70 40l50 116h-31v538h-190v162h551v-162h-191v-538z" />
    <glyph glyph-name="U" unicode="U" horiz-adv-x="725" 
d="M487 700h173l-1 -414c0 -199 -126 -299 -294 -299s-294 100 -294 299l-1 414h173v-404c0 -110 49 -147 122 -147s122 37 122 147v404z" />
    <glyph glyph-name="Uacute" unicode="&#xda;" horiz-adv-x="725" 
d="M393 1004l100 -100l-188 -134l-73 73zM487 700h173l-1 -414c0 -199 -126 -299 -294 -299s-294 100 -294 299l-1 414h173v-404c0 -110 49 -147 122 -147s122 37 122 147v404z" />
    <glyph glyph-name="Ucircumflex" unicode="&#xdb;" horiz-adv-x="725" 
d="M524 859l-89 -89l-72 82l-72 -82l-89 89l161 161zM487 700h173l-1 -414c0 -199 -126 -299 -294 -299s-294 100 -294 299l-1 414h173v-404c0 -110 49 -147 122 -147s122 37 122 147v404z" />
    <glyph glyph-name="Udieresis" unicode="&#xdc;" horiz-adv-x="725" 
d="M249 967c54 0 93 -37 93 -88c0 -52 -39 -89 -93 -89c-53 0 -93 37 -93 89c0 51 40 88 93 88zM476 967c54 0 94 -37 94 -88c0 -52 -40 -89 -94 -89c-53 0 -93 37 -93 89c0 51 40 88 93 88zM487 700h173l-1 -414c0 -199 -126 -299 -294 -299s-294 100 -294 299l-1 414h173
v-404c0 -110 49 -147 122 -147s122 37 122 147v404z" />
    <glyph glyph-name="Ugrave" unicode="&#xd9;" horiz-adv-x="725" 
d="M332 1004l161 -161l-73 -73l-188 134zM487 700h173l-1 -414c0 -199 -126 -299 -294 -299s-294 100 -294 299l-1 414h173v-404c0 -110 49 -147 122 -147s122 37 122 147v404z" />
    <glyph glyph-name="Uhungarumlaut" unicode="&#x170;" horiz-adv-x="725" 
d="M280 1010l101 -47l-126 -193l-71 33zM440 1010l101 -47l-126 -193l-71 33zM487 700h173l-1 -414c0 -199 -126 -299 -294 -299s-294 100 -294 299l-1 414h173v-404c0 -110 49 -147 122 -147s122 37 122 147v404z" />
    <glyph glyph-name="Umacron" unicode="&#x16a;" horiz-adv-x="725" 
d="M488 934v-122h-250v122h250zM487 700h173l-1 -414c0 -199 -126 -299 -294 -299s-294 100 -294 299l-1 414h173v-404c0 -110 49 -147 122 -147s122 37 122 147v404z" />
    <glyph glyph-name="Uogonek" unicode="&#x172;" horiz-adv-x="725" 
d="M487 700h173l-1 -414c0 -158 -79 -253 -195 -286c-60 -72 -89 -103 -89 -137c0 -25 15 -35 50 -35c19 0 32 3 39 4v-92c-8 -1 -43 -3 -67 -3c-88 0 -151 27 -151 102c0 60 42 102 95 149c-156 9 -270 109 -270 298l-1 414h173v-404c0 -110 49 -147 122 -147
s122 37 122 147v404z" />
    <glyph glyph-name="Uring" unicode="&#x16e;" horiz-adv-x="725" 
d="M362 1039c75 0 135 -60 135 -134c0 -75 -61 -135 -135 -135c-73 0 -134 60 -134 135c0 74 60 134 134 134zM362 945c-22 0 -40 -17 -39 -41c-1 -25 17 -41 39 -41s40 16 40 41c0 24 -18 41 -40 41zM487 700h173l-1 -414c0 -199 -126 -299 -294 -299s-294 100 -294 299
l-1 414h173v-404c0 -110 49 -147 122 -147s122 37 122 147v404z" />
    <glyph glyph-name="V" unicode="V" horiz-adv-x="704" 
d="M499 700h180l-221 -700h-214l-219 700h180l147 -494z" />
    <glyph glyph-name="W" unicode="W" horiz-adv-x="1017" 
d="M818 700h174l-169 -700h-209l-61 253l-36 247l-17 1l-35 -248l-61 -253h-210l-169 700h175l80 -335l21 -163l21 163l80 335h213l80 -335l22 -167l21 167z" />
    <glyph glyph-name="Wacute" unicode="&#x1e82;" horiz-adv-x="1017" 
d="M639 904l-188 -134l-73 73l161 161zM818 700h174l-169 -700h-209l-61 253l-36 247l-17 1l-35 -248l-61 -253h-210l-169 700h175l80 -335l21 -163l21 163l80 335h213l80 -335l22 -167l21 167z" />
    <glyph glyph-name="Wcircumflex" unicode="&#x174;" horiz-adv-x="1017" 
d="M509 852l-72 -82l-89 89l161 161l161 -161l-89 -89zM818 700h174l-169 -700h-209l-61 253l-36 247l-17 1l-35 -248l-61 -253h-210l-169 700h175l80 -335l21 -163l21 163l80 335h213l80 -335l22 -167l21 167z" />
    <glyph glyph-name="Wdieresis" unicode="&#x1e84;" horiz-adv-x="1017" 
d="M395 790c-53 0 -93 37 -93 89c0 51 40 88 93 88c54 0 93 -37 93 -88c0 -52 -39 -89 -93 -89zM622 790c-53 0 -93 37 -93 89c0 51 40 88 93 88c54 0 94 -37 94 -88c0 -52 -40 -89 -94 -89zM818 700h174l-169 -700h-209l-61 253l-36 247l-17 1l-35 -248l-61 -253h-210
l-169 700h175l80 -335l21 -163l21 163l80 335h213l80 -335l22 -167l21 167z" />
    <glyph glyph-name="Wgrave" unicode="&#x1e80;" horiz-adv-x="1017" 
d="M639 843l-73 -73l-188 134l100 100zM818 700h174l-169 -700h-209l-61 253l-36 247l-17 1l-35 -248l-61 -253h-210l-169 700h175l80 -335l21 -163l21 163l80 335h213l80 -335l22 -167l21 167z" />
    <glyph glyph-name="X" unicode="X" horiz-adv-x="706" 
d="M681 0h-202l-128 218l-124 -218h-202l224 364l-213 336h202l118 -201l118 201h202l-217 -349z" />
    <glyph glyph-name="Y" unicode="Y" horiz-adv-x="705" 
d="M680 700l-242 -476v-224h-170v222l-243 478h191l137 -285l137 285h190z" />
    <glyph glyph-name="Yacute" unicode="&#xdd;" horiz-adv-x="705" 
d="M483 904l-188 -134l-73 73l161 161zM680 700l-242 -476v-224h-170v222l-243 478h191l137 -285l137 285h190z" />
    <glyph glyph-name="Ycircumflex" unicode="&#x176;" horiz-adv-x="705" 
d="M353 852l-72 -82l-89 89l161 161l161 -161l-89 -89zM680 700l-242 -476v-224h-170v222l-243 478h191l137 -285l137 285h190z" />
    <glyph glyph-name="Ydieresis" unicode="&#x178;" horiz-adv-x="705" 
d="M239 790c-53 0 -93 37 -93 89c0 51 40 88 93 88c54 0 93 -37 93 -88c0 -52 -39 -89 -93 -89zM466 790c-53 0 -93 37 -93 89c0 51 40 88 93 88c54 0 94 -37 94 -88c0 -52 -40 -89 -94 -89zM680 700l-242 -476v-224h-170v222l-243 478h191l137 -285l137 285h190z" />
    <glyph glyph-name="Ygrave" unicode="&#x1ef2;" horiz-adv-x="705" 
d="M483 843l-73 -73l-188 134l100 100zM680 700l-242 -476v-224h-170v222l-243 478h191l137 -285l137 285h190z" />
    <glyph glyph-name="Z" unicode="Z" horiz-adv-x="598" 
d="M250 162h313v-162h-528v162l311 376h-295v162h509l1 -162z" />
    <glyph glyph-name="Zacute" unicode="&#x179;" horiz-adv-x="598" 
d="M429 904l-188 -134l-73 73l161 161zM250 162h313v-162h-528v162l311 376h-295v162h509l1 -162z" />
    <glyph glyph-name="Zcaron" unicode="&#x17d;" horiz-adv-x="598" 
d="M460 935l-161 -161l-161 161l89 89l72 -82l72 82zM250 162h313v-162h-528v162l311 376h-295v162h509l1 -162z" />
    <glyph glyph-name="Zdotaccent" unicode="&#x17b;" horiz-adv-x="598" 
d="M299 790c-53 0 -93 37 -93 89c0 51 40 88 93 88c54 0 93 -37 93 -88c0 -52 -39 -89 -93 -89zM250 162h313v-162h-528v162l311 376h-295v162h509l1 -162z" />
    <glyph glyph-name="A.001" horiz-adv-x="772" 
d="M567 0l-50 145h-262l-50 -145h-180l254 700h214l254 -700h-180zM311 307h150l-75 218z" />
    <glyph glyph-name="a" unicode="a" horiz-adv-x="664" 
d="M444 550h170l-1 -550h-170v59c-35 -43 -85 -72 -155 -72c-140 0 -248 118 -248 288c0 171 110 288 247 288c70 0 122 -30 157 -75v62zM328 149c66 0 116 49 116 126c0 76 -50 126 -116 126s-116 -50 -116 -126c0 -77 51 -126 116 -126z" />
    <glyph glyph-name="aacute" unicode="&#xe1;" horiz-adv-x="664" 
d="M472 740l-188 -134l-73 73l161 161zM444 550h170l-1 -550h-170v59c-35 -43 -85 -72 -155 -72c-140 0 -248 118 -248 288c0 171 110 288 247 288c70 0 122 -30 157 -75v62zM328 149c66 0 116 49 116 126c0 76 -50 126 -116 126s-116 -50 -116 -126c0 -77 51 -126 116 -126
z" />
    <glyph glyph-name="abreve" unicode="&#x103;" horiz-adv-x="664" 
d="M342 606c-88 0 -171 59 -171 163v31h132v-27c0 -24 16 -40 39 -40c22 0 38 16 38 40v27h132v-31c0 -104 -83 -163 -170 -163zM444 550h170l-1 -550h-170v59c-35 -43 -85 -72 -155 -72c-140 0 -248 118 -248 288c0 171 110 288 247 288c70 0 122 -30 157 -75v62zM328 149
c66 0 116 49 116 126c0 76 -50 126 -116 126s-116 -50 -116 -126c0 -77 51 -126 116 -126z" />
    <glyph glyph-name="acircumflex" unicode="&#xe2;" horiz-adv-x="664" 
d="M342 688l-72 -82l-89 89l161 161l161 -161l-89 -89zM444 550h170l-1 -550h-170v59c-35 -43 -85 -72 -155 -72c-140 0 -248 118 -248 288c0 171 110 288 247 288c70 0 122 -30 157 -75v62zM328 149c66 0 116 49 116 126c0 76 -50 126 -116 126s-116 -50 -116 -126
c0 -77 51 -126 116 -126z" />
    <glyph glyph-name="adieresis" unicode="&#xe4;" horiz-adv-x="664" 
d="M228 624c-53 0 -93 37 -93 89c0 51 40 88 93 88c54 0 93 -37 93 -88c0 -52 -39 -89 -93 -89zM455 624c-53 0 -93 37 -93 89c0 51 40 88 93 88c54 0 94 -37 94 -88c0 -52 -40 -89 -94 -89zM444 550h170l-1 -550h-170v59c-35 -43 -85 -72 -155 -72
c-140 0 -248 118 -248 288c0 171 110 288 247 288c70 0 122 -30 157 -75v62zM328 149c66 0 116 49 116 126c0 76 -50 126 -116 126s-116 -50 -116 -126c0 -77 51 -126 116 -126z" />
    <glyph glyph-name="agrave" unicode="&#xe0;" horiz-adv-x="664" 
d="M472 677l-73 -73l-188 134l100 100zM444 550h170l-1 -550h-170v59c-35 -43 -85 -72 -155 -72c-140 0 -248 118 -248 288c0 171 110 288 247 288c70 0 122 -30 157 -75v62zM328 149c66 0 116 49 116 126c0 76 -50 126 -116 126s-116 -50 -116 -126c0 -77 51 -126 116 -126
z" />
    <glyph glyph-name="amacron" unicode="&#x101;" horiz-adv-x="664" 
d="M467 770v-122h-250v122h250zM444 550h170l-1 -550h-170v59c-35 -43 -85 -72 -155 -72c-140 0 -248 118 -248 288c0 171 110 288 247 288c70 0 122 -30 157 -75v62zM328 149c66 0 116 49 116 126c0 76 -50 126 -116 126s-116 -50 -116 -126c0 -77 51 -126 116 -126z" />
    <glyph glyph-name="aogonek" unicode="&#x105;" horiz-adv-x="664" 
d="M614 550l-1 -550c-60 -72 -89 -103 -89 -137c0 -25 15 -35 50 -35c19 0 32 3 39 4v-92c-8 -1 -43 -3 -67 -3c-88 0 -151 27 -151 102c0 65 49 109 109 161h-61v59c-35 -43 -85 -72 -155 -72c-140 0 -248 118 -248 288c0 171 110 288 247 288c70 0 122 -30 157 -75v62h170
zM328 149c66 0 116 49 116 126c0 76 -50 126 -116 126s-116 -50 -116 -126c0 -77 51 -126 116 -126z" />
    <glyph glyph-name="aring" unicode="&#xe5;" horiz-adv-x="664" 
d="M341 606c-73 0 -134 60 -134 135c0 74 60 134 134 134c75 0 135 -60 135 -134c0 -75 -61 -135 -135 -135zM341 781c-22 0 -40 -17 -39 -41c-1 -25 17 -41 39 -41s40 16 40 41c0 24 -18 41 -40 41zM444 550h170l-1 -550h-170v59c-35 -43 -85 -72 -155 -72
c-140 0 -248 118 -248 288c0 171 110 288 247 288c70 0 122 -30 157 -75v62zM328 149c66 0 116 49 116 126c0 76 -50 126 -116 126s-116 -50 -116 -126c0 -77 51 -126 116 -126z" />
    <glyph glyph-name="atilde" unicode="&#xe3;" horiz-adv-x="664" 
d="M286 661c-11 0 -27 -6 -27 -37h-100c0 132 56 167 120 167c32 0 48 -9 72 -24c16 -10 33 -19 47 -19c11 0 27 6 27 37h100c0 -132 -56 -167 -120 -167c-32 0 -48 9 -72 24c-16 10 -33 19 -47 19zM444 550h170l-1 -550h-170v59c-35 -43 -85 -72 -155 -72
c-140 0 -248 118 -248 288c0 171 110 288 247 288c70 0 122 -30 157 -75v62zM328 149c66 0 116 49 116 126c0 76 -50 126 -116 126s-116 -50 -116 -126c0 -77 51 -126 116 -126z" />
    <glyph glyph-name="ae" unicode="&#xe6;" horiz-adv-x="1050" 
d="M734 563c182 0 301 -143 284 -324h-401c8 -85 62 -121 121 -121c46 0 84 22 97 62h175c-38 -136 -153 -193 -272 -193c-59 0 -111 14 -155 39v-27h-140v59c-35 -43 -85 -72 -155 -72c-140 0 -248 118 -248 288c0 171 110 288 247 288c70 0 122 -30 157 -75v62h140v-24
c43 24 94 38 150 38zM733 432c-61 0 -97 -37 -111 -90h219c-11 53 -47 90 -108 90zM328 148c66 0 116 49 116 126c0 76 -50 126 -116 126s-116 -50 -116 -126c0 -77 51 -126 116 -126z" />
    <glyph glyph-name="b" unicode="b" horiz-adv-x="664" 
d="M377 563c137 0 247 -117 247 -288c0 -170 -108 -288 -248 -288c-70 0 -120 29 -156 72v-59h-170v770h170v-282c35 45 87 75 157 75zM336 149c65 0 116 49 116 126c0 76 -50 126 -116 126s-116 -50 -116 -126c0 -77 50 -126 116 -126z" />
    <glyph glyph-name="c" unicode="c" horiz-adv-x="636" 
d="M328 -13c-168 0 -288 125 -288 288s120 288 289 288c137 0 260 -83 277 -230h-175c-13 53 -57 73 -102 73c-75 0 -117 -54 -117 -131c0 -79 45 -131 116 -131c46 0 90 22 103 74h175c-18 -152 -144 -231 -278 -231z" />
    <glyph glyph-name="cacute" unicode="&#x107;" horiz-adv-x="636" 
d="M351 840l100 -100l-188 -134l-73 73zM328 -13c-168 0 -288 125 -288 288s120 288 289 288c137 0 260 -83 277 -230h-175c-13 53 -57 73 -102 73c-75 0 -117 -54 -117 -131c0 -79 45 -131 116 -131c46 0 90 22 103 74h175c-18 -152 -144 -231 -278 -231z" />
    <glyph glyph-name="ccaron" unicode="&#x10d;" horiz-adv-x="636" 
d="M482 767l-161 -161l-161 161l89 89l72 -82l72 82zM328 -13c-168 0 -288 125 -288 288s120 288 289 288c137 0 260 -83 277 -230h-175c-13 53 -57 73 -102 73c-75 0 -117 -54 -117 -131c0 -79 45 -131 116 -131c46 0 90 22 103 74h175c-18 -152 -144 -231 -278 -231z" />
    <glyph glyph-name="ccedilla" unicode="&#xe7;" horiz-adv-x="636" 
d="M328 144c46 0 90 22 103 74h175c-16 -134 -116 -211 -231 -228l-36 -66c43 -13 76 -42 76 -90c0 -67 -64 -97 -160 -97c-25 0 -51 2 -59 3v81c7 -1 20 -4 39 -4c32 0 51 9 51 27c0 14 -10 29 -70 40l47 110c-133 27 -223 140 -223 281c0 163 120 288 289 288
c137 0 260 -83 277 -230h-175c-13 53 -57 73 -102 73c-75 0 -117 -54 -117 -131c0 -79 45 -131 116 -131z" />
    <glyph glyph-name="d" unicode="d" horiz-adv-x="674" 
d="M454 770h170v-770h-170v59c-36 -43 -86 -72 -156 -72c-140 0 -248 118 -248 288c0 171 110 288 247 288c70 0 122 -30 157 -75v282zM338 149c66 0 116 49 116 126c0 76 -50 126 -116 126s-116 -50 -116 -126c0 -77 51 -126 116 -126z" />
    <glyph glyph-name="eth" unicode="&#xf0;" horiz-adv-x="654" 
d="M614 657l-62 -53c40 -63 62 -145 62 -250c0 -268 -144 -367 -296 -367c-157 0 -278 111 -278 282c0 158 106 261 238 261c64 0 123 -26 159 -77c-24 125 -130 170 -323 170v160c120 0 229 -18 314 -64l74 64zM326 133c65 0 116 49 116 126c0 76 -50 126 -116 126
s-116 -50 -116 -126c0 -77 50 -126 116 -126z" />
    <glyph glyph-name="dcaron" unicode="&#x10f;" horiz-adv-x="674" 
d="M764 790c38 0 77 -25 77 -69c0 -24 -12 -59 -61 -128h-89l47 71c-32 6 -51 26 -51 57c0 44 38 69 77 69zM454 488v282h170v-770h-170v59c-36 -43 -86 -72 -156 -72c-140 0 -248 118 -248 288c0 171 110 288 247 288c70 0 122 -30 157 -75zM338 149c66 0 116 49 116 126
c0 76 -50 126 -116 126s-116 -50 -116 -126c0 -77 51 -126 116 -126z" />
    <glyph glyph-name="dcroat" unicode="&#x111;" horiz-adv-x="674" 
d="M663 745v-162h-39v-583h-170v59c-36 -43 -86 -72 -156 -72c-140 0 -248 118 -248 288c0 171 110 288 247 288c70 0 122 -30 157 -75v95h-102v162h102v25h170v-25h39zM338 149c66 0 116 49 116 126c0 76 -50 126 -116 126s-116 -50 -116 -126c0 -77 51 -126 116 -126z" />
    <glyph glyph-name="e" unicode="e" horiz-adv-x="646" 
d="M330 563c182 0 301 -143 284 -324h-401c8 -85 62 -121 121 -121c46 0 84 22 97 62h175c-38 -136 -153 -193 -272 -193c-176 0 -294 125 -294 288s119 288 290 288zM329 432c-61 0 -97 -37 -111 -90h219c-11 53 -47 90 -108 90z" />
    <glyph glyph-name="eacute" unicode="&#xe9;" horiz-adv-x="646" 
d="M455 740l-188 -134l-73 73l161 161zM330 563c182 0 301 -143 284 -324h-401c8 -85 62 -121 121 -121c46 0 84 22 97 62h175c-38 -136 -153 -193 -272 -193c-176 0 -294 125 -294 288s119 288 290 288zM329 432c-61 0 -97 -37 -111 -90h219c-11 53 -47 90 -108 90z" />
    <glyph glyph-name="ecaron" unicode="&#x11b;" horiz-adv-x="646" 
d="M486 767l-161 -161l-161 161l89 89l72 -82l72 82zM330 563c182 0 301 -143 284 -324h-401c8 -85 62 -121 121 -121c46 0 84 22 97 62h175c-38 -136 -153 -193 -272 -193c-176 0 -294 125 -294 288s119 288 290 288zM329 432c-61 0 -97 -37 -111 -90h219
c-11 53 -47 90 -108 90z" />
    <glyph glyph-name="ecircumflex" unicode="&#xea;" horiz-adv-x="646" 
d="M325 688l-72 -82l-89 89l161 161l161 -161l-89 -89zM330 563c182 0 301 -143 284 -324h-401c8 -85 62 -121 121 -121c46 0 84 22 97 62h175c-38 -136 -153 -193 -272 -193c-176 0 -294 125 -294 288s119 288 290 288zM329 432c-61 0 -97 -37 -111 -90h219
c-11 53 -47 90 -108 90z" />
    <glyph glyph-name="edieresis" unicode="&#xeb;" horiz-adv-x="646" 
d="M211 624c-53 0 -93 37 -93 89c0 51 40 88 93 88c54 0 93 -37 93 -88c0 -52 -39 -89 -93 -89zM438 624c-53 0 -93 37 -93 89c0 51 40 88 93 88c54 0 94 -37 94 -88c0 -52 -40 -89 -94 -89zM330 563c182 0 301 -143 284 -324h-401c8 -85 62 -121 121 -121c46 0 84 22 97 62
h175c-38 -136 -153 -193 -272 -193c-176 0 -294 125 -294 288s119 288 290 288zM329 432c-61 0 -97 -37 -111 -90h219c-11 53 -47 90 -108 90z" />
    <glyph glyph-name="edotaccent" unicode="&#x117;" horiz-adv-x="646" 
d="M325 615c-58 0 -103 41 -103 98c0 56 45 97 103 97c60 0 103 -41 103 -97c0 -57 -43 -98 -103 -98zM330 563c182 0 301 -143 284 -324h-401c8 -85 62 -121 121 -121c46 0 84 22 97 62h175c-38 -136 -153 -193 -272 -193c-176 0 -294 125 -294 288s119 288 290 288z
M329 432c-61 0 -97 -37 -111 -90h219c-11 53 -47 90 -108 90z" />
    <glyph glyph-name="egrave" unicode="&#xe8;" horiz-adv-x="646" 
d="M455 677l-73 -73l-188 134l100 100zM330 563c182 0 301 -143 284 -324h-401c8 -85 62 -121 121 -121c46 0 84 22 97 62h175c-38 -136 -153 -193 -272 -193c-176 0 -294 125 -294 288s119 288 290 288zM329 432c-61 0 -97 -37 -111 -90h219c-11 53 -47 90 -108 90z" />
    <glyph glyph-name="emacron" unicode="&#x113;" horiz-adv-x="646" 
d="M450 770v-122h-250v122h250zM330 563c182 0 301 -143 284 -324h-401c8 -85 62 -121 121 -121c46 0 84 22 97 62h175c-38 -136 -153 -193 -272 -193c-176 0 -294 125 -294 288s119 288 290 288zM329 432c-61 0 -97 -37 -111 -90h219c-11 53 -47 90 -108 90z" />
    <glyph glyph-name="eogonek" unicode="&#x119;" horiz-adv-x="646" 
d="M330 563c182 0 301 -143 284 -324h-401c8 -85 62 -121 121 -121c46 0 84 22 97 62h175c-28 -99 -97 -157 -178 -180c-60 -72 -89 -103 -89 -137c0 -25 15 -35 50 -35c19 0 32 3 39 4v-92c-8 -1 -43 -3 -67 -3c-88 0 -151 27 -151 102c0 60 42 102 95 149
c-160 13 -265 133 -265 287c0 163 119 288 290 288zM329 432c-61 0 -97 -37 -111 -90h219c-11 53 -47 90 -108 90z" />
    <glyph glyph-name="f" unicode="f" horiz-adv-x="492" 
d="M367 634c-53 0 -83 -23 -83 -83v-1h166v-160h-166v-390h-170v390h-94v160h94v10c0 162 123 223 233 223c45 0 100 -10 135 -27l-30 -137l-22 6c-23 6 -44 9 -63 9z" />
    <glyph glyph-name="g" unicode="g" horiz-adv-x="664" 
d="M444 550h170v-542c0 -163 -109 -271 -277 -271c-134 0 -265 66 -283 218h175c13 -55 57 -67 103 -67c74 0 112 35 112 114v67c-36 -43 -86 -72 -156 -72c-140 0 -248 118 -248 283c0 166 110 283 248 283c69 0 121 -30 156 -74v61zM328 159c66 0 116 49 116 121
c0 71 -50 121 -116 121s-116 -50 -116 -121c0 -72 51 -121 116 -121z" />
    <glyph glyph-name="gcommaaccent" unicode="&#x123;" horiz-adv-x="664" 
d="M332 606c-38 0 -77 25 -77 69c0 24 12 59 61 128h89l-47 -71c32 -6 51 -26 51 -57c0 -44 -38 -69 -77 -69zM444 550h170v-542c0 -163 -109 -271 -277 -271c-134 0 -265 66 -283 218h175c13 -55 57 -67 103 -67c74 0 112 35 112 114v67c-36 -43 -86 -72 -156 -72
c-140 0 -248 118 -248 283c0 166 110 283 248 283c69 0 121 -30 156 -74v61zM328 159c66 0 116 49 116 121c0 71 -50 121 -116 121s-116 -50 -116 -121c0 -72 51 -121 116 -121z" />
    <glyph glyph-name="h" unicode="h" horiz-adv-x="626" 
d="M384 563c122 0 197 -85 197 -219v-344h-170v306c0 60 -18 95 -86 95c-66 0 -100 -33 -100 -109v-292h-170v770h170v-282c40 49 91 75 159 75z" />
    <glyph glyph-name="i" unicode="i" horiz-adv-x="270" 
d="M135 810c60 0 103 -41 103 -97c0 -57 -43 -98 -103 -98c-58 0 -103 41 -103 98c0 56 45 97 103 97zM50 0v550h170v-550h-170z" />
    <glyph glyph-name="dotlessi" unicode="&#x131;" horiz-adv-x="270" 
d="M50 0v550h170v-550h-170z" />
    <glyph glyph-name="iacute" unicode="&#xed;" horiz-adv-x="270" 
d="M165 840l100 -100l-188 -134l-73 73zM50 0v550h170v-550h-170z" />
    <glyph glyph-name="icircumflex" unicode="&#xee;" horiz-adv-x="270" 
d="M296 695l-89 -89l-72 82l-72 -82l-89 89l161 161zM50 0v550h170v-550h-170z" />
    <glyph glyph-name="idieresis" unicode="&#xef;" horiz-adv-x="270" 
d="M21 801c54 0 93 -37 93 -88c0 -52 -39 -89 -93 -89c-53 0 -93 37 -93 89c0 51 40 88 93 88zM248 801c54 0 94 -37 94 -88c0 -52 -40 -89 -94 -89c-53 0 -93 37 -93 89c0 51 40 88 93 88zM50 0v550h170v-550h-170z" />
    <glyph glyph-name="igrave" unicode="&#xec;" horiz-adv-x="270" 
d="M104 838l161 -161l-73 -73l-188 134zM50 0v550h170v-550h-170z" />
    <glyph glyph-name="imacron" unicode="&#x12b;" horiz-adv-x="270" 
d="M260 770v-122h-250v122h250zM50 0v550h170v-550h-170z" />
    <glyph glyph-name="iogonek" unicode="&#x12f;" horiz-adv-x="270" 
d="M135 615c-58 0 -103 41 -103 98c0 56 45 97 103 97c60 0 103 -41 103 -97c0 -57 -43 -98 -103 -98zM50 0v550h170v-550c-60 -72 -89 -103 -89 -137c0 -25 15 -35 50 -35c19 0 32 3 39 4v-92c-8 -1 -43 -3 -67 -3c-88 0 -151 27 -151 102c0 65 49 109 109 161h-61z" />
    <glyph glyph-name="j" unicode="j" horiz-adv-x="270" 
d="M135 810c60 0 103 -41 103 -97c0 -57 -43 -98 -103 -98c-58 0 -103 41 -103 98c0 56 45 97 103 97zM50 -250v800h170v-800h-170z" />
    <glyph glyph-name="uni0237" unicode="&#x237;" horiz-adv-x="270" 
d="M50 -250v800h170v-800h-170z" />
    <glyph glyph-name="k" unicode="k" horiz-adv-x="654" 
d="M634 0h-215l-194 226v-226h-170v770h170v-439l181 219h215l-235 -262z" />
    <glyph glyph-name="kcommaaccent" unicode="&#x137;" horiz-adv-x="654" 
d="M386 288l248 -288h-215l-194 226v-226h-170v770h170v-439l181 219h215zM327 -53c38 0 77 -25 77 -69c0 -24 -12 -59 -61 -128h-89l47 71c-32 6 -51 26 -51 57c0 44 38 69 77 69z" />
    <glyph glyph-name="l" unicode="l" horiz-adv-x="270" 
d="M50 0v770h170v-770h-170z" />
    <glyph glyph-name="lacute" unicode="&#x13a;" horiz-adv-x="270" 
d="M163 1074l100 -100l-188 -134l-73 73zM50 0v770h170v-770h-170z" />
    <glyph glyph-name="lcaron" unicode="&#x13e;" horiz-adv-x="265" 
d="M360 790c38 0 77 -25 77 -69c0 -24 -12 -59 -61 -128h-89l47 71c-32 6 -51 26 -51 57c0 44 38 69 77 69zM50 0v770h170v-770h-170z" />
    <glyph glyph-name="lcommaaccent" unicode="&#x13c;" horiz-adv-x="270" 
d="M50 770h170v-770h-170v770zM133 -53c38 0 77 -25 77 -69c0 -24 -12 -59 -61 -128h-89l47 71c-32 6 -51 26 -51 57c0 44 38 69 77 69z" />
    <glyph glyph-name="lslash" unicode="&#x142;" horiz-adv-x="265" 
d="M288 453v-162l-68 -17v-274h-170v232l-73 -18v162l73 18v376h170v-334z" />
    <glyph glyph-name="m" unicode="m" horiz-adv-x="961" 
d="M723 563c118 0 193 -85 193 -219v-344h-170v306c0 60 -18 95 -82 95c-62 0 -96 -33 -96 -109v-292h-170v306c0 60 -18 95 -82 95c-62 0 -96 -33 -96 -109v-292h-170v550h170v-62c40 49 91 75 156 75c75 0 133 -35 165 -96c42 61 106 96 182 96z" />
    <glyph glyph-name="n" unicode="n" horiz-adv-x="623" 
d="M379 563c124 0 199 -85 199 -219v-344h-170v306c0 60 -18 95 -87 95c-67 0 -101 -33 -101 -109v-292h-170v550h170v-62c40 49 91 75 159 75z" />
    <glyph glyph-name="nacute" unicode="&#x144;" horiz-adv-x="623" 
d="M442 740l-188 -134l-73 73l161 161zM379 563c124 0 199 -85 199 -219v-344h-170v306c0 60 -18 95 -87 95c-67 0 -101 -33 -101 -109v-292h-170v550h170v-62c40 49 91 75 159 75z" />
    <glyph glyph-name="ncaron" unicode="&#x148;" horiz-adv-x="623" 
d="M473 767l-161 -161l-161 161l89 89l72 -82l72 82zM379 563c124 0 199 -85 199 -219v-344h-170v306c0 60 -18 95 -87 95c-67 0 -101 -33 -101 -109v-292h-170v550h170v-62c40 49 91 75 159 75z" />
    <glyph glyph-name="ncommaaccent" unicode="&#x146;" horiz-adv-x="623" 
d="M379 563c124 0 199 -85 199 -219v-344h-170v306c0 60 -18 95 -87 95c-67 0 -101 -33 -101 -109v-292h-170v550h170v-62c40 49 91 75 159 75zM312 -53c38 0 77 -25 77 -69c0 -24 -12 -59 -61 -128h-89l47 71c-32 6 -51 26 -51 57c0 44 38 69 77 69z" />
    <glyph glyph-name="eng" unicode="&#x14b;" horiz-adv-x="623" 
d="M379 563c124 0 199 -85 199 -219v-344v-37c0 -164 -104 -226 -210 -226c-69 0 -141 26 -172 48l29 137c47 -15 83 -27 113 -27c43 0 70 25 70 78v219v114c0 60 -18 95 -87 95c-67 0 -101 -33 -101 -109v-292h-170v550h170v-62c40 49 91 75 159 75z" />
    <glyph glyph-name="ntilde" unicode="&#xf1;" horiz-adv-x="623" 
d="M256 661c-11 0 -27 -6 -27 -37h-100c0 132 56 167 120 167c32 0 48 -9 72 -24c16 -10 33 -19 47 -19c11 0 27 6 27 37h100c0 -132 -56 -167 -120 -167c-32 0 -48 9 -72 24c-16 10 -33 19 -47 19zM379 563c124 0 199 -85 199 -219v-344h-170v306c0 60 -18 95 -87 95
c-67 0 -101 -33 -101 -109v-292h-170v550h170v-62c40 49 91 75 159 75z" />
    <glyph glyph-name="o" unicode="o" horiz-adv-x="656" 
d="M328 563c159 0 288 -122 288 -288s-127 -288 -288 -288s-288 123 -288 288c0 166 129 288 288 288zM328 401c-66 0 -116 -50 -116 -126c0 -77 51 -126 116 -126c66 0 116 49 116 126c0 76 -50 126 -116 126z" />
    <glyph glyph-name="oacute" unicode="&#xf3;" horiz-adv-x="656" 
d="M358 840l100 -100l-188 -134l-73 73zM328 563c159 0 288 -122 288 -288s-127 -288 -288 -288s-288 123 -288 288c0 166 129 288 288 288zM328 401c-66 0 -116 -50 -116 -126c0 -77 51 -126 116 -126c66 0 116 49 116 126c0 76 -50 126 -116 126z" />
    <glyph glyph-name="ocircumflex" unicode="&#xf4;" horiz-adv-x="656" 
d="M489 695l-89 -89l-72 82l-72 -82l-89 89l161 161zM328 563c159 0 288 -122 288 -288s-127 -288 -288 -288s-288 123 -288 288c0 166 129 288 288 288zM328 401c-66 0 -116 -50 -116 -126c0 -77 51 -126 116 -126c66 0 116 49 116 126c0 76 -50 126 -116 126z" />
    <glyph glyph-name="odieresis" unicode="&#xf6;" horiz-adv-x="656" 
d="M214 801c54 0 93 -37 93 -88c0 -52 -39 -89 -93 -89c-53 0 -93 37 -93 89c0 51 40 88 93 88zM441 801c54 0 94 -37 94 -88c0 -52 -40 -89 -94 -89c-53 0 -93 37 -93 89c0 51 40 88 93 88zM328 563c159 0 288 -122 288 -288s-127 -288 -288 -288s-288 123 -288 288
c0 166 129 288 288 288zM328 401c-66 0 -116 -50 -116 -126c0 -77 51 -126 116 -126c66 0 116 49 116 126c0 76 -50 126 -116 126z" />
    <glyph glyph-name="ograve" unicode="&#xf2;" horiz-adv-x="656" 
d="M297 838l161 -161l-73 -73l-188 134zM328 563c159 0 288 -122 288 -288s-127 -288 -288 -288s-288 123 -288 288c0 166 129 288 288 288zM328 401c-66 0 -116 -50 -116 -126c0 -77 51 -126 116 -126c66 0 116 49 116 126c0 76 -50 126 -116 126z" />
    <glyph glyph-name="ohungarumlaut" unicode="&#x151;" horiz-adv-x="656" 
d="M245 846l101 -47l-126 -193l-71 33zM405 846l101 -47l-126 -193l-71 33zM328 563c159 0 288 -122 288 -288s-127 -288 -288 -288s-288 123 -288 288c0 166 129 288 288 288zM328 401c-66 0 -116 -50 -116 -126c0 -77 51 -126 116 -126c66 0 116 49 116 126
c0 76 -50 126 -116 126z" />
    <glyph glyph-name="omacron" unicode="&#x14d;" horiz-adv-x="656" 
d="M453 770v-122h-250v122h250zM328 563c159 0 288 -122 288 -288s-127 -288 -288 -288s-288 123 -288 288c0 166 129 288 288 288zM328 401c-66 0 -116 -50 -116 -126c0 -77 51 -126 116 -126c66 0 116 49 116 126c0 76 -50 126 -116 126z" />
    <glyph glyph-name="oslash" unicode="&#xf8;" horiz-adv-x="656" 
d="M535 478c50 -51 81 -122 81 -203c0 -166 -127 -288 -288 -288c-45 0 -87 9 -124 27l-10 -14h-125l52 72c-50 51 -81 122 -81 203c0 166 129 288 288 288c44 0 87 -10 124 -27l10 14h125zM212 275c0 -22 4 -42 12 -59l130 182c-9 2 -17 3 -26 3c-66 0 -116 -50 -116 -126z
M328 149c66 0 116 49 116 126c0 22 -4 42 -12 59l-130 -182c9 -2 17 -3 26 -3z" />
    <glyph glyph-name="otilde" unicode="&#xf5;" horiz-adv-x="656" 
d="M411 785h100c0 -132 -56 -167 -120 -167c-32 0 -48 9 -72 24c-16 10 -33 19 -47 19c-11 0 -27 -6 -27 -37h-100c0 132 56 167 120 167c32 0 48 -9 72 -24c16 -10 33 -19 47 -19c11 0 27 6 27 37zM328 563c159 0 288 -122 288 -288s-127 -288 -288 -288s-288 123 -288 288
c0 166 129 288 288 288zM328 401c-66 0 -116 -50 -116 -126c0 -77 51 -126 116 -126c66 0 116 49 116 126c0 76 -50 126 -116 126z" />
    <glyph glyph-name="oe" unicode="&#x153;" horiz-adv-x="1050" 
d="M734 563c182 0 301 -143 284 -324h-401c8 -85 62 -121 121 -121c46 0 84 22 97 62h175c-38 -136 -153 -193 -272 -193c-85 0 -157 29 -208 78c-52 -49 -123 -79 -202 -79c-161 0 -288 123 -288 288c0 166 129 288 288 288c78 0 149 -29 200 -78c51 49 122 79 206 79z
M733 432c-61 0 -97 -37 -111 -90h219c-11 53 -47 90 -108 90zM328 148c66 0 116 49 116 126c0 76 -50 126 -116 126s-116 -50 -116 -126c0 -77 51 -126 116 -126z" />
    <glyph glyph-name="p" unicode="p" horiz-adv-x="669" 
d="M382 563c137 0 247 -117 247 -288c0 -170 -108 -288 -248 -288c-70 0 -120 29 -156 72v-309h-170v800h170v-62c35 45 87 75 157 75zM341 149c65 0 116 49 116 126c0 76 -50 126 -116 126s-116 -50 -116 -126c0 -77 50 -126 116 -126z" />
    <glyph glyph-name="thorn" unicode="&#xfe;" horiz-adv-x="669" 
d="M382 563c137 0 247 -117 247 -288c0 -170 -108 -288 -248 -288c-70 0 -120 29 -156 72v-309h-170v1020h170v-282c35 45 87 75 157 75zM341 149c65 0 116 49 116 126c0 76 -50 126 -116 126s-116 -50 -116 -126c0 -77 50 -126 116 -126z" />
    <glyph glyph-name="q" unicode="q" horiz-adv-x="664" 
d="M444 550h170v-800h-170v309c-36 -43 -86 -72 -156 -72c-140 0 -248 118 -248 288c0 171 110 288 247 288c70 0 122 -30 157 -75v62zM328 149c66 0 116 49 116 126c0 76 -50 126 -116 126s-116 -50 -116 -126c0 -77 51 -126 116 -126z" />
    <glyph glyph-name="r" unicode="r" horiz-adv-x="431" 
d="M380 563c13 0 23 -1 31 -3v-175c-11 1 -18 2 -34 2c-80 0 -157 -24 -157 -149v-238h-170v550h170v-85c34 67 90 98 160 98z" />
    <glyph glyph-name="racute" unicode="&#x155;" horiz-adv-x="431" 
d="M346 740l-188 -134l-73 73l161 161zM380 563c13 0 23 -1 31 -3v-175c-11 1 -18 2 -34 2c-80 0 -157 -24 -157 -149v-238h-170v550h170v-85c34 67 90 98 160 98z" />
    <glyph glyph-name="rcaron" unicode="&#x159;" horiz-adv-x="431" 
d="M377 767l-161 -161l-161 161l89 89l72 -82l72 82zM380 563c13 0 23 -1 31 -3v-175c-11 1 -18 2 -34 2c-80 0 -157 -24 -157 -149v-238h-170v550h170v-85c34 67 90 98 160 98z" />
    <glyph glyph-name="rcommaaccent" unicode="&#x157;" horiz-adv-x="431" 
d="M380 563c13 0 23 -1 31 -3v-175c-11 1 -18 2 -34 2c-80 0 -157 -24 -157 -149v-238h-170v550h170v-85c34 67 90 98 160 98zM216 -53c38 0 77 -25 77 -69c0 -24 -12 -59 -61 -128h-89l47 71c-32 6 -51 26 -51 57c0 44 38 69 77 69z" />
    <glyph glyph-name="s" unicode="s" horiz-adv-x="590" 
d="M303 -13c-149 0 -258 71 -278 187h172c7 -30 29 -59 108 -59c57 0 75 15 75 38c0 22 -17 27 -111 47c-157 34 -221 76 -221 173c0 119 95 189 254 189c155 0 231 -67 248 -172h-172c-7 26 -29 44 -83 44c-50 0 -75 -15 -75 -39c0 -19 16 -21 82 -35
c164 -36 253 -69 253 -183c0 -127 -111 -190 -252 -190z" />
    <glyph glyph-name="sacute" unicode="&#x15b;" horiz-adv-x="590" 
d="M322 840l100 -100l-188 -134l-73 73zM303 -13c-149 0 -258 71 -278 187h172c7 -30 29 -59 108 -59c57 0 75 15 75 38c0 22 -17 27 -111 47c-157 34 -221 76 -221 173c0 119 95 189 254 189c155 0 231 -67 248 -172h-172c-7 26 -29 44 -83 44c-50 0 -75 -15 -75 -39
c0 -19 16 -21 82 -35c164 -36 253 -69 253 -183c0 -127 -111 -190 -252 -190z" />
    <glyph glyph-name="scaron" unicode="&#x161;" horiz-adv-x="590" 
d="M453 767l-161 -161l-161 161l89 89l72 -82l72 82zM303 -13c-149 0 -258 71 -278 187h172c7 -30 29 -59 108 -59c57 0 75 15 75 38c0 22 -17 27 -111 47c-157 34 -221 76 -221 173c0 119 95 189 254 189c155 0 231 -67 248 -172h-172c-7 26 -29 44 -83 44
c-50 0 -75 -15 -75 -39c0 -19 16 -21 82 -35c164 -36 253 -69 253 -183c0 -127 -111 -190 -252 -190z" />
    <glyph glyph-name="scedilla" unicode="&#x15f;" horiz-adv-x="590" 
d="M555 177c0 -114 -90 -177 -210 -188l-35 -65c43 -13 76 -42 76 -90c0 -67 -64 -97 -160 -97c-25 0 -51 2 -59 3v81c7 -1 20 -4 39 -4c32 0 51 9 51 27c0 14 -10 29 -70 40l47 109c-113 18 -192 84 -209 181h172c7 -30 29 -59 108 -59c57 0 75 15 75 38
c0 22 -17 27 -111 47c-157 34 -221 76 -221 173c0 119 95 189 254 189c155 0 231 -67 248 -172h-172c-7 26 -29 44 -83 44c-50 0 -75 -15 -75 -39c0 -19 16 -21 82 -35c164 -36 253 -69 253 -183z" />
    <glyph glyph-name="germandbls" unicode="&#xdf;" horiz-adv-x="649" 
d="M495 402c75 -26 119 -100 119 -194c0 -143 -101 -221 -217 -221c-39 0 -104 9 -144 26l34 156c28 -11 52 -20 79 -20c49 0 76 28 76 73c0 53 -37 72 -91 72h-74v162h68c26 0 61 25 61 79c0 42 -21 86 -89 86c-63 0 -97 -38 -97 -107v-514h-170v518c0 167 106 265 267 265
c167 0 261 -106 261 -229c0 -74 -35 -123 -83 -152z" />
    <glyph glyph-name="t" unicode="t" horiz-adv-x="531" 
d="M467 172l29 -137c-31 -22 -103 -48 -172 -48c-106 0 -210 62 -210 226v177h-94v160h94v113l170 37v-150h185v-160h-185v-167c0 -53 27 -78 70 -78c30 0 66 12 113 27z" />
    <glyph glyph-name="tbar" unicode="&#x167;" horiz-adv-x="531" 
d="M467 172l29 -137c-31 -22 -103 -48 -172 -48c-102 0 -202 57 -210 207h-94v162h94v34h-94v160h94v113l170 37v-150h185v-160h-185v-34h47v-162h-44c9 -33 33 -49 67 -49c30 0 66 12 113 27z" />
    <glyph glyph-name="tcaron" unicode="&#x165;" horiz-adv-x="536" 
d="M374 664c-32 6 -51 26 -51 57c0 44 38 69 77 69c38 0 77 -25 77 -69c0 -24 -12 -59 -61 -128h-89zM467 172l29 -137c-31 -22 -103 -48 -172 -48c-106 0 -210 62 -210 226v177h-94v160h94v113l170 37v-150h185v-160h-185v-167c0 -53 27 -78 70 -78c30 0 66 12 113 27z" />
    <glyph glyph-name="uni0163" unicode="&#x163;" horiz-adv-x="531" 
d="M342 -76c43 -13 76 -42 76 -90c0 -67 -64 -97 -160 -97c-25 0 -51 2 -59 3v81c7 -1 20 -4 39 -4c32 0 51 9 51 27c0 14 -10 29 -70 40l47 110c-83 19 -152 85 -152 219v177h-94v160h94v113l170 37v-150h185v-160h-185v-167c0 -53 27 -78 70 -78c30 0 66 12 113 27
l29 -137c-23 -16 -68 -35 -117 -43z" />
    <glyph glyph-name="u" unicode="u" horiz-adv-x="619" 
d="M399 550h170v-550h-170v63c-40 -50 -91 -76 -158 -76c-121 0 -196 85 -196 219v344h170v-306c0 -60 18 -95 85 -95c65 0 99 33 99 109v292z" />
    <glyph glyph-name="uacute" unicode="&#xfa;" horiz-adv-x="619" 
d="M437 740l-188 -134l-73 73l161 161zM399 550h170v-550h-170v63c-40 -50 -91 -76 -158 -76c-121 0 -196 85 -196 219v344h170v-306c0 -60 18 -95 85 -95c65 0 99 33 99 109v292z" />
    <glyph glyph-name="ucircumflex" unicode="&#xfb;" horiz-adv-x="619" 
d="M307 688l-72 -82l-89 89l161 161l161 -161l-89 -89zM399 550h170v-550h-170v63c-40 -50 -91 -76 -158 -76c-121 0 -196 85 -196 219v344h170v-306c0 -60 18 -95 85 -95c65 0 99 33 99 109v292z" />
    <glyph glyph-name="udieresis" unicode="&#xfc;" horiz-adv-x="619" 
d="M193 624c-53 0 -93 37 -93 89c0 51 40 88 93 88c54 0 93 -37 93 -88c0 -52 -39 -89 -93 -89zM420 624c-53 0 -93 37 -93 89c0 51 40 88 93 88c54 0 94 -37 94 -88c0 -52 -40 -89 -94 -89zM399 550h170v-550h-170v63c-40 -50 -91 -76 -158 -76c-121 0 -196 85 -196 219
v344h170v-306c0 -60 18 -95 85 -95c65 0 99 33 99 109v292z" />
    <glyph glyph-name="ugrave" unicode="&#xf9;" horiz-adv-x="619" 
d="M437 677l-73 -73l-188 134l100 100zM399 550h170v-550h-170v63c-40 -50 -91 -76 -158 -76c-121 0 -196 85 -196 219v344h170v-306c0 -60 18 -95 85 -95c65 0 99 33 99 109v292z" />
    <glyph glyph-name="uhungarumlaut" unicode="&#x171;" horiz-adv-x="619" 
d="M325 799l-126 -193l-71 33l96 207zM359 606l-71 33l96 207l101 -47zM399 550h170v-550h-170v63c-40 -50 -91 -76 -158 -76c-121 0 -196 85 -196 219v344h170v-306c0 -60 18 -95 85 -95c65 0 99 33 99 109v292z" />
    <glyph glyph-name="umacron" unicode="&#x16b;" horiz-adv-x="619" 
d="M432 770v-122h-250v122h250zM399 550h170v-550h-170v63c-40 -50 -91 -76 -158 -76c-121 0 -196 85 -196 219v344h170v-306c0 -60 18 -95 85 -95c65 0 99 33 99 109v292z" />
    <glyph glyph-name="uogonek" unicode="&#x173;" horiz-adv-x="619" 
d="M569 550v-550c-60 -72 -89 -103 -89 -137c0 -25 15 -35 50 -35c19 0 32 3 39 4v-92c-8 -1 -43 -3 -67 -3c-88 0 -151 27 -151 102c0 65 49 109 109 161h-61v63c-40 -50 -91 -76 -158 -76c-121 0 -196 85 -196 219v344h170v-306c0 -60 18 -95 85 -95c65 0 99 33 99 109
v292h170z" />
    <glyph glyph-name="uring" unicode="&#x16f;" horiz-adv-x="619" 
d="M306 606c-73 0 -134 60 -134 135c0 74 60 134 134 134c75 0 135 -60 135 -134c0 -75 -61 -135 -135 -135zM306 781c-22 0 -40 -17 -39 -41c-1 -25 17 -41 39 -41s40 16 40 41c0 24 -18 41 -40 41zM399 550h170v-550h-170v63c-40 -50 -91 -76 -158 -76
c-121 0 -196 85 -196 219v344h170v-306c0 -60 18 -95 85 -95c65 0 99 33 99 109v292z" />
    <glyph glyph-name="v" unicode="v" horiz-adv-x="604" 
d="M403 550h181l-181 -550h-202l-181 550h181l101 -359z" />
    <glyph glyph-name="w" unicode="w" horiz-adv-x="893" 
d="M705 550h168l-146 -550h-195l-49 185l-28 198h-17l-28 -198l-49 -185h-195l-146 550h168l44 -173l35 -182l34 182l45 173h201l44 -173l35 -180l34 180z" />
    <glyph glyph-name="wacute" unicode="&#x1e83;" horiz-adv-x="893" 
d="M577 740l-188 -134l-73 73l161 161zM705 550h168l-146 -550h-195l-49 185l-28 198h-17l-28 -198l-49 -185h-195l-146 550h168l44 -173l35 -182l34 182l45 173h201l44 -173l35 -180l34 180z" />
    <glyph glyph-name="wcircumflex" unicode="&#x175;" horiz-adv-x="893" 
d="M447 688l-72 -82l-89 89l161 161l161 -161l-89 -89zM705 550h168l-146 -550h-195l-49 185l-28 198h-17l-28 -198l-49 -185h-195l-146 550h168l44 -173l35 -182l34 182l45 173h201l44 -173l35 -180l34 180z" />
    <glyph glyph-name="wdieresis" unicode="&#x1e85;" horiz-adv-x="893" 
d="M333 624c-53 0 -93 37 -93 89c0 51 40 88 93 88c54 0 93 -37 93 -88c0 -52 -39 -89 -93 -89zM560 624c-53 0 -93 37 -93 89c0 51 40 88 93 88c54 0 94 -37 94 -88c0 -52 -40 -89 -94 -89zM705 550h168l-146 -550h-195l-49 185l-28 198h-17l-28 -198l-49 -185h-195
l-146 550h168l44 -173l35 -182l34 182l45 173h201l44 -173l35 -180l34 180z" />
    <glyph glyph-name="wgrave" unicode="&#x1e81;" horiz-adv-x="893" 
d="M577 677l-73 -73l-188 134l100 100zM705 550h168l-146 -550h-195l-49 185l-28 198h-17l-28 -198l-49 -185h-195l-146 550h168l44 -173l35 -182l34 182l45 173h201l44 -173l35 -180l34 180z" />
    <glyph glyph-name="x" unicode="x" horiz-adv-x="629" 
d="M609 0h-202l-95 151l-88 -151h-204l191 284l-181 266h202l86 -139l79 139h204l-182 -271z" />
    <glyph glyph-name="y" unicode="y" horiz-adv-x="636" 
d="M435 550h181l-351 -800h-181l143 326l-207 474h181l116 -287z" />
    <glyph glyph-name="yacute" unicode="&#xfd;" horiz-adv-x="636" 
d="M448 740l-188 -134l-73 73l161 161zM435 550h181l-351 -800h-181l143 326l-207 474h181l116 -287z" />
    <glyph glyph-name="ycircumflex" unicode="&#x177;" horiz-adv-x="636" 
d="M318 688l-72 -82l-89 89l161 161l161 -161l-89 -89zM435 550h181l-351 -800h-181l143 326l-207 474h181l116 -287z" />
    <glyph glyph-name="ydieresis" unicode="&#xff;" horiz-adv-x="636" 
d="M204 624c-53 0 -93 37 -93 89c0 51 40 88 93 88c54 0 93 -37 93 -88c0 -52 -39 -89 -93 -89zM431 624c-53 0 -93 37 -93 89c0 51 40 88 93 88c54 0 94 -37 94 -88c0 -52 -40 -89 -94 -89zM435 550h181l-351 -800h-181l143 326l-207 474h181l116 -287z" />
    <glyph glyph-name="ygrave" unicode="&#x1ef3;" horiz-adv-x="636" 
d="M448 677l-73 -73l-188 134l100 100zM435 550h181l-351 -800h-181l143 326l-207 474h181l116 -287z" />
    <glyph glyph-name="z" unicode="z" horiz-adv-x="548" 
d="M259 160h254v-160h-478v160l245 230h-230v160h454v-160z" />
    <glyph glyph-name="zacute" unicode="&#x17a;" horiz-adv-x="548" 
d="M404 740l-188 -134l-73 73l161 161zM259 160h254v-160h-478v160l245 230h-230v160h454v-160z" />
    <glyph glyph-name="zcaron" unicode="&#x17e;" horiz-adv-x="548" 
d="M435 767l-161 -161l-161 161l89 89l72 -82l72 82zM259 160h254v-160h-478v160l245 230h-230v160h454v-160z" />
    <glyph glyph-name="zdotaccent" unicode="&#x17c;" horiz-adv-x="548" 
d="M274 615c-58 0 -103 41 -103 98c0 56 45 97 103 97c60 0 103 -41 103 -97c0 -57 -43 -98 -103 -98zM259 160h254v-160h-478v160l245 230h-230v160h454v-160z" />
    <glyph glyph-name="uni0410" unicode="&#x410;" horiz-adv-x="772" 
d="M567 0l-50 145h-262l-50 -145h-180l254 700h214l254 -700h-180zM311 307h150l-75 218z" />
    <glyph glyph-name="uni0411" unicode="&#x411;" horiz-adv-x="655" 
d="M386 441c151 0 234 -70 234 -218s-94 -223 -242 -223h-308v700h170h326v-162h-326v-97h146zM371 162c49 0 77 17 77 63s-20 60 -69 60h-139v-123h131z" />
    <glyph glyph-name="uni0412" unicode="&#x412;" horiz-adv-x="660" 
d="M519 379c72 -26 106 -95 106 -174c0 -132 -99 -205 -239 -205h-316v700h316c122 0 215 -60 215 -184c0 -68 -29 -109 -82 -137zM429 486c0 43 -25 52 -66 52h-123v-105h130c38 0 59 16 59 53zM382 162c57 0 71 22 71 58c0 39 -14 58 -71 58h-142v-116h142z" />
    <glyph glyph-name="uni0413" unicode="&#x413;" horiz-adv-x="549" 
d="M524 700v-162h-284v-538h-170v700h454z" />
    <glyph glyph-name="uni0490" unicode="&#x490;" horiz-adv-x="549" 
d="M524 770v-232h-284v-538h-170v700h284v70h170z" />
    <glyph glyph-name="uni0414" unicode="&#x414;" horiz-adv-x="815" 
d="M690 162h100v-297h-170v135h-425v-135h-170v297h98c12 13 20 35 26 71l74 467h467v-538zM316 216c-3 -19 -7 -37 -11 -54h215v376h-153z" />
    <glyph glyph-name="uni0415" unicode="&#x415;" horiz-adv-x="587" 
d="M552 538h-312v-104h284v-162h-284v-110h312v-162h-482v700h482v-162z" />
    <glyph glyph-name="uni0401" unicode="&#x401;" horiz-adv-x="587" 
d="M194 790c-53 0 -93 37 -93 89c0 51 40 88 93 88c54 0 93 -37 93 -88c0 -52 -39 -89 -93 -89zM421 790c-53 0 -93 37 -93 89c0 51 40 88 93 88c54 0 94 -37 94 -88c0 -52 -40 -89 -94 -89zM552 538h-312v-104h284v-162h-284v-110h312v-162h-482v700h482v-162z" />
    <glyph glyph-name="uni0416" unicode="&#x416;" horiz-adv-x="1072" 
d="M1047 0h-208l-218 314v-314h-170v314l-218 -314h-208l252 362l-235 338h205l204 -294v294h170v-294l204 294h205l-235 -338z" />
    <glyph glyph-name="uni0417" unicode="&#x417;" horiz-adv-x="632" 
d="M498 366c62 -28 99 -85 99 -161c0 -137 -104 -218 -271 -218c-160 0 -283 79 -291 239h172c8 -57 44 -77 115 -77c80 0 103 28 103 73c0 39 -20 58 -94 58h-97v148h81c53 0 90 9 90 54c0 37 -19 69 -95 69c-58 0 -89 -17 -98 -70h-172c10 151 123 232 275 232
c159 0 262 -89 262 -208c0 -59 -31 -111 -79 -139z" />
    <glyph glyph-name="uni0418" unicode="&#x418;" horiz-adv-x="742" 
d="M484 700h193v-700h-170v293l14 148l-263 -441h-193v700h170v-293l-13 -148z" />
    <glyph glyph-name="uni0419" unicode="&#x419;" horiz-adv-x="742" 
d="M371 770c-88 0 -171 59 -171 163v31h132v-27c0 -24 16 -40 39 -40c22 0 38 16 38 40v27h132v-31c0 -104 -83 -163 -170 -163zM484 700h193v-700h-170v293l14 148l-263 -441h-193v700h170v-293l-13 -148z" />
    <glyph glyph-name="uni041A" unicode="&#x41a;" horiz-adv-x="711" 
d="M686 0h-212l-234 317v-317h-170v700h170v-298l219 298h209l-252 -338z" />
    <glyph glyph-name="uni041B" unicode="&#x41b;" horiz-adv-x="755" 
d="M217 700h468v-700h-170v538h-154l-51 -322c-26 -162 -102 -229 -208 -229c-26 0 -52 4 -77 9v153c15 -2 27 -4 41 -4c46 0 66 19 77 88z" />
    <glyph glyph-name="uni041C" unicode="&#x41c;" horiz-adv-x="841" 
d="M578 700h193v-700h-170v462l-175 -267h-16l-175 267v-462h-170v700h193l160 -240z" />
    <glyph glyph-name="uni041D" unicode="&#x41d;" horiz-adv-x="749" 
d="M509 700h170v-700h-170v276h-269v-276h-170v700h170v-262h269v262z" />
    <glyph glyph-name="uni041E" unicode="&#x41e;" horiz-adv-x="812" 
d="M406 713c207 0 366 -157 366 -363s-159 -363 -366 -363s-366 157 -366 363s159 363 366 363zM406 551c-112 0 -194 -84 -194 -201s82 -201 194 -201s194 84 194 201s-82 201 -194 201z" />
    <glyph glyph-name="uni041F" unicode="&#x41f;" horiz-adv-x="749" 
d="M679 700v-700h-170v538h-269v-538h-170v700h170h439z" />
    <glyph glyph-name="uni0420" unicode="&#x420;" horiz-adv-x="662" 
d="M370 700c148 0 252 -85 252 -240s-104 -244 -252 -244h-130v-216h-170v700h300zM363 378c58 0 87 27 87 80s-29 80 -87 80h-123v-160h123z" />
    <glyph glyph-name="uni0421" unicode="&#x421;" horiz-adv-x="784" 
d="M408 -13c-210 0 -363 157 -363 363s153 363 363 363c172 0 303 -108 341 -260h-182c-28 61 -85 98 -159 98c-116 0 -191 -84 -191 -201s75 -201 191 -201c74 0 131 37 159 98h182c-38 -152 -169 -260 -341 -260z" />
    <glyph glyph-name="uni0422" unicode="&#x422;" horiz-adv-x="601" 
d="M576 700v-162h-191v-538h-170v538h-190v162h551z" />
    <glyph glyph-name="uni0423" unicode="&#x423;" horiz-adv-x="730" 
d="M705 700l-347 -700h-190l118 237l-236 463h191l139 -278l136 278h189z" />
    <glyph glyph-name="uni040E" unicode="&#x40e;" horiz-adv-x="730" 
d="M548 964v-31c0 -104 -83 -163 -170 -163c-88 0 -171 59 -171 163v31h132v-27c0 -24 16 -40 39 -40c22 0 38 16 38 40v27h132zM705 700l-347 -700h-190l118 237l-236 463h191l139 -278l136 278h189z" />
    <glyph glyph-name="uni0424" unicode="&#x424;" horiz-adv-x="934" 
d="M606 626c159 0 288 -104 288 -270s-127 -270 -288 -270h-39v-86h-170v86h-39c-161 0 -288 104 -288 270s129 270 288 270h39v74h170v-74h39zM358 248h39v216h-39c-66 0 -116 -32 -116 -108c0 -77 50 -108 116 -108zM606 248c66 0 116 31 116 108c0 76 -50 108 -116 108
h-39v-216h39z" />
    <glyph glyph-name="uni0425" unicode="&#x425;" horiz-adv-x="706" 
d="M681 0h-202l-128 218l-124 -218h-202l224 364l-213 336h202l118 -201l118 201h202l-217 -349z" />
    <glyph glyph-name="uni0427" unicode="&#x427;" horiz-adv-x="665" 
d="M425 700h170v-700h-170v237c-33 -14 -76 -26 -134 -26c-149 0 -251 75 -251 244v245h172v-223c0 -80 41 -104 116 -104c35 0 73 5 97 22v305z" />
    <glyph glyph-name="uni0426" unicode="&#x426;" horiz-adv-x="771" 
d="M646 162h100v-297h-170v135h-506v162v538h170v-538h236v538h170v-538z" />
    <glyph glyph-name="uni0428" unicode="&#x428;" horiz-adv-x="1018" 
d="M778 700h170v-567v-133h-878v162v538h170v-538h184v538h170v-538h184v538z" />
    <glyph glyph-name="uni0429" unicode="&#x429;" horiz-adv-x="1073" 
d="M948 162h100v-297h-170v135h-808v162v538h170v-538h184v538h170v-538h184v538h170v-538z" />
    <glyph glyph-name="uni042C" unicode="&#x42c;" horiz-adv-x="655" 
d="M376 444c151 0 239 -73 239 -221s-94 -223 -242 -223h-303v700h170v-256h136zM366 162c49 0 77 17 77 63s-25 60 -74 60h-129v-123h126z" />
    <glyph glyph-name="uni042A" unicode="&#x42a;" horiz-adv-x="739" 
d="M460 444c151 0 239 -73 239 -221s-94 -223 -242 -223h-303v538h-129v162h223h76v-256h136zM450 162c49 0 77 17 77 63s-25 60 -74 60h-129v-123h126z" />
    <glyph glyph-name="uni042B" unicode="&#x42b;" horiz-adv-x="906" 
d="M376 444c151 0 239 -73 239 -221s-94 -223 -242 -223h-303v700h170v-256h136zM691 700h170v-700h-170v700zM366 162c49 0 77 17 77 63s-25 60 -74 60h-129v-123h126z" />
    <glyph glyph-name="uni0404" unicode="&#x404;" horiz-adv-x="784" 
d="M408 149c74 0 131 37 159 98h182c-38 -152 -169 -260 -341 -260c-210 0 -363 157 -363 363s153 363 363 363c172 0 303 -108 341 -260h-182c-28 61 -85 98 -159 98c-86 0 -149 -46 -176 -117h238v-162h-240c25 -75 90 -123 178 -123z" />
    <glyph glyph-name="uni042D" unicode="&#x42d;" horiz-adv-x="782" 
d="M377 713c210 0 360 -157 360 -363s-150 -363 -359 -363c-173 0 -308 108 -343 260h182c27 -65 90 -98 161 -98c87 0 150 49 175 124h-241v162h238c-27 71 -88 116 -173 116c-72 0 -134 -33 -160 -98h-182c34 152 168 260 342 260z" />
    <glyph glyph-name="uni0406" unicode="&#x406;" horiz-adv-x="310" 
d="M70 0v700h170v-700h-170z" />
    <glyph glyph-name="uni0407" unicode="&#x407;" horiz-adv-x="310" 
d="M41 967c54 0 93 -37 93 -88c0 -52 -39 -89 -93 -89c-53 0 -93 37 -93 89c0 51 40 88 93 88zM268 967c54 0 94 -37 94 -88c0 -52 -40 -89 -94 -89c-53 0 -93 37 -93 89c0 51 40 88 93 88zM70 0v700h170v-700h-170z" />
    <glyph glyph-name="uni042E" unicode="&#x42e;" horiz-adv-x="1089" 
d="M683 713c207 0 366 -157 366 -363s-159 -363 -366 -363c-179 0 -321 117 -357 281h-86v-268h-170v700h170v-270h85c36 165 179 283 358 283zM683 149c112 0 194 84 194 201s-82 201 -194 201s-194 -84 -194 -201s82 -201 194 -201z" />
    <glyph glyph-name="uni042F" unicode="&#x42f;" horiz-adv-x="691" 
d="M309 700h312v-700h-170v230h-61l-157 -230h-208l178 250c-83 33 -134 105 -134 215c0 148 92 235 240 235zM328 538c-58 0 -87 -28 -87 -78s29 -76 87 -76h123v154h-123z" />
    <glyph glyph-name="uni0430" unicode="&#x430;" horiz-adv-x="664" 
d="M444 550h170l-1 -550h-170v59c-35 -43 -85 -72 -155 -72c-140 0 -248 118 -248 288c0 171 110 288 247 288c70 0 122 -30 157 -75v62zM328 149c66 0 116 49 116 126c0 76 -50 126 -116 126s-116 -50 -116 -126c0 -77 51 -126 116 -126z" />
    <glyph glyph-name="uni0431" unicode="&#x431;" horiz-adv-x="654" 
d="M376 530c132 0 238 -103 238 -261c0 -171 -121 -282 -278 -282c-152 0 -296 99 -296 367c0 370 220 429 500 429v-160c-214 0 -321 -22 -329 -178c36 57 98 85 165 85zM328 133c66 0 116 49 116 126c0 76 -50 126 -116 126s-116 -50 -116 -126c0 -77 51 -126 116 -126z
" />
    <glyph glyph-name="uni0432" unicode="&#x432;" horiz-adv-x="587" 
d="M457 299c60 -19 95 -66 95 -139c0 -120 -97 -160 -203 -160h-299v550h275c102 0 199 -22 199 -138c0 -59 -30 -87 -67 -113zM352 378c0 30 -12 40 -42 40h-90v-78h91c31 0 41 10 41 38zM336 132c31 0 44 10 44 44s-13 44 -44 44h-116v-88h116z" />
    <glyph glyph-name="uni0433" unicode="&#x433;" horiz-adv-x="451" 
d="M431 550v-160h-211v-390h-170v550h381z" />
    <glyph glyph-name="uni0491" unicode="&#x491;" horiz-adv-x="451" 
d="M431 624v-234h-211v-390h-170v550h211v74h170z" />
    <glyph glyph-name="uni0434" unicode="&#x434;" horiz-adv-x="746" 
d="M626 160h100v-295h-170v135h-366v-135h-170v295h100c13 13 22 36 28 73l51 317h427v-390zM297 160h159v230h-112l-27 -166c-4 -27 -11 -46 -20 -64z" />
    <glyph glyph-name="uni0435" unicode="&#x435;" horiz-adv-x="646" 
d="M330 563c182 0 301 -143 284 -324h-401c8 -85 62 -121 121 -121c46 0 84 22 97 62h175c-38 -136 -153 -193 -272 -193c-176 0 -294 125 -294 288s119 288 290 288zM329 432c-61 0 -97 -37 -111 -90h219c-11 53 -47 90 -108 90z" />
    <glyph glyph-name="uni0451" unicode="&#x451;" horiz-adv-x="646" 
d="M211 624c-53 0 -93 37 -93 89c0 51 40 88 93 88c54 0 93 -37 93 -88c0 -52 -39 -89 -93 -89zM438 624c-53 0 -93 37 -93 89c0 51 40 88 93 88c54 0 94 -37 94 -88c0 -52 -40 -89 -94 -89zM330 563c182 0 301 -143 284 -324h-401c8 -85 62 -121 121 -121c46 0 84 22 97 62
h175c-38 -136 -153 -193 -272 -193c-176 0 -294 125 -294 288s119 288 290 288zM329 432c-61 0 -97 -37 -111 -90h219c-11 53 -47 90 -108 90z" />
    <glyph glyph-name="uni0436" unicode="&#x436;" horiz-adv-x="1028" 
d="M1008 0h-215l-194 226v-226h-170v226l-194 -226h-215l248 288l-235 262h215l181 -219v219h170v-219l181 219h215l-235 -262z" />
    <glyph glyph-name="uni0437" unicode="&#x437;" horiz-adv-x="590" 
d="M474 290c49 -21 81 -65 81 -130c0 -120 -108 -173 -252 -173c-186 0 -253 89 -273 201h172c8 -55 37 -72 97 -72s84 17 84 55c0 29 -14 45 -64 45h-84v129h72c45 0 59 13 59 42c0 32 -18 50 -74 50c-39 0 -74 -9 -81 -60h-172c16 97 77 186 255 186
c137 0 244 -53 244 -163c0 -57 -29 -89 -64 -110z" />
    <glyph glyph-name="uni0438" unicode="&#x438;" horiz-adv-x="639" 
d="M396 550h193v-550h-170v164l9 149l-185 -313h-193v550h170v-164l-9 -147z" />
    <glyph glyph-name="uni0439" unicode="&#x439;" horiz-adv-x="639" 
d="M320 606c-88 0 -171 59 -171 163v31h132v-27c0 -24 16 -40 39 -40c22 0 38 16 38 40v27h132v-31c0 -104 -83 -163 -170 -163zM396 550h193v-550h-170v164l9 149l-185 -313h-193v550h170v-164l-9 -147z" />
    <glyph glyph-name="uni043A" unicode="&#x43a;" horiz-adv-x="649" 
d="M629 0h-215l-194 226v-226h-170v550h170v-219l181 219h215l-235 -262z" />
    <glyph glyph-name="uni043B" unicode="&#x43b;" horiz-adv-x="660" 
d="M188 550h422v-550h-170v390h-107l-28 -174c-26 -162 -102 -229 -208 -229c-26 0 -52 4 -77 9v153c15 -2 27 -4 41 -4c46 0 65 19 76 88z" />
    <glyph glyph-name="uni043C" unicode="&#x43c;" horiz-adv-x="732" 
d="M489 550h193v-550h-170v164l12 185l-156 -226h-4l-156 226l12 -185v-164h-170v550h193l123 -169z" />
    <glyph glyph-name="uni043D" unicode="&#x43d;" horiz-adv-x="645" 
d="M425 550h170v-550h-170v199h-205v-199h-170v550h170v-191h205v191z" />
    <glyph glyph-name="uni043E" unicode="&#x43e;" horiz-adv-x="656" 
d="M328 563c159 0 288 -122 288 -288s-127 -288 -288 -288s-288 123 -288 288c0 166 129 288 288 288zM328 401c-66 0 -116 -50 -116 -126c0 -77 51 -126 116 -126c66 0 116 49 116 126c0 76 -50 126 -116 126z" />
    <glyph glyph-name="uni043F" unicode="&#x43f;" horiz-adv-x="632" 
d="M582 550v-550h-170v390h-192v-390h-170v550h170h362z" />
    <glyph glyph-name="uni0440" unicode="&#x440;" horiz-adv-x="669" 
d="M382 563c137 0 247 -117 247 -288c0 -170 -108 -288 -248 -288c-70 0 -120 29 -156 72v-309h-170v800h170v-62c35 45 87 75 157 75zM341 149c65 0 116 49 116 126c0 76 -50 126 -116 126s-116 -50 -116 -126c0 -77 50 -126 116 -126z" />
    <glyph glyph-name="uni0441" unicode="&#x441;" horiz-adv-x="636" 
d="M328 -13c-168 0 -288 125 -288 288s120 288 289 288c137 0 260 -83 277 -230h-175c-13 53 -57 73 -102 73c-75 0 -117 -54 -117 -131c0 -79 45 -131 116 -131c46 0 90 22 103 74h175c-18 -152 -144 -231 -278 -231z" />
    <glyph glyph-name="uni0442" unicode="&#x442;" horiz-adv-x="530" 
d="M510 550v-160h-160v-390h-170v390h-160v160h330h160z" />
    <glyph glyph-name="uni0443" unicode="&#x443;" horiz-adv-x="636" 
d="M435 550h181l-351 -800h-181l143 326l-207 474h181l116 -287z" />
    <glyph glyph-name="uni045E" unicode="&#x45e;" horiz-adv-x="636" 
d="M318 606c-88 0 -171 59 -171 163v31h132v-27c0 -24 16 -40 39 -40c22 0 38 16 38 40v27h132v-31c0 -104 -83 -163 -170 -163zM435 550h181l-351 -800h-181l143 326l-207 474h181l116 -287z" />
    <glyph glyph-name="uni0444" unicode="&#x444;" horiz-adv-x="1058" 
d="M771 563c137 0 247 -117 247 -288c0 -170 -108 -288 -248 -288c-70 0 -120 29 -156 72v-289h-170v289c-36 -43 -86 -72 -156 -72c-140 0 -248 118 -248 288c0 171 110 288 247 288c70 0 122 -30 157 -74v281h170v-281c35 44 87 74 157 74zM328 149c66 0 116 49 116 126
c0 76 -50 126 -116 126s-116 -50 -116 -126c0 -77 51 -126 116 -126zM730 149c65 0 116 49 116 126c0 76 -50 126 -116 126s-116 -50 -116 -126c0 -77 50 -126 116 -126z" />
    <glyph glyph-name="uni0445" unicode="&#x445;" horiz-adv-x="629" 
d="M609 0h-202l-95 151l-88 -151h-204l191 284l-181 266h202l86 -139l79 139h204l-182 -271z" />
    <glyph glyph-name="uni0447" unicode="&#x447;" horiz-adv-x="601" 
d="M381 550h170v-550h-170v166c-30 -11 -65 -19 -112 -19c-111 0 -224 42 -224 197v206h170v-161c0 -63 13 -90 89 -90c30 0 56 4 77 16v235z" />
    <glyph glyph-name="uni0446" unicode="&#x446;" horiz-adv-x="687" 
d="M567 160h100v-295h-170v135h-277h-170v550h170v-390h177v390h170v-390z" />
    <glyph glyph-name="uni0448" unicode="&#x448;" horiz-adv-x="872" 
d="M652 550h170v-550h-170h-301h-212h-89v550h170v-390h131v390h170v-390h131v390z" />
    <glyph glyph-name="uni0449" unicode="&#x449;" horiz-adv-x="942" 
d="M822 160h100v-295h-170v135h-231h-301h-170v550h170v-390h131v390h170v-390h131v390h170v-390z" />
    <glyph glyph-name="uni044C" unicode="&#x44c;" horiz-adv-x="587" 
d="M344 398c92 0 203 -39 203 -194s-116 -204 -208 -204h-288l-1 550h170v-152h124zM333 162c29 0 42 15 42 42c0 30 -13 45 -42 45h-112v-87h112z" />
    <glyph glyph-name="uni044A" unicode="&#x44a;" horiz-adv-x="676" 
d="M433 398c92 0 203 -39 203 -194s-116 -204 -208 -204h-287l-1 390h-120v160h290v-152h123zM422 162c29 0 42 15 42 42c0 30 -13 45 -42 45h-111v-87h111z" />
    <glyph glyph-name="uni044B" unicode="&#x44b;" horiz-adv-x="833" 
d="M342 398c92 0 203 -39 203 -194s-116 -204 -208 -204h-287v550h170v-152h122zM613 550h170v-550h-170v550zM331 162c29 0 42 15 42 42c0 30 -13 45 -42 45h-111v-87h111z" />
    <glyph glyph-name="uni0454" unicode="&#x454;" horiz-adv-x="636" 
d="M328 139c46 0 90 22 103 79h175c-18 -152 -144 -231 -278 -231c-168 0 -288 125 -288 288s120 288 289 288c137 0 260 -83 277 -230h-175c-13 58 -57 78 -102 78c-52 0 -88 -26 -105 -68h139v-131h-141c18 -46 55 -73 106 -73z" />
    <glyph glyph-name="uni044D" unicode="&#x44d;" horiz-adv-x="639" 
d="M311 563c170 0 288 -125 288 -288s-117 -288 -287 -288c-134 0 -264 78 -282 231h175c13 -58 61 -79 107 -79c52 0 89 27 105 73h-141v131h140c-17 43 -53 68 -105 68c-50 0 -94 -23 -106 -78h-175c17 147 142 230 281 230z" />
    <glyph glyph-name="uni0456" unicode="&#x456;" horiz-adv-x="270" 
d="M135 810c60 0 103 -41 103 -97c0 -57 -43 -98 -103 -98c-58 0 -103 41 -103 98c0 56 45 97 103 97zM50 0v550h170v-550h-170z" />
    <glyph glyph-name="uni0457" unicode="&#x457;" horiz-adv-x="270" 
d="M21 801c54 0 93 -37 93 -88c0 -52 -39 -89 -93 -89c-53 0 -93 37 -93 89c0 51 40 88 93 88zM248 801c54 0 94 -37 94 -88c0 -52 -40 -89 -94 -89c-53 0 -93 37 -93 89c0 51 40 88 93 88zM50 0v550h170v-550h-170z" />
    <glyph glyph-name="uni044E" unicode="&#x44e;" horiz-adv-x="910" 
d="M582 563c159 0 288 -122 288 -288s-127 -288 -288 -288c-133 0 -243 84 -277 207h-85v-194h-170v550h170v-196h84c34 124 146 209 278 209zM582 149c66 0 116 49 116 126c0 76 -50 126 -116 126s-116 -50 -116 -126c0 -77 51 -126 116 -126z" />
    <glyph glyph-name="uni044F" unicode="&#x44f;" horiz-adv-x="602" 
d="M260 550h292v-550h-170v181h-41l-113 -181h-208l143 200c-61 22 -111 69 -111 158c0 147 116 192 208 192zM271 398c-31 0 -47 -15 -47 -37c0 -26 18 -41 47 -41h111v78h-111z" />
    <glyph glyph-name="zero" unicode="0" horiz-adv-x="700" 
d="M350 713c194 0 310 -145 310 -363s-116 -363 -310 -363s-310 145 -310 363s116 363 310 363zM350 149c99 0 138 72 138 201s-39 201 -138 201s-138 -72 -138 -201s39 -201 138 -201z" />
    <glyph glyph-name="one" unicode="1" horiz-adv-x="420" 
d="M273 700h77v-700h-170v502l-155 -65v167z" />
    <glyph glyph-name="two" unicode="2" horiz-adv-x="612" 
d="M314 162h263v-162h-542v121l205 179c131 115 152 136 152 178c0 34 -21 73 -85 73c-58 0 -86 -32 -93 -95h-171c6 158 118 257 272 257c158 0 249 -106 249 -227c0 -109 -73 -170 -183 -266l-65 -57z" />
    <glyph glyph-name="three" unicode="3" horiz-adv-x="615" 
d="M485 366c60 -27 95 -85 95 -161c0 -140 -106 -218 -266 -218c-150 0 -271 79 -279 239h172c8 -57 44 -78 105 -78c73 0 96 29 96 74c0 39 -20 58 -87 58h-92v148h76c46 0 83 9 83 54c0 37 -19 70 -88 70c-48 0 -79 -18 -88 -71h-172c10 150 123 232 265 232
c152 0 255 -89 255 -208c0 -59 -28 -111 -75 -139z" />
    <glyph glyph-name="four" unicode="4" horiz-adv-x="650" 
d="M625 306v-159h-95v-147h-170v147l-335 -1v160l254 394h251v-394h95zM204 307h156v235h-8z" />
    <glyph glyph-name="five" unicode="5" horiz-adv-x="617" 
d="M350 474c122 0 232 -82 232 -233c0 -159 -118 -254 -273 -254c-134 0 -268 74 -274 244h172c6 -61 53 -83 100 -83c65 0 103 41 103 95c0 57 -41 91 -100 91c-50 0 -82 -24 -94 -43h-162l87 409h408v-162h-280l-18 -88c25 14 57 24 99 24z" />
    <glyph glyph-name="six" unicode="6" horiz-adv-x="622" 
d="M361 479c113 0 226 -73 226 -227c0 -160 -123 -265 -275 -265c-150 0 -277 103 -277 262c0 151 114 279 244 451h201l-187 -234c21 9 40 13 68 13zM311 149c61 0 104 40 104 103s-43 99 -104 99s-104 -36 -104 -99s43 -103 104 -103z" />
    <glyph glyph-name="seven" unicode="7" horiz-adv-x="560" 
d="M25 700h510v-121l-286 -579h-192l273 538h-305v162z" />
    <glyph glyph-name="eight" unicode="8" horiz-adv-x="616" 
d="M480 365c65 -30 101 -92 101 -165c0 -132 -116 -213 -273 -213s-273 81 -273 213c0 73 36 135 101 165c-50 27 -83 81 -83 145c0 118 110 203 255 203s255 -85 255 -203c0 -64 -33 -118 -83 -145zM308 553c-64 0 -85 -30 -85 -65c0 -34 21 -57 85 -57s85 23 85 57
c0 35 -21 65 -85 65zM308 147c69 0 102 24 102 69c0 47 -37 68 -102 68s-102 -21 -102 -68c0 -45 33 -69 102 -69z" />
    <glyph glyph-name="nine" unicode="9" horiz-adv-x="622" 
d="M310 713c150 0 277 -103 277 -262c0 -151 -114 -279 -244 -451h-201l187 234c-21 -9 -40 -13 -68 -13c-113 0 -226 73 -226 227c0 160 123 265 275 265zM311 349c61 0 104 36 104 99s-43 103 -104 103s-104 -40 -104 -103s43 -99 104 -99z" />
    <glyph glyph-name="zero.subs" horiz-adv-x="462" 
d="M231 361c-120 0 -201 78 -201 211s81 211 201 211s201 -78 201 -211s-81 -211 -201 -211zM231 492c41 0 54 27 54 80s-13 80 -54 80s-54 -27 -54 -80s13 -80 54 -80z" />
    <glyph glyph-name="one.subs" horiz-adv-x="310" 
d="M203 770h77v-396h-145v250l-105 -32v129z" />
    <glyph glyph-name="two.subs" horiz-adv-x="428" 
d="M228 489h170v-115h-368v104l147 112c53 40 59 48 59 66c0 15 -7 22 -24 22c-20 0 -31 -10 -33 -43h-147c3 70 57 148 183 148c119 0 168 -69 168 -135c0 -61 -46 -102 -130 -146z" />
    <glyph glyph-name="three.subs" horiz-adv-x="430" 
d="M346 581c32 -19 54 -49 54 -90c0 -60 -47 -130 -178 -130s-189 68 -192 142h147c5 -28 16 -37 39 -37c28 0 37 14 37 31c0 21 -9 32 -32 32h-44v90h44c19 0 22 18 22 32s-6 27 -29 27s-30 -14 -32 -37h-147c3 76 63 142 181 142c122 0 174 -70 174 -130
c0 -34 -17 -57 -44 -72z" />
    <glyph glyph-name="four.subs" horiz-adv-x="463" 
d="M433 557v-115h-69v-68h-145v68h-189v115l158 213h176v-213h69zM143 557h76v106z" />
    <glyph glyph-name="five.subs" horiz-adv-x="424" 
d="M246 636c95 0 148 -55 148 -130c0 -73 -49 -145 -176 -145c-134 0 -179 79 -188 135h147c5 -19 18 -30 36 -30c25 0 37 15 37 41c0 25 -11 40 -38 40c-15 0 -24 -6 -32 -18h-136l51 241h271v-110h-185l-9 -43c21 13 43 19 74 19z" />
    <glyph glyph-name="six.subs" horiz-adv-x="416" 
d="M250 632c91 0 136 -67 136 -129c0 -67 -53 -142 -175 -142c-128 0 -181 82 -181 158s53 144 156 251h153l-138 -143c18 3 34 5 49 5zM208 472c22 0 34 12 34 34s-12 34 -34 34s-34 -12 -34 -34s12 -34 34 -34z" />
    <glyph glyph-name="seven.subs" horiz-adv-x="377" 
d="M30 770h317v-89l-152 -307h-134l141 281h-172v115z" />
    <glyph glyph-name="eight.subs" horiz-adv-x="434" 
d="M339 582c38 -18 65 -52 65 -98c0 -66 -55 -123 -187 -123s-187 57 -187 123c0 46 27 80 65 98c-33 16 -55 44 -55 84c0 63 54 117 177 117s177 -54 177 -117c0 -40 -22 -68 -55 -84zM217 678c-21 0 -30 -14 -30 -30s9 -29 30 -29s30 13 30 29s-9 30 -30 30zM217 466
c29 0 40 14 40 31s-11 32 -40 32s-40 -15 -40 -32s11 -31 40 -31z" />
    <glyph glyph-name="nine.subs" horiz-adv-x="416" 
d="M205 783c128 0 181 -82 181 -158s-53 -144 -156 -251h-153l138 143c-18 -3 -34 -5 -49 -5c-91 0 -136 67 -136 129c0 67 53 142 175 142zM174 638c0 -22 12 -34 34 -34s34 12 34 34s-12 34 -34 34s-34 -12 -34 -34z" />
    <glyph glyph-name="fraction" unicode="&#x2044;" horiz-adv-x="280" 
d="M-140 0l400 700h160l-400 -700h-160z" />
    <glyph glyph-name="onehalf" unicode="&#xbd;" horiz-adv-x="1048" 
d="M280 304h-145v250l-105 -32v129l173 49h77v-396zM600 700h160l-400 -700h-160zM848 115h170v-115h-368v104l147 112c53 40 59 48 59 66c0 15 -7 22 -24 22c-20 0 -31 -10 -33 -43h-147c3 70 57 148 183 148c119 0 168 -69 168 -135c0 -61 -46 -102 -130 -146z" />
    <glyph glyph-name="onequarter" unicode="&#xbc;" horiz-adv-x="1023" 
d="M280 304h-145v250l-105 -32v129l173 49h77v-396zM600 700h160l-400 -700h-160zM993 183v-115h-69v-68h-145v68h-189v115l158 213h176v-213h69zM703 183h76v106z" />
    <glyph glyph-name="threequarters" unicode="&#xbe;" horiz-adv-x="1113" 
d="M400 421c0 -60 -47 -130 -178 -130s-189 68 -192 142h147c5 -28 16 -37 39 -37c28 0 37 14 37 31c0 21 -9 32 -32 32h-44v90h44c19 0 22 18 22 32s-6 27 -29 27s-30 -14 -32 -37h-147c3 76 63 142 181 142c122 0 174 -70 174 -130c0 -34 -17 -57 -44 -72
c32 -19 54 -49 54 -90zM690 700h160l-400 -700h-160zM1083 183v-115h-69v-68h-145v68h-189v115l158 213h176v-213h69zM793 183h76v106z" />
    <glyph glyph-name="oneeighth" unicode="&#x215b;" horiz-adv-x="1054" 
d="M280 304h-145v250l-105 -32v129l173 49h77v-396zM600 700h160l-400 -700h-160zM959 208c38 -18 65 -52 65 -98c0 -66 -55 -123 -187 -123s-187 57 -187 123c0 46 27 80 65 98c-33 16 -55 44 -55 84c0 63 54 117 177 117s177 -54 177 -117c0 -40 -22 -68 -55 -84zM837 304
c-21 0 -30 -14 -30 -30s9 -29 30 -29s30 13 30 29s-9 30 -30 30zM837 92c29 0 40 14 40 31s-11 32 -40 32s-40 -15 -40 -32s11 -31 40 -31z" />
    <glyph glyph-name="threeeighths" unicode="&#x215c;" horiz-adv-x="1144" 
d="M400 421c0 -60 -47 -130 -178 -130s-189 68 -192 142h147c5 -28 16 -37 39 -37c28 0 37 14 37 31c0 21 -9 32 -32 32h-44v90h44c19 0 22 18 22 32s-6 27 -29 27s-30 -14 -32 -37h-147c3 76 63 142 181 142c122 0 174 -70 174 -130c0 -34 -17 -57 -44 -72
c32 -19 54 -49 54 -90zM690 700h160l-400 -700h-160zM1049 208c38 -18 65 -52 65 -98c0 -66 -55 -123 -187 -123s-187 57 -187 123c0 46 27 80 65 98c-33 16 -55 44 -55 84c0 63 54 117 177 117s177 -54 177 -117c0 -40 -22 -68 -55 -84zM927 304c-21 0 -30 -14 -30 -30
s9 -29 30 -29s30 13 30 29s-9 30 -30 30zM927 92c29 0 40 14 40 31s-11 32 -40 32s-40 -15 -40 -32s11 -31 40 -31z" />
    <glyph glyph-name="fiveeighths" unicode="&#x215d;" horiz-adv-x="1138" 
d="M394 436c0 -73 -49 -145 -176 -145c-134 0 -179 79 -188 135h147c5 -19 18 -30 36 -30c25 0 37 15 37 41c0 25 -11 40 -38 40c-15 0 -24 -6 -32 -18h-136l51 241h271v-110h-185l-9 -43c21 13 43 19 74 19c95 0 148 -55 148 -130zM684 700h160l-400 -700h-160zM1043 208
c38 -18 65 -52 65 -98c0 -66 -55 -123 -187 -123s-187 57 -187 123c0 46 27 80 65 98c-33 16 -55 44 -55 84c0 63 54 117 177 117s177 -54 177 -117c0 -40 -22 -68 -55 -84zM921 304c-21 0 -30 -14 -30 -30s9 -29 30 -29s30 13 30 29s-9 30 -30 30zM921 92c29 0 40 14 40 31
s-11 32 -40 32s-40 -15 -40 -32s11 -31 40 -31z" />
    <glyph glyph-name="seveneighths" unicode="&#x215e;" horiz-adv-x="1031" 
d="M195 304h-134l141 281h-172v115h317v-89zM577 700h160l-400 -700h-160zM936 208c38 -18 65 -52 65 -98c0 -66 -55 -123 -187 -123s-187 57 -187 123c0 46 27 80 65 98c-33 16 -55 44 -55 84c0 63 54 117 177 117s177 -54 177 -117c0 -40 -22 -68 -55 -84zM814 304
c-21 0 -30 -14 -30 -30s9 -29 30 -29s30 13 30 29s-9 30 -30 30zM814 92c29 0 40 14 40 31s-11 32 -40 32s-40 -15 -40 -32s11 -31 40 -31z" />
    <glyph glyph-name="zero.dnom" horiz-adv-x="462" 
d="M231 -13c-120 0 -201 78 -201 211s81 211 201 211s201 -78 201 -211s-81 -211 -201 -211zM231 118c41 0 54 27 54 80s-13 80 -54 80s-54 -27 -54 -80s13 -80 54 -80z" />
    <glyph glyph-name="one.dnom" horiz-adv-x="310" 
d="M203 396h77v-396h-145v250l-105 -32v129z" />
    <glyph glyph-name="two.dnom" horiz-adv-x="428" 
d="M228 115h170v-115h-368v104l147 112c53 40 59 48 59 66c0 15 -7 22 -24 22c-20 0 -31 -10 -33 -43h-147c3 70 57 148 183 148c119 0 168 -69 168 -135c0 -61 -46 -102 -130 -146z" />
    <glyph glyph-name="three.dnom" horiz-adv-x="430" 
d="M346 207c32 -19 54 -49 54 -90c0 -60 -47 -130 -178 -130s-189 68 -192 142h147c5 -28 16 -37 39 -37c28 0 37 14 37 31c0 21 -9 32 -32 32h-44v90h44c19 0 22 18 22 32s-6 27 -29 27s-30 -14 -32 -37h-147c3 76 63 142 181 142c122 0 174 -70 174 -130
c0 -34 -17 -57 -44 -72z" />
    <glyph glyph-name="four.dnom" horiz-adv-x="463" 
d="M433 183v-115h-69v-68h-145v68h-189v115l158 213h176v-213h69zM143 183h76v106z" />
    <glyph glyph-name="five.dnom" horiz-adv-x="424" 
d="M246 262c95 0 148 -55 148 -130c0 -73 -49 -145 -176 -145c-134 0 -179 79 -188 135h147c5 -19 18 -30 36 -30c25 0 37 15 37 41c0 25 -11 40 -38 40c-15 0 -24 -6 -32 -18h-136l51 241h271v-110h-185l-9 -43c21 13 43 19 74 19z" />
    <glyph glyph-name="six.dnom" horiz-adv-x="416" 
d="M250 258c91 0 136 -67 136 -129c0 -67 -53 -142 -175 -142c-128 0 -181 82 -181 158s53 144 156 251h153l-138 -143c18 3 34 5 49 5zM208 98c22 0 34 12 34 34s-12 34 -34 34s-34 -12 -34 -34s12 -34 34 -34z" />
    <glyph glyph-name="seven.dnom" horiz-adv-x="377" 
d="M30 396h317v-89l-152 -307h-134l141 281h-172v115z" />
    <glyph glyph-name="eight.dnom" horiz-adv-x="434" 
d="M339 208c38 -18 65 -52 65 -98c0 -66 -55 -123 -187 -123s-187 57 -187 123c0 46 27 80 65 98c-33 16 -55 44 -55 84c0 63 54 117 177 117s177 -54 177 -117c0 -40 -22 -68 -55 -84zM217 304c-21 0 -30 -14 -30 -30s9 -29 30 -29s30 13 30 29s-9 30 -30 30zM217 92
c29 0 40 14 40 31s-11 32 -40 32s-40 -15 -40 -32s11 -31 40 -31z" />
    <glyph glyph-name="nine.dnom" horiz-adv-x="416" 
d="M205 409c128 0 181 -82 181 -158s-53 -144 -156 -251h-153l138 143c-18 -3 -34 -5 -49 -5c-91 0 -136 67 -136 129c0 67 53 142 175 142zM174 264c0 -22 12 -34 34 -34s34 12 34 34s-12 34 -34 34s-34 -12 -34 -34z" />
    <glyph glyph-name="zero.numr" horiz-adv-x="462" 
d="M231 291c-120 0 -201 78 -201 211s81 211 201 211s201 -78 201 -211s-81 -211 -201 -211zM231 422c41 0 54 27 54 80s-13 80 -54 80s-54 -27 -54 -80s13 -80 54 -80z" />
    <glyph glyph-name="one.numr" horiz-adv-x="310" 
d="M203 700h77v-396h-145v250l-105 -32v129z" />
    <glyph glyph-name="two.numr" horiz-adv-x="428" 
d="M228 419h170v-115h-368v104l147 112c53 40 59 48 59 66c0 15 -7 22 -24 22c-20 0 -31 -10 -33 -43h-147c3 70 57 148 183 148c119 0 168 -69 168 -135c0 -61 -46 -102 -130 -146z" />
    <glyph glyph-name="three.numr" horiz-adv-x="430" 
d="M346 511c32 -19 54 -49 54 -90c0 -60 -47 -130 -178 -130s-189 68 -192 142h147c5 -28 16 -37 39 -37c28 0 37 14 37 31c0 21 -9 32 -32 32h-44v90h44c19 0 22 18 22 32s-6 27 -29 27s-30 -14 -32 -37h-147c3 76 63 142 181 142c122 0 174 -70 174 -130
c0 -34 -17 -57 -44 -72z" />
    <glyph glyph-name="four.numr" horiz-adv-x="463" 
d="M433 487v-115h-69v-68h-145v68h-189v115l158 213h176v-213h69zM143 487h76v106z" />
    <glyph glyph-name="five.numr" horiz-adv-x="424" 
d="M246 566c95 0 148 -55 148 -130c0 -73 -49 -145 -176 -145c-134 0 -179 79 -188 135h147c5 -19 18 -30 36 -30c25 0 37 15 37 41c0 25 -11 40 -38 40c-15 0 -24 -6 -32 -18h-136l51 241h271v-110h-185l-9 -43c21 13 43 19 74 19z" />
    <glyph glyph-name="six.numr" horiz-adv-x="416" 
d="M250 562c91 0 136 -67 136 -129c0 -67 -53 -142 -175 -142c-128 0 -181 82 -181 158s53 144 156 251h153l-138 -143c18 3 34 5 49 5zM208 402c22 0 34 12 34 34s-12 34 -34 34s-34 -12 -34 -34s12 -34 34 -34z" />
    <glyph glyph-name="seven.numr" horiz-adv-x="377" 
d="M30 700h317v-89l-152 -307h-134l141 281h-172v115z" />
    <glyph glyph-name="eight.numr" horiz-adv-x="434" 
d="M339 512c38 -18 65 -52 65 -98c0 -66 -55 -123 -187 -123s-187 57 -187 123c0 46 27 80 65 98c-33 16 -55 44 -55 84c0 63 54 117 177 117s177 -54 177 -117c0 -40 -22 -68 -55 -84zM217 608c-21 0 -30 -14 -30 -30s9 -29 30 -29s30 13 30 29s-9 30 -30 30zM217 396
c29 0 40 14 40 31s-11 32 -40 32s-40 -15 -40 -32s11 -31 40 -31z" />
    <glyph glyph-name="nine.numr" horiz-adv-x="416" 
d="M205 713c128 0 181 -82 181 -158s-53 -144 -156 -251h-153l138 143c-18 -3 -34 -5 -49 -5c-91 0 -136 67 -136 129c0 67 53 142 175 142zM174 568c0 -22 12 -34 34 -34s34 12 34 34s-12 34 -34 34s-34 -12 -34 -34z" />
    <glyph glyph-name="uni2070" unicode="&#x2070;" horiz-adv-x="462" 
d="M231 361c-120 0 -201 78 -201 211s81 211 201 211s201 -78 201 -211s-81 -211 -201 -211zM231 492c41 0 54 27 54 80s-13 80 -54 80s-54 -27 -54 -80s13 -80 54 -80z" />
    <glyph glyph-name="uni00B9" unicode="&#xb9;" horiz-adv-x="310" 
d="M203 770h77v-396h-145v250l-105 -32v129z" />
    <glyph glyph-name="uni00B2" unicode="&#xb2;" horiz-adv-x="428" 
d="M228 489h170v-115h-368v104l147 112c53 40 59 48 59 66c0 15 -7 22 -24 22c-20 0 -31 -10 -33 -43h-147c3 70 57 148 183 148c119 0 168 -69 168 -135c0 -61 -46 -102 -130 -146z" />
    <glyph glyph-name="uni00B3" unicode="&#xb3;" horiz-adv-x="430" 
d="M346 581c32 -19 54 -49 54 -90c0 -60 -47 -130 -178 -130s-189 68 -192 142h147c5 -28 16 -37 39 -37c28 0 37 14 37 31c0 21 -9 32 -32 32h-44v90h44c19 0 22 18 22 32s-6 27 -29 27s-30 -14 -32 -37h-147c3 76 63 142 181 142c122 0 174 -70 174 -130
c0 -34 -17 -57 -44 -72z" />
    <glyph glyph-name="uni2074" unicode="&#x2074;" horiz-adv-x="463" 
d="M433 557v-115h-69v-68h-145v68h-189v115l158 213h176v-213h69zM143 557h76v106z" />
    <glyph glyph-name="uni2075" unicode="&#x2075;" horiz-adv-x="424" 
d="M246 636c95 0 148 -55 148 -130c0 -73 -49 -145 -176 -145c-134 0 -179 79 -188 135h147c5 -19 18 -30 36 -30c25 0 37 15 37 41c0 25 -11 40 -38 40c-15 0 -24 -6 -32 -18h-136l51 241h271v-110h-185l-9 -43c21 13 43 19 74 19z" />
    <glyph glyph-name="uni2076" unicode="&#x2076;" horiz-adv-x="416" 
d="M250 632c91 0 136 -67 136 -129c0 -67 -53 -142 -175 -142c-128 0 -181 82 -181 158s53 144 156 251h153l-138 -143c18 3 34 5 49 5zM208 472c22 0 34 12 34 34s-12 34 -34 34s-34 -12 -34 -34s12 -34 34 -34z" />
    <glyph glyph-name="uni2077" unicode="&#x2077;" horiz-adv-x="377" 
d="M30 770h317v-89l-152 -307h-134l141 281h-172v115z" />
    <glyph glyph-name="uni2078" unicode="&#x2078;" horiz-adv-x="434" 
d="M339 582c38 -18 65 -52 65 -98c0 -66 -55 -123 -187 -123s-187 57 -187 123c0 46 27 80 65 98c-33 16 -55 44 -55 84c0 63 54 117 177 117s177 -54 177 -117c0 -40 -22 -68 -55 -84zM217 678c-21 0 -30 -14 -30 -30s9 -29 30 -29s30 13 30 29s-9 30 -30 30zM217 466
c29 0 40 14 40 31s-11 32 -40 32s-40 -15 -40 -32s11 -31 40 -31z" />
    <glyph glyph-name="uni2079" unicode="&#x2079;" horiz-adv-x="416" 
d="M205 783c128 0 181 -82 181 -158s-53 -144 -156 -251h-153l138 143c-18 -3 -34 -5 -49 -5c-91 0 -136 67 -136 129c0 67 53 142 175 142zM174 638c0 -22 12 -34 34 -34s34 12 34 34s-12 34 -34 34s-34 -12 -34 -34z" />
    <glyph glyph-name="asterisk" unicode="*" horiz-adv-x="576" 
d="M506 516l-118 -54l82 -102l-98 -79l-85 105l-84 -105l-98 79l82 103l-117 53l50 114l106 -47v117h123v-117l106 47z" />
    <glyph glyph-name="backslash" unicode="\" horiz-adv-x="515" 
d="M242 770l203 -770h-172l-203 770h172z" />
    <glyph glyph-name="periodcentered" unicode="&#xb7;" horiz-adv-x="346" 
d="M173 410c59 0 103 -41 103 -98s-44 -98 -103 -98s-103 41 -103 98s44 98 103 98z" />
    <glyph glyph-name="bullet" unicode="&#x2022;" horiz-adv-x="484" 
d="M242 458c95 0 172 -77 172 -172s-77 -172 -172 -172s-172 77 -172 172s77 172 172 172z" />
    <glyph glyph-name="colon" unicode=":" horiz-adv-x="346" 
d="M173 531c59 0 103 -41 103 -98s-44 -98 -103 -98s-103 41 -103 98s44 98 103 98zM173 183c59 0 103 -41 103 -98s-44 -98 -103 -98s-103 41 -103 98s44 98 103 98z" />
    <glyph glyph-name="comma" unicode="," horiz-adv-x="368" 
d="M194 183c42 0 104 -21 104 -107c0 -25 -5 -66 -120 -248h-108l81 167c-36 13 -59 45 -59 88c0 60 44 100 102 100z" />
    <glyph glyph-name="ellipsis" unicode="&#x2026;" horiz-adv-x="908" 
d="M173 183c59 0 103 -41 103 -98s-44 -98 -103 -98s-103 41 -103 98s44 98 103 98zM454 183c59 0 103 -41 103 -98s-44 -98 -103 -98s-103 41 -103 98s44 98 103 98zM735 183c59 0 103 -41 103 -98s-44 -98 -103 -98s-103 41 -103 98s44 98 103 98z" />
    <glyph glyph-name="exclam" unicode="!" horiz-adv-x="346" 
d="M258 700v-214l-11 -240h-148l-11 240v214h170zM173 183c59 0 103 -41 103 -98s-44 -98 -103 -98s-103 41 -103 98s44 98 103 98z" />
    <glyph glyph-name="exclamdown" unicode="&#xa1;" horiz-adv-x="346" 
d="M173 287c-59 0 -103 41 -103 98s44 98 103 98s103 -41 103 -98s-44 -98 -103 -98zM258 -230h-170v214l11 240h148l11 -240v-214z" />
    <glyph glyph-name="numbersign" unicode="#" horiz-adv-x="966" 
d="M860 457h-141l-36 -139h140l-36 -136h-140l-48 -182h-156l48 182h-124l-48 -182h-156l48 182h-141l36 136h141l36 139h-140l36 136h140l47 177h156l-47 -177h124l47 177h156l-47 -177h141zM527 318l36 139h-124l-36 -139h124z" />
    <glyph glyph-name="period" unicode="." horiz-adv-x="346" 
d="M173 183c59 0 103 -41 103 -98s-44 -98 -103 -98s-103 41 -103 98s44 98 103 98z" />
    <glyph glyph-name="question" unicode="?" horiz-adv-x="578" 
d="M203 246v53c0 73 22 91 100 132c53 28 69 37 69 65c0 31 -19 59 -82 59c-43 0 -81 -13 -84 -88h-171c3 160 116 246 262 246c137 0 246 -75 246 -211c0 -101 -60 -138 -140 -181c-32 -17 -34 -29 -34 -56v-19h-166zM285 -13c-61 0 -106 39 -106 98s45 98 106 98
s106 -39 106 -98s-45 -98 -106 -98z" />
    <glyph glyph-name="questiondown" unicode="&#xbf;" horiz-adv-x="578" 
d="M293 463c61 0 106 -39 106 -98s-45 -98 -106 -98s-106 39 -106 98s45 98 106 98zM375 204v-53c0 -73 -22 -91 -100 -132c-53 -28 -69 -37 -69 -65c0 -31 19 -59 82 -59c43 0 81 13 84 88h171c-3 -160 -116 -246 -262 -246c-137 0 -246 75 -246 211c0 101 60 138 140 181
c32 17 34 29 34 56v19h166z" />
    <glyph glyph-name="quotedbl" unicode="&#x22;" horiz-adv-x="534" 
d="M90 377l-20 215v108h170v-108l-20 -215h-130zM314 377l-20 215v108h170v-108l-20 -215h-130z" />
    <glyph glyph-name="quotesingle" unicode="'" horiz-adv-x="310" 
d="M240 700v-108l-20 -215h-130l-20 215v108h170z" />
    <glyph glyph-name="semicolon" unicode=";" horiz-adv-x="368" 
d="M195 335c-59 0 -103 41 -103 98s44 98 103 98s103 -41 103 -98s-44 -98 -103 -98zM194 183c42 0 104 -21 104 -107c0 -25 -5 -66 -120 -248h-108l81 167c-36 13 -59 45 -59 88c0 60 44 100 102 100z" />
    <glyph glyph-name="slash" unicode="/" horiz-adv-x="395" 
d="M385 770l-203 -770h-172l203 770h172z" />
    <glyph glyph-name="underscore" unicode="_" horiz-adv-x="600" 
d="M530 -19v-162h-460v162h460z" />
    <glyph glyph-name="braceleft" unicode="{" horiz-adv-x="539" 
d="M363 389c0 -100 -44 -121 -119 -129c75 -8 119 -29 119 -129v-14c0 -184 42 -207 106 -218v-162c-126 0 -276 81 -276 318v23c0 71 -11 97 -85 97h-38v170h38c74 0 85 26 85 97v23c0 237 150 318 276 318v-162c-64 -11 -106 -34 -106 -218v-14z" />
    <glyph glyph-name="braceright" unicode="}" horiz-adv-x="539" 
d="M431 345h38v-170h-38c-74 0 -85 -26 -85 -97v-23c0 -237 -150 -318 -276 -318v162c64 11 106 34 106 218v14c0 100 44 121 119 129c-75 8 -119 29 -119 129v14c0 184 -42 207 -106 218v162c126 0 276 -81 276 -318v-23c0 -71 11 -97 85 -97z" />
    <glyph glyph-name="bracketleft" unicode="[" horiz-adv-x="437" 
d="M367 770v-162h-127v-696h127v-162h-297v1020h297z" />
    <glyph glyph-name="bracketright" unicode="]" horiz-adv-x="437" 
d="M70 770h297v-1020h-297v162h127v696h-127v162z" />
    <glyph glyph-name="parenleft" unicode="(" horiz-adv-x="442" 
d="M372 707c-93 -185 -131 -294 -131 -447s38 -262 131 -447l-129 -76c-117 161 -173 334 -173 523s56 362 173 523z" />
    <glyph glyph-name="parenright" unicode=")" horiz-adv-x="442" 
d="M70 707l129 76c117 -161 173 -334 173 -523s-56 -362 -173 -523l-129 76c93 185 131 294 131 447s-38 262 -131 447z" />
    <glyph glyph-name="emdash" unicode="&#x2014;" horiz-adv-x="730" 
d="M660 376v-162h-590v162h590z" />
    <glyph glyph-name="endash" unicode="&#x2013;" horiz-adv-x="654" 
d="M584 376v-162h-514v162h514z" />
    <glyph glyph-name="hyphen" unicode="-" horiz-adv-x="483" 
d="M414 376v-162h-344v162h344z" />
    <glyph glyph-name="guillemotleft" unicode="&#xab;" horiz-adv-x="831" 
d="M318 31l-248 248l248 248l116 -117l-132 -131l132 -131zM645 31l-248 248l248 248l116 -117l-132 -131l132 -131z" />
    <glyph glyph-name="guillemotright" unicode="&#xbb;" horiz-adv-x="831" 
d="M186 31l-116 117l132 131l-132 131l116 117l248 -248zM513 31l-116 117l132 131l-132 131l116 117l248 -248z" />
    <glyph glyph-name="guilsinglleft" unicode="&#x2039;" horiz-adv-x="504" 
d="M318 31l-248 248l248 248l116 -117l-132 -131l132 -131z" />
    <glyph glyph-name="guilsinglright" unicode="&#x203a;" horiz-adv-x="504" 
d="M186 31l-116 117l132 131l-132 131l116 117l248 -248z" />
    <glyph glyph-name="quotedblbase" unicode="&#x201e;" horiz-adv-x="613" 
d="M194 183c42 0 104 -21 104 -107c0 -25 -5 -66 -120 -248h-108l81 167c-36 13 -59 45 -59 88c0 60 44 100 102 100zM439 183c42 0 104 -21 104 -107c0 -25 -5 -66 -120 -248h-108l81 167c-36 13 -59 45 -59 88c0 60 44 100 102 100z" />
    <glyph glyph-name="quotedblleft" unicode="&#x201c;" horiz-adv-x="613" 
d="M190 700h108l-81 -167c36 -13 59 -45 59 -88c0 -60 -44 -100 -102 -100c-42 0 -104 21 -104 107c0 25 5 66 120 248zM462 533c36 -13 59 -45 59 -88c0 -60 -44 -100 -102 -100c-42 0 -104 21 -104 107c0 25 5 66 120 248h108z" />
    <glyph glyph-name="quotedblright" unicode="&#x201d;" horiz-adv-x="613" 
d="M194 713c42 0 104 -21 104 -107c0 -25 -5 -66 -120 -248h-108l81 167c-36 13 -59 45 -59 88c0 60 44 100 102 100zM439 713c42 0 104 -21 104 -107c0 -25 -5 -66 -120 -248h-108l81 167c-36 13 -59 45 -59 88c0 60 44 100 102 100z" />
    <glyph glyph-name="quoteleft" unicode="&#x2018;" horiz-adv-x="368" 
d="M217 533c36 -13 59 -45 59 -88c0 -60 -44 -100 -102 -100c-42 0 -104 21 -104 107c0 25 5 66 120 248h108z" />
    <glyph glyph-name="quoteright" unicode="&#x2019;" horiz-adv-x="368" 
d="M194 713c42 0 104 -21 104 -107c0 -25 -5 -66 -120 -248h-108l81 167c-36 13 -59 45 -59 88c0 60 44 100 102 100z" />
    <glyph glyph-name="quotesinglbase" unicode="&#x201a;" horiz-adv-x="368" 
d="M194 183c42 0 104 -21 104 -107c0 -25 -5 -66 -120 -248h-108l81 167c-36 13 -59 45 -59 88c0 60 44 100 102 100z" />
    <glyph glyph-name="space" unicode=" " horiz-adv-x="300" 
 />
    <glyph glyph-name="uni2009" unicode="&#x2009;" horiz-adv-x="150" 
 />
    <glyph glyph-name="cent" unicode="&#xa2;" horiz-adv-x="636" 
d="M328 144c46 0 90 22 103 74h175c-14 -119 -94 -193 -193 -220v-148h-169v148c-123 34 -204 143 -204 277s81 242 204 277v148h169v-148c100 -27 180 -103 193 -219h-175c-13 53 -57 73 -102 73c-75 0 -117 -54 -117 -131c0 -79 45 -131 116 -131z" />
    <glyph glyph-name="currency" unicode="&#xa4;" horiz-adv-x="761" 
d="M622 346c0 -37 -7 -70 -21 -101l90 -90l-119 -119l-90 90c-30 -14 -65 -21 -101 -21s-71 8 -102 21l-89 -90l-120 119l90 89c-13 31 -21 65 -21 102s8 71 21 101l-90 90l120 119l90 -90c31 13 65 21 101 21s70 -7 100 -21l90 90l120 -119l-90 -90c14 -30 21 -64 21 -101z
M381 254c49 0 89 34 89 92c0 56 -39 92 -89 92s-89 -36 -89 -92c0 -58 40 -92 89 -92z" />
    <glyph glyph-name="dollar" unicode="$" horiz-adv-x="649" 
d="M614 212c0 -138 -103 -200 -201 -218v-118h-169v122c-140 32 -197 135 -209 233h172c16 -58 47 -85 136 -85c69 0 100 22 100 59c0 41 -42 44 -159 69c-114 24 -231 66 -231 211c0 122 86 194 188 218v121h169v-119c134 -28 188 -123 198 -224h-172
c-10 41 -33 73 -113 73c-76 0 -99 -31 -99 -61c0 -33 32 -37 101 -52c196 -42 289 -86 289 -229z" />
    <glyph glyph-name="Euro" unicode="&#x20ac;" horiz-adv-x="875" 
d="M499 149c74 0 131 37 159 98h182c-38 -152 -169 -260 -341 -260c-157 0 -282 88 -335 218h-119v126h91v19v16h-91v126h118c52 132 178 221 336 221c172 0 303 -108 341 -260h-182c-28 61 -85 98 -159 98c-59 0 -108 -22 -141 -59h196v-126h-246v-16c0 -6 0 -13 1 -19h245
v-126h-193c33 -35 80 -56 138 -56z" />
    <glyph glyph-name="sterling" unicode="&#xa3;" horiz-adv-x="753" 
d="M512 236h171c0 -169 -74 -236 -219 -236h-394v162h20c55 0 67 24 67 70v39h-87v150h87v65c0 121 74 227 232 227c148 0 244 -95 244 -236h-171c0 46 -15 74 -65 74c-64 0 -70 -39 -70 -73v-57h152v-150h-152v-28c0 -43 -9 -65 -33 -81h145c63 0 73 17 73 74z" />
    <glyph glyph-name="yen" unicode="&#xa5;" horiz-adv-x="795" 
d="M725 700l-210 -414h113v-88h-145v-35h145v-88h-145v-75h-170v75h-146v88h146v35h-146v88h113l-210 414h191l137 -285l137 285h190z" />
    <glyph glyph-name="approxequal" unicode="&#x2248;" horiz-adv-x="601" 
d="M412 332c-37 0 -67 12 -118 34c-57 25 -65 28 -76 28c-20 0 -29 -11 -29 -53h-119c0 129 47 173 119 173c37 0 67 -12 118 -34c57 -25 65 -28 76 -28c20 0 29 11 29 53h119c0 -129 -47 -173 -119 -173zM412 129c-37 0 -67 12 -118 34c-57 25 -65 28 -76 28
c-20 0 -29 -11 -29 -53h-119c0 129 47 173 119 173c37 0 67 -12 118 -34c57 -25 65 -28 76 -28c20 0 29 11 29 53h119c0 -129 -47 -173 -119 -173z" />
    <glyph glyph-name="asciitilde" unicode="~" horiz-adv-x="641" 
d="M436 214c-43 0 -71 12 -122 34c-57 25 -65 28 -76 28c-20 0 -29 -11 -29 -53h-139c0 164 57 203 135 203c43 0 71 -12 122 -34c57 -25 65 -28 76 -28c20 0 29 11 29 53h139c0 -164 -57 -203 -135 -203z" />
    <glyph glyph-name="divide" unicode="&#xf7;" horiz-adv-x="641" 
d="M320 602c59 0 103 -38 103 -95s-44 -95 -103 -95s-103 38 -103 95s44 95 103 95zM571 376v-162h-501v162h501zM320 177c59 0 103 -38 103 -95s-44 -95 -103 -95s-103 38 -103 95s44 95 103 95z" />
    <glyph glyph-name="emptyset" unicode="&#x2205;" horiz-adv-x="816" 
d="M746 538l-99 -99c31 -46 49 -102 49 -164c0 -166 -127 -288 -288 -288c-61 0 -118 18 -164 49l-99 -99l-75 75l99 99c-31 46 -49 102 -49 164c0 166 129 288 288 288c61 0 117 -18 164 -49l99 99zM292 275c0 -13 1 -25 4 -37l155 155c-13 5 -28 8 -43 8
c-66 0 -116 -50 -116 -126zM524 275c0 13 -1 25 -4 37l-155 -155c13 -5 28 -8 43 -8c66 0 116 49 116 126z" />
    <glyph glyph-name="equal" unicode="=" horiz-adv-x="641" 
d="M571 484v-155h-501v155h501zM571 274v-156h-501v156h501z" />
    <glyph glyph-name="greater" unicode="&#x3e;" horiz-adv-x="641" 
d="M70 520l501 -177v-108l-501 -177v178l234 53l-234 54v177z" />
    <glyph glyph-name="greaterequal" unicode="&#x2265;" horiz-adv-x="641" 
d="M70 520l501 -118v-108l-501 -118v135l209 37l-209 38v134zM571 151v-128h-501v128h501z" />
    <glyph glyph-name="infinity" unicode="&#x221e;" horiz-adv-x="868" 
d="M604 455c109 0 194 -81 194 -190c0 -110 -86 -191 -195 -191c-68 0 -122 32 -169 82c-47 -50 -102 -82 -170 -82c-109 0 -194 81 -194 191c0 109 86 190 194 190c67 0 122 -31 170 -81c47 49 102 81 170 81zM264 209c42 0 64 23 87 57c-23 32 -45 55 -87 55
c-33 0 -55 -24 -55 -56c0 -34 22 -56 55 -56zM603 209c33 0 56 23 56 56s-23 56 -55 56c-41 0 -64 -23 -87 -56c23 -33 45 -56 86 -56z" />
    <glyph glyph-name="integral" unicode="&#x222b;" horiz-adv-x="794" 
d="M545 783c109 0 179 -64 179 -198h-114c0 36 -24 49 -50 49c-30 0 -52 -17 -55 -59l-45 -615c-11 -156 -100 -223 -211 -223c-109 0 -179 64 -179 198h114c0 -36 24 -49 50 -49c30 0 52 17 55 59l45 615c11 156 100 223 211 223z" />
    <glyph glyph-name="less" unicode="&#x3c;" horiz-adv-x="641" 
d="M571 520v-177l-234 -54l234 -53v-178l-501 177v108z" />
    <glyph glyph-name="lessequal" unicode="&#x2264;" horiz-adv-x="641" 
d="M571 520v-134l-209 -38l209 -37v-135l-501 118v108zM571 151v-128h-501v128h501z" />
    <glyph glyph-name="logicalnot" unicode="&#xac;" horiz-adv-x="641" 
d="M571 376v-287h-170v125h-331v162h501z" />
    <glyph glyph-name="minus" unicode="&#x2212;" horiz-adv-x="641" 
d="M571 376v-162h-501v162h501z" />
    <glyph glyph-name="multiply" unicode="&#xd7;" horiz-adv-x="641" 
d="M456 545l115 -115l-136 -136l136 -136l-115 -114l-136 136l-135 -136l-115 114l136 136l-136 136l115 115l135 -136z" />
    <glyph glyph-name="notequal" unicode="&#x2260;" horiz-adv-x="641" 
d="M484 603l-31 -119h118v-155h-159l-15 -55h174v-156h-215l-31 -118h-172l31 118h-114v156h155l15 55h-170v155h211l31 119h172z" />
    <glyph glyph-name="partialdiff" unicode="&#x2202;" horiz-adv-x="691" 
d="M409 713c235 0 232 -174 190 -435c-30 -186 -138 -291 -306 -291c-156 0 -244 116 -219 276c25 154 137 216 245 216c49 0 102 -14 135 -48l3 17c12 78 -14 116 -95 116c-46 0 -104 -12 -161 -31l-29 131c62 28 148 49 237 49zM422 252c10 63 -13 99 -71 99
s-95 -36 -105 -99c-9 -63 15 -103 73 -103s94 40 103 103z" />
    <glyph glyph-name="percent" unicode="%" horiz-adv-x="1122" 
d="M271 291c-120 0 -201 78 -201 211s81 211 201 211s201 -78 201 -211s-81 -211 -201 -211zM841 700l-400 -700h-160l400 700h160zM271 422c41 0 54 27 54 80s-13 80 -54 80s-54 -27 -54 -80s13 -80 54 -80zM851 409c120 0 201 -78 201 -211s-81 -211 -201 -211
s-201 78 -201 211s81 211 201 211zM851 278c-41 0 -54 -27 -54 -80s13 -80 54 -80s54 27 54 80s-13 80 -54 80z" />
    <glyph glyph-name="perthousand" unicode="&#x2030;" horiz-adv-x="1568" 
d="M271 291c-120 0 -201 78 -201 211s81 211 201 211s201 -78 201 -211s-81 -211 -201 -211zM841 700l-400 -700h-160l400 700h160zM271 422c41 0 54 27 54 80s-13 80 -54 80s-54 -27 -54 -80s13 -80 54 -80zM851 409c120 0 201 -78 201 -211s-81 -211 -201 -211
s-201 78 -201 211s81 211 201 211zM1297 409c120 0 201 -78 201 -211s-81 -211 -201 -211s-201 78 -201 211s81 211 201 211zM851 278c-41 0 -54 -27 -54 -80s13 -80 54 -80s54 27 54 80s-13 80 -54 80zM1297 278c-41 0 -54 -27 -54 -80s13 -80 54 -80s54 27 54 80
s-13 80 -54 80z" />
    <glyph glyph-name="plus" unicode="+" horiz-adv-x="641" 
d="M406 545v-169h165v-162h-165v-170h-170v170h-166v162h166v169h170z" />
    <glyph glyph-name="plusminus" unicode="&#xb1;" horiz-adv-x="641" 
d="M406 545v-116h165v-127h-165v-116h-170v116h-166v127h166v116h170zM571 151v-128h-501v128h501z" />
    <glyph glyph-name="product" unicode="&#x220f;" horiz-adv-x="834" 
d="M764 700v-162h-89v-538h-170v538h-175v-538h-170v538h-90v162h694z" />
    <glyph glyph-name="radical" unicode="&#x221a;" horiz-adv-x="818" 
d="M572 700h176l-224 -700h-202l-124 388h-128v162h252l102 -347z" />
    <glyph glyph-name="summation" unicode="&#x2211;" horiz-adv-x="619" 
d="M549 700v-162h-237l182 -175v-26l-182 -175h237v-162h-479v151l207 199l-207 200v150h479z" />
    <glyph glyph-name="arrowup" unicode="&#x2191;" horiz-adv-x="823" 
d="M326 0v397l-136 -144l-120 119l341 341l342 -341l-120 -120l-137 146v-398h-170z" />
    <glyph glyph-name="uni2197" unicode="&#x2197;" horiz-adv-x="705" 
d="M190 15l-120 120l281 281l-198 -6l-1 169h482l1 -483h-170l7 200z" />
    <glyph glyph-name="arrowright" unicode="&#x2192;" horiz-adv-x="853" 
d="M442 -15l-120 120l146 137h-398v170h397l-144 136l119 120l341 -341z" />
    <glyph glyph-name="uni2198" unicode="&#x2198;" horiz-adv-x="704" 
d="M151 74v170l200 -7l-281 282l120 120l281 -281l-6 198l169 1v-482z" />
    <glyph glyph-name="arrowdown" unicode="&#x2193;" horiz-adv-x="823" 
d="M412 -13l-342 341l120 120l137 -146v398h170v-397l136 144l120 -119z" />
    <glyph glyph-name="uni2199" unicode="&#x2199;" horiz-adv-x="705" 
d="M71 62l-1 483h170l-6 -200l281 281l120 -120l-281 -281l198 6l1 -169h-482z" />
    <glyph glyph-name="arrowleft" unicode="&#x2190;" horiz-adv-x="853" 
d="M411 3l-341 341l341 342l120 -120l-146 -137h398v-170h-397l144 -136z" />
    <glyph glyph-name="uni2196" unicode="&#x2196;" horiz-adv-x="704" 
d="M514 44l-281 281l6 -198l-169 -1v482l483 1v-170l-200 7l281 -282z" />
    <glyph glyph-name="arrowboth" unicode="&#x2194;" horiz-adv-x="1243" 
d="M832 3l-119 120l144 136h-471l144 -136l-119 -120l-341 341l341 342l120 -120l-146 -137h473l-146 137l120 120l341 -342z" />
    <glyph glyph-name="arrowupdn" unicode="&#x2195;" horiz-adv-x="823" 
d="M412 -207l-342 341l120 120l137 -146v473l-137 -146l-120 120l342 341l341 -341l-120 -119l-136 144v-471l136 144l120 -119z" />
    <glyph glyph-name="lozenge" unicode="&#x25ca;" horiz-adv-x="807" 
d="M404 654l333 -334l-333 -333l-334 333zM404 414l-94 -94l94 -93l93 93z" />
    <glyph glyph-name="bar" unicode="|" horiz-adv-x="310" 
d="M240 700v-794h-170v794h170z" />
    <glyph glyph-name="brokenbar" unicode="&#xa6;" horiz-adv-x="310" 
d="M240 700v-357h-170v357h170zM240 263v-357h-170v357h170z" />
    <glyph glyph-name="at" unicode="@" horiz-adv-x="1129" 
d="M577 783c289 0 512 -181 512 -487c0 -193 -88 -296 -236 -296c-57 0 -135 15 -174 93c-32 -54 -82 -93 -158 -93c-125 0 -221 105 -221 255c0 152 98 256 219 256c63 0 109 -28 140 -68v56h150l-1 -286c0 -51 22 -71 59 -71c45 0 69 30 69 133c0 265 -159 366 -355 366
c-230 0 -388 -142 -388 -380c0 -241 154 -382 376 -382c62 0 123 11 175 35l29 -138c-61 -25 -131 -39 -209 -39c-307 0 -524 213 -524 523c0 309 224 523 537 523zM556 144c58 0 103 43 103 111c0 67 -45 112 -103 112c-59 0 -103 -45 -103 -112c0 -68 45 -111 103 -111z
" />
    <glyph glyph-name="ampersand" unicode="&#x26;" horiz-adv-x="769" 
d="M734 0h-216l-35 37c-54 -32 -119 -50 -192 -50c-131 0 -256 59 -256 207c0 89 45 138 132 190c-41 57 -55 96 -55 139c0 134 114 190 215 190c107 0 213 -63 213 -190c0 -94 -61 -148 -130 -188c19 -20 40 -43 65 -68c6 16 12 35 16 56h172c-6 -65 -29 -128 -66 -182
c40 -41 86 -88 137 -141zM326 558c-24 0 -42 -12 -42 -46c0 -16 6 -33 22 -57c42 22 62 37 62 65c0 23 -15 38 -42 38zM301 142c23 0 47 3 70 11c-40 42 -74 78 -103 110c-46 -24 -61 -39 -61 -63c0 -35 31 -58 94 -58z" />
    <glyph glyph-name="paragraph" unicode="&#xb6;" horiz-adv-x="731" 
d="M172 700h489v-801h-170v639h-111v-639h-170v500h-38c-59 0 -102 43 -102 102v97c0 59 43 102 102 102z" />
    <glyph glyph-name="copyright" unicode="&#xa9;" horiz-adv-x="680" 
d="M340 783c149 0 270 -121 270 -270s-121 -270 -270 -270s-270 121 -270 270s121 270 270 270zM340 305c115 0 207 93 207 208c0 114 -92 207 -207 207c-114 0 -207 -93 -207 -207c0 -115 93 -208 207 -208zM342 573c-33 0 -55 -24 -55 -60s22 -60 55 -60c23 0 40 11 46 32
h85c-10 -68 -66 -110 -131 -110c-79 0 -138 60 -138 138s59 138 138 138c65 0 121 -42 131 -110h-85c-6 21 -23 32 -46 32z" />
    <glyph glyph-name="registered" unicode="&#xae;" horiz-adv-x="680" 
d="M340 783c149 0 270 -121 270 -270s-121 -270 -270 -270s-270 121 -270 270s121 270 270 270zM340 305c115 0 207 93 207 208c0 114 -92 207 -207 207c-114 0 -207 -93 -207 -207c0 -115 93 -208 207 -208zM458 553c0 -38 -21 -63 -52 -75l66 -91h-95l-57 82h-7v-82h-80
v251h139c53 0 86 -32 86 -85zM375 550c0 14 -7 21 -23 21h-39v-43h39c16 0 23 7 23 22z" />
    <glyph glyph-name="section" unicode="&#xa7;" horiz-adv-x="637" 
d="M487 211c51 -25 80 -61 80 -130c0 -127 -101 -192 -245 -192c-146 0 -226 66 -244 172h172c7 -28 32 -44 76 -44c40 0 69 13 69 44c0 14 -6 17 -66 30c-136 31 -256 60 -256 177c0 57 29 92 77 123c-51 25 -80 61 -80 130c0 127 101 192 245 192c146 0 226 -66 244 -172
h-172c-7 28 -32 44 -76 44c-40 0 -69 -13 -69 -44c0 -14 6 -17 66 -30c136 -31 256 -60 256 -177c0 -57 -29 -92 -77 -123zM248 306c0 -27 20 -33 107 -53c28 18 34 29 34 43c0 27 -20 33 -107 53c-28 -18 -34 -29 -34 -43z" />
    <glyph glyph-name="trademark" unicode="&#x2122;" horiz-adv-x="843" 
d="M70 680v90h284v-90h-94v-216h-97v216h-93zM665 770h108v-306h-97v175l-85 -115h-6l-85 115v-175h-97v306h108l77 -105z" />
    <glyph glyph-name="degree" unicode="&#xb0;" horiz-adv-x="483" 
d="M242 783c95 0 172 -76 171 -171c1 -95 -77 -172 -171 -172s-172 77 -172 172s77 171 172 171zM242 663c-28 0 -51 -21 -51 -53c0 -31 23 -51 51 -51s51 20 50 51c0 32 -22 53 -50 53z" />
    <glyph glyph-name="uni2116" unicode="&#x2116;" horiz-adv-x="1216" 
d="M948 323c-112 0 -198 83 -198 195s87 195 198 195c110 0 198 -83 198 -195c0 -113 -86 -195 -198 -195zM512 407v293h170v-700h-193l-263 441l14 -148v-293h-170v700h193l262 -441zM948 574c-33 0 -56 -24 -56 -56c0 -34 23 -57 56 -57s55 23 55 57c0 32 -22 56 -55 56z
M763 161v126h370v-126h-370zM763 0v126h370v-126h-370z" />
    <glyph glyph-name="asciicircum" unicode="^" horiz-adv-x="643" 
d="M322 713l251 -252l-120 -120l-131 132l-132 -132l-120 120z" />
    <glyph glyph-name="dagger" unicode="&#x2020;" horiz-adv-x="570" 
d="M370 700v-193h130v-162h-130v-446h-170v446h-130v162h130v193h170z" />
    <glyph glyph-name="daggerdbl" unicode="&#x2021;" horiz-adv-x="570" 
d="M370 700v-145h130v-162h-130v-119h130v-162h-130v-213h-170v213h-130v162h130v119h-130v162h130v145h170z" />
    <glyph glyph-name="uni0308" unicode="&#x308;" 
d="M-391 801c54 0 93 -37 93 -88c0 -52 -39 -89 -93 -89c-53 0 -93 37 -93 89c0 51 40 88 93 88zM-164 801c54 0 94 -37 94 -88c0 -52 -40 -89 -94 -89c-53 0 -93 37 -93 89c0 51 40 88 93 88z" />
    <glyph glyph-name="uni0307" unicode="&#x307;" 
d="M-163 810c60 0 103 -41 103 -97c0 -57 -43 -98 -103 -98c-58 0 -103 41 -103 98c0 56 45 97 103 97z" />
    <glyph glyph-name="gravecomb" unicode="&#x300;" 
d="M-231 838l161 -161l-73 -73l-188 134z" />
    <glyph glyph-name="acutecomb" unicode="&#x301;" 
d="M-170 840l100 -100l-188 -134l-73 73z" />
    <glyph glyph-name="uni030B" unicode="&#x30b;" 
d="M-331 846l101 -47l-126 -193l-71 33zM-171 846l101 -47l-126 -193l-71 33z" />
    <glyph glyph-name="uni0302" unicode="&#x302;" 
d="M-70 695l-89 -89l-72 82l-72 -82l-89 89l161 161z" />
    <glyph glyph-name="uni030C" unicode="&#x30c;" 
d="M-70 767l-161 -161l-161 161l89 89l72 -82l72 82z" />
    <glyph glyph-name="uni0306" unicode="&#x306;" 
d="M-65 800v-31c0 -104 -83 -163 -170 -163c-88 0 -171 59 -171 163v31h132v-27c0 -24 16 -40 39 -40c22 0 38 16 38 40v27h132z" />
    <glyph glyph-name="uni030A" unicode="&#x30a;" 
d="M-205 875c75 0 135 -60 135 -134c0 -75 -61 -135 -135 -135c-73 0 -134 60 -134 135c0 74 60 134 134 134zM-205 781c-22 0 -40 -17 -39 -41c-1 -25 17 -41 39 -41s40 16 40 41c0 24 -18 41 -40 41z" />
    <glyph glyph-name="tildecomb" unicode="&#x303;" 
d="M-170 785h100c0 -132 -56 -167 -120 -167c-32 0 -48 9 -72 24c-16 10 -33 19 -47 19c-11 0 -27 -6 -27 -37h-100c0 132 56 167 120 167c32 0 48 -9 72 -24c16 -10 33 -19 47 -19c11 0 27 6 27 37z" />
    <glyph glyph-name="uni0304" unicode="&#x304;" 
d="M-70 770v-122h-250v122h250z" />
    <glyph glyph-name="uni0312" unicode="&#x312;" 
d="M-121 732c32 -6 51 -26 51 -57c0 -44 -38 -69 -77 -69c-38 0 -77 25 -77 69c0 24 12 59 61 128h89z" />
    <glyph glyph-name="uni0326" unicode="&#x326;" 
d="M-147 -53c38 0 77 -25 77 -69c0 -24 -12 -59 -61 -128h-89l47 71c-32 6 -51 26 -51 57c0 44 38 69 77 69z" />
    <glyph glyph-name="uni0327" unicode="&#x327;" 
d="M-146 -76c43 -13 76 -42 76 -90c0 -67 -64 -97 -160 -97c-25 0 -51 2 -59 3v81c7 -1 20 -4 39 -4c32 0 51 9 51 27c0 14 -10 29 -70 40l50 116h114z" />
    <glyph glyph-name="uni0328" unicode="&#x328;" 
d="M-70 -260c-8 -1 -43 -3 -67 -3c-88 0 -151 27 -151 102c0 65 49 109 109 161h109c-60 -72 -89 -103 -89 -137c0 -25 15 -35 50 -35c19 0 32 3 39 4v-92z" />
    <glyph glyph-name="uni0335" unicode="&#x335;" 
d="M-70 376v-162h-311v162h311z" />
    <glyph glyph-name="uni0337" unicode="&#x337;" 
d="M-70 550l-393 -550h-125l393 550h125z" />
    <glyph glyph-name="uni0338" unicode="&#x338;" 
d="M-70 770l-345 -770h-172l345 770h172z" />
    <glyph glyph-name="uni0308.case" 
d="M-391 967c54 0 93 -37 93 -88c0 -52 -39 -89 -93 -89c-53 0 -93 37 -93 89c0 51 40 88 93 88zM-164 967c54 0 94 -37 94 -88c0 -52 -40 -89 -94 -89c-53 0 -93 37 -93 89c0 51 40 88 93 88z" />
    <glyph glyph-name="uni0307.case" 
d="M-163 967c54 0 93 -37 93 -88c0 -52 -39 -89 -93 -89c-53 0 -93 37 -93 89c0 51 40 88 93 88z" />
    <glyph glyph-name="gravecomb.case" 
d="M-231 1004l161 -161l-73 -73l-188 134z" />
    <glyph glyph-name="acutecomb.case" 
d="M-170 1004l100 -100l-188 -134l-73 73z" />
    <glyph glyph-name="uni030B.case" 
d="M-331 1010l101 -47l-126 -193l-71 33zM-171 1010l101 -47l-126 -193l-71 33z" />
    <glyph glyph-name="uni0302.case" 
d="M-70 859l-89 -89l-72 82l-72 -82l-89 89l161 161z" />
    <glyph glyph-name="uni030C.case" 
d="M-70 935l-161 -161l-161 161l89 89l72 -82l72 82z" />
    <glyph glyph-name="uni0306.case" 
d="M-65 964v-31c0 -104 -83 -163 -170 -163c-88 0 -171 59 -171 163v31h132v-27c0 -24 16 -40 39 -40c22 0 38 16 38 40v27h132z" />
    <glyph glyph-name="uni030A.case" 
d="M-205 1039c75 0 135 -60 135 -134c0 -75 -61 -135 -135 -135c-73 0 -134 60 -134 135c0 74 60 134 134 134zM-205 945c-22 0 -40 -17 -39 -41c-1 -25 17 -41 39 -41s40 16 40 41c0 24 -18 41 -40 41z" />
    <glyph glyph-name="tildecomb.case" 
d="M-170 940h100c0 -132 -56 -167 -120 -167c-32 0 -48 9 -72 24c-16 10 -33 19 -47 19c-11 0 -27 -6 -27 -37h-100c0 132 56 167 120 167c32 0 48 -9 72 -24c16 -10 33 -19 47 -19c11 0 27 6 27 37z" />
    <glyph glyph-name="uni0304.case" 
d="M-70 934v-122h-250v122h250z" />
    <glyph glyph-name="uni0327.case" 
d="M-146 -76c43 -13 76 -42 76 -90c0 -67 -64 -97 -160 -97c-25 0 -51 2 -59 3v81c7 -1 20 -4 39 -4c32 0 51 9 51 27c0 14 -10 29 -70 40l50 116h114z" />
    <glyph glyph-name="uni0328.case" 
d="M-70 -260c-8 -1 -43 -3 -67 -3c-88 0 -151 27 -151 102c0 65 49 109 109 161h109c-60 -72 -89 -103 -89 -137c0 -25 15 -35 50 -35c19 0 32 3 39 4v-92z" />
    <glyph glyph-name="acute" unicode="&#xb4;" horiz-adv-x="401" 
d="M231 840l100 -100l-188 -134l-73 73z" />
    <glyph glyph-name="breve" unicode="&#x2d8;" horiz-adv-x="471" 
d="M406 800v-31c0 -104 -83 -163 -170 -163c-88 0 -171 59 -171 163v31h132v-27c0 -24 16 -40 39 -40c22 0 38 16 38 40v27h132z" />
    <glyph glyph-name="caron" unicode="&#x2c7;" horiz-adv-x="462" 
d="M392 767l-161 -161l-161 161l89 89l72 -82l72 82z" />
    <glyph glyph-name="cedilla" unicode="&#xb8;" horiz-adv-x="339" 
d="M213 -76c43 -13 76 -42 76 -90c0 -67 -64 -97 -160 -97c-25 0 -51 2 -59 3v81c7 -1 20 -4 39 -4c32 0 51 9 51 27c0 14 -10 29 -70 40l50 116h114z" />
    <glyph glyph-name="circumflex" unicode="&#x2c6;" horiz-adv-x="462" 
d="M392 695l-89 -89l-72 82l-72 -82l-89 89l161 161z" />
    <glyph glyph-name="dieresis" unicode="&#xa8;" horiz-adv-x="554" 
d="M163 801c54 0 93 -37 93 -88c0 -52 -39 -89 -93 -89c-53 0 -93 37 -93 89c0 51 40 88 93 88zM390 801c54 0 94 -37 94 -88c0 -52 -40 -89 -94 -89c-53 0 -93 37 -93 89c0 51 40 88 93 88z" />
    <glyph glyph-name="dotaccent" unicode="&#x2d9;" horiz-adv-x="326" 
d="M163 810c60 0 103 -41 103 -97c0 -57 -43 -98 -103 -98c-58 0 -103 41 -103 98c0 56 45 97 103 97z" />
    <glyph glyph-name="grave" unicode="`" horiz-adv-x="401" 
d="M170 838l161 -161l-73 -73l-188 134z" />
    <glyph glyph-name="hungarumlaut" unicode="&#x2dd;" horiz-adv-x="497" 
d="M166 846l101 -47l-126 -193l-71 33zM326 846l101 -47l-126 -193l-71 33z" />
    <glyph glyph-name="macron" unicode="&#xaf;" horiz-adv-x="390" 
d="M320 770v-122h-250v122h250z" />
    <glyph glyph-name="ogonek" unicode="&#x2db;" horiz-adv-x="339" 
d="M288 -260c-8 -1 -43 -3 -67 -3c-88 0 -151 27 -151 102c0 65 49 109 109 161h109c-60 -72 -89 -103 -89 -137c0 -25 15 -35 50 -35c19 0 32 3 39 4v-92z" />
    <glyph glyph-name="ring" unicode="&#x2da;" horiz-adv-x="409" 
d="M204 875c75 0 135 -60 135 -134c0 -75 -61 -135 -135 -135c-73 0 -134 60 -134 135c0 74 60 134 134 134zM204 781c-22 0 -40 -17 -39 -41c-1 -25 17 -41 39 -41s40 16 40 41c0 24 -18 41 -40 41z" />
    <glyph glyph-name="tilde" unicode="&#x2dc;" horiz-adv-x="492" 
d="M336 785h100c0 -132 -56 -167 -120 -167c-32 0 -48 9 -72 24c-16 10 -33 19 -47 19c-11 0 -27 -6 -27 -37h-100c0 132 56 167 120 167c32 0 48 -9 72 -24c16 -10 33 -19 47 -19c11 0 27 6 27 37z" />
    <glyph glyph-name="newGlyph" horiz-adv-x="600" 
 />
    <glyph glyph-name="Bitcoinsymbol" horiz-adv-x="660" 
d="M625 205c0 -98 -54 -163 -139 -190v-140h-149v125h-56v-125h-149v125h-62v700h62v124h149v-124h56v124h149v-140c69 -26 115 -81 115 -168c0 -70 -29 -111 -82 -139c72 -26 106 -95 106 -172zM429 486c0 43 -25 52 -66 52h-123v-107h130c38 0 59 16 59 55zM240 276v-114
h142c57 0 71 22 71 58c0 37 -14 56 -71 56h-142z" />
    </font>
</defs>
</svg>
