<svg xmlns="http://www.w3.org/2000/svg" viewBox="0 0 135 39.9"><defs><style>.cls-1{fill:#fff;}</style></defs><title>asРесурс 1</title><g id="Слой_2" data-name="Слой 2"><g id="artwork"><path d="M130.2,0H4.7A4.69,4.69,0,0,0,0,4.7V35.2a4.69,4.69,0,0,0,4.7,4.7H130.2a4.78,4.78,0,0,0,4.8-4.7V4.7A4.78,4.78,0,0,0,130.2,0Z"/><path class="cls-1" d="M30.1,19.8a5.87,5.87,0,0,1,2.8-4.9,5.87,5.87,0,0,0-4.7-2.5c-2-.2-3.9,1.2-4.9,1.2s-2.6-1.2-4.2-1.1a6.2,6.2,0,0,0-5.2,3.2c-2.3,3.9-.6,9.7,1.6,12.9,1.1,1.6,2.4,3.3,4,3.2s2.2-1,4.2-1,2.5,1,4.2,1,2.8-1.6,3.9-3.1a11.46,11.46,0,0,0,1.8-3.6C33.5,24.9,30.2,23.6,30.1,19.8Zm-3.2-9.5a5.49,5.49,0,0,0,1.3-4.1,6.58,6.58,0,0,0-3.8,1.9A5.29,5.29,0,0,0,23.1,12,4.3,4.3,0,0,0,26.9,10.3ZM53.6,31.5H51.3l-1.2-3.9H45.8l-1.2,3.9H42.4l4.3-13.3h2.6ZM49.8,26l-1.1-3.5c-.1-.4-.3-1.2-.7-2.5-.1.6-.3,1.4-.6,2.5L46.2,26Zm14.9.6a5.58,5.58,0,0,1-1.3,3.9,4.11,4.11,0,0,1-2.9,1.3,2.85,2.85,0,0,1-2.7-1.4v5.1H55.7V25.1c0-1,0-2.1-.1-3.2h1.9l.1,1.5a3.61,3.61,0,0,1,3.2-1.7A3.41,3.41,0,0,1,63.6,23,5.72,5.72,0,0,1,64.7,26.6Zm-2.2.1a4.14,4.14,0,0,0-.6-2.3,2.32,2.32,0,0,0-1.9-.9,2.39,2.39,0,0,0-1.4.5,2.48,2.48,0,0,0-.8,1.4,1.76,1.76,0,0,0-.1.6v1.6a2.79,2.79,0,0,0,.6,1.8,2.06,2.06,0,0,0,1.7.7,2.32,2.32,0,0,0,1.9-.9A4.87,4.87,0,0,0,62.5,26.7Zm13.2-.1a5.58,5.58,0,0,1-1.3,3.9,4.11,4.11,0,0,1-2.9,1.3,2.85,2.85,0,0,1-2.7-1.4v5.1H66.7V25.1c0-1,0-2.1-.1-3.2h1.9l.1,1.5a3.61,3.61,0,0,1,3.2-1.7A3.41,3.41,0,0,1,74.6,23,5.72,5.72,0,0,1,75.7,26.6Zm-2.2.1a4.14,4.14,0,0,0-.6-2.3,2.32,2.32,0,0,0-1.9-.9,2.39,2.39,0,0,0-1.4.5,2.48,2.48,0,0,0-.8,1.4,1.76,1.76,0,0,0-.1.6v1.6a2.79,2.79,0,0,0,.6,1.8,2.06,2.06,0,0,0,1.7.7,2.32,2.32,0,0,0,1.9-.9A4.87,4.87,0,0,0,73.5,26.7ZM88,27.8a3.63,3.63,0,0,1-1.2,2.8,5.22,5.22,0,0,1-3.6,1.2,6.57,6.57,0,0,1-3.4-.8l.5-1.8a5.61,5.61,0,0,0,3.1.9,3.56,3.56,0,0,0,1.9-.5,2,2,0,0,0,.7-1.5,2,2,0,0,0-.6-1.4,5,5,0,0,0-1.8-1c-2.3-.9-3.5-2.1-3.5-3.8a3.42,3.42,0,0,1,1.2-2.7,4.83,4.83,0,0,1,3.3-1,6.68,6.68,0,0,1,3,.6L87,20.4a5.42,5.42,0,0,0-2.5-.6,2.61,2.61,0,0,0-1.8.6,1.35,1.35,0,0,0-.5,1.2,1.61,1.61,0,0,0,.6,1.3,6.49,6.49,0,0,0,1.9,1,7.19,7.19,0,0,1,2.5,1.6A3.09,3.09,0,0,1,88,27.8Zm7.1-4.3H92.8v4.7Q92.8,30,94,30a2.22,2.22,0,0,0,.9-.1l.1,1.6a4.16,4.16,0,0,1-1.7.2,2.79,2.79,0,0,1-2-.8,3.68,3.68,0,0,1-.7-2.6V23.5H89.2V21.9h1.4V20.1l2.1-.6v2.4H95A8.6,8.6,0,0,1,95.1,23.5Zm10.6,3.1a4.84,4.84,0,0,1-1.3,3.6,4.54,4.54,0,0,1-3.5,1.5,4.6,4.6,0,0,1-3.4-1.4,4.75,4.75,0,0,1-1.3-3.5,5.24,5.24,0,0,1,1.3-3.7,4.67,4.67,0,0,1,3.5-1.4,4.6,4.6,0,0,1,3.4,1.4A4.75,4.75,0,0,1,105.7,26.6Zm-2.2.1a4.38,4.38,0,0,0-.6-2.3,2,2,0,0,0-1.9-1.1,2.31,2.31,0,0,0-2,1.1,4.14,4.14,0,0,0-.6,2.3A4.38,4.38,0,0,0,99,29a2.15,2.15,0,0,0,3.8-.1A3.23,3.23,0,0,0,103.5,26.7Zm9.1-2.9c-.2,0-.4-.1-.7-.1a1.85,1.85,0,0,0-1.7.9,2.85,2.85,0,0,0-.5,1.9v5h-2.1V24.9a28.12,28.12,0,0,0-.1-3h1.9l.1,1.8h.1a3.27,3.27,0,0,1,1.1-1.5,3,3,0,0,1,1.5-.5h.5A14.77,14.77,0,0,0,112.6,23.8Zm9.6,2.5a3.08,3.08,0,0,1-.1,1h-6.4a2.79,2.79,0,0,0,.9,2.2,3.3,3.3,0,0,0,2.1.7,7.51,7.51,0,0,0,2.6-.5l.3,1.5a7.94,7.94,0,0,1-3.2.6,4.46,4.46,0,0,1-3.5-1.3,5,5,0,0,1-1.3-3.5,5.4,5.4,0,0,1,1.2-3.6,4.06,4.06,0,0,1,3.4-1.5,3.5,3.5,0,0,1,3.1,1.5A4.2,4.2,0,0,1,122.2,26.3Zm-2.1-.6a2.73,2.73,0,0,0-.4-1.6,1.85,1.85,0,0,0-1.7-.9,2,2,0,0,0-1.7.9,2.52,2.52,0,0,0-.6,1.7l4.4-.1Z"/><path class="cls-1" d="M43.4,7.3a6.89,6.89,0,0,1,.8-.3,3.08,3.08,0,0,1,1-.1,2.41,2.41,0,0,1,1.5.4,1.35,1.35,0,0,1,.5,1.2,1.28,1.28,0,0,1-.4,1,1.19,1.19,0,0,1-.9.5,1.42,1.42,0,0,1,.6.2c.2.1.3.2.5.3a2.19,2.19,0,0,1,.3.5,1.27,1.27,0,0,1,.1.6,2,2,0,0,1-.2.9,1.7,1.7,0,0,1-.6.6,1.14,1.14,0,0,1-.8.3c-.3,0-.6.1-.9.1a2.77,2.77,0,0,1-.9-.1,6.89,6.89,0,0,1-.8-.3l.3-.8a1.45,1.45,0,0,0,.7.2,2.2,2.2,0,0,0,.8.1,1.49,1.49,0,0,0,1-.3,1.23,1.23,0,0,0,.4-.8,1.27,1.27,0,0,0-.1-.6c-.1-.1-.2-.3-.4-.3s-.3-.1-.5-.2-.4,0-.6,0h-.4V9.6h.4a1.27,1.27,0,0,0,.6-.1c.2-.1.3-.1.4-.2l.3-.3a.6.6,0,0,0,.1-.4.91.91,0,0,0-.3-.7,1.08,1.08,0,0,0-.8-.2,1.7,1.7,0,0,0-.7.1,3.33,3.33,0,0,0-.6.3Zm8.4,6.1-.1-.5a1.68,1.68,0,0,1-1.4.6,1.27,1.27,0,0,1-.6-.1c-.2-.1-.3-.2-.5-.3s-.2-.3-.3-.4a1.27,1.27,0,0,1-.1-.6,1.36,1.36,0,0,1,.7-1.3,4,4,0,0,1,2-.4v-.1c0-.6-.3-.9-1-.9a2.13,2.13,0,0,0-1.2.3L49.2,9a2.73,2.73,0,0,1,1.6-.4c1.2,0,1.8.6,1.8,1.9v1.7a3.11,3.11,0,0,0,.1,1.1Zm-.2-2.3a3.92,3.92,0,0,0-1.3.2.67.67,0,0,0-.4.7,1.42,1.42,0,0,0,.2.6.76.76,0,0,0,.5.2.6.6,0,0,0,.4-.1c.1,0,.2-.1.3-.2s.2-.2.2-.3.1-.2.1-.4Zm6.1-2.4v.9h-2v3.9h-1V8.8h3Zm6,2.3a3,3,0,0,1-.2,1,2,2,0,0,1-.4.8,1.79,1.79,0,0,1-.7.5,2.35,2.35,0,0,1-.8.2,1.27,1.27,0,0,1-1.3-.7v2.5h-1V8.6h.9l.1.7a1.62,1.62,0,0,1,1.6-.8,2.35,2.35,0,0,1,.8.2,2.65,2.65,0,0,1,.6.5,2,2,0,0,1,.4.8A3.35,3.35,0,0,0,63.7,11Zm-1.1.1a1.27,1.27,0,0,0-.1-.6c-.1-.2-.1-.4-.2-.5a1.38,1.38,0,0,0-.4-.3.9.9,0,0,0-.5-.1.6.6,0,0,0-.4.1c-.1.1-.3.2-.4.3a1.38,1.38,0,0,0-.3.4.9.9,0,0,0-.1.5v.8a.9.9,0,0,0,.1.5c.1.1.1.3.2.4a1.38,1.38,0,0,0,.4.3.75.75,0,0,0,.5.1.87.87,0,0,0,.9-.5A3.19,3.19,0,0,0,62.6,11.1Zm6.7-2.4L68.1,12c-.3.8-.6,1.4-.8,1.9a3.47,3.47,0,0,1-.8,1.1,2.73,2.73,0,0,1-1.2.6l-.3-.9a3,3,0,0,0,.8-.4,5.55,5.55,0,0,0,.6-.8.25.25,0,0,0,0-.4L64.7,8.8h1.2l.9,2.6c0,.1.1.3.1.4s.1.3.1.5c0-.1.1-.2.1-.4s.1-.3.2-.5l.8-2.6,1.2-.1Zm1.8,2h.5a1.55,1.55,0,0,0,.8-.2.55.55,0,0,0,.3-.5c0-.2-.1-.3-.2-.5a1.45,1.45,0,0,0-.7-.2,1.27,1.27,0,0,0-.6.1c-.2.1-.4.1-.5.2L70.4,9c.3-.1.5-.2.8-.3a2.2,2.2,0,0,1,.8-.1,1.27,1.27,0,0,1,.6.1,1.42,1.42,0,0,1,.6.2.78.78,0,0,1,.4.4,1.42,1.42,0,0,1,.2.6.6.6,0,0,1-.1.4c-.1.1-.1.2-.2.3s-.2.2-.3.2-.2.1-.4.1c.2,0,.3.1.5.1s.3.1.4.2l.3.3a.75.75,0,0,1,.1.5,1.45,1.45,0,0,1-.2.7,1,1,0,0,1-.5.4,1.45,1.45,0,0,1-.7.2c-.3,0-.5.1-.7.1a2.77,2.77,0,0,1-.9-.1c-.3-.1-.5-.2-.8-.3l.3-.7a1.42,1.42,0,0,0,.6.2,1.48,1.48,0,0,0,.7.1,1.55,1.55,0,0,0,.8-.2.55.55,0,0,0,.3-.5.37.37,0,0,0-.1-.3c-.1-.1-.2-.2-.3-.2a.6.6,0,0,0-.4-.1h-1v-.6Zm5.6-2v3.7a2.51,2.51,0,0,1,.4-.7,2.51,2.51,0,0,1,.4-.7l1.2-2.2h1.4v4.7h-1V10.8a4.1,4.1,0,0,1,.1-1.1c-.1.3-.2.5-.3.8a4.88,4.88,0,0,0-.3.7L78,12.4l-.6,1.2H76V8.9h.7Zm8.7,0v.9H84v3.9H83V9.6H81.6V8.7Zm5.4,2.2v.5H87.7a1.53,1.53,0,0,0,.4,1,1.82,1.82,0,0,0,1.1.4,5.07,5.07,0,0,0,1.3-.2l.2.7a3.81,3.81,0,0,1-1.6.3,3,3,0,0,1-1-.2,1.79,1.79,0,0,1-.7-.5,3,3,0,0,1-.5-.7,3,3,0,0,1-.2-1,3,3,0,0,1,.2-1,2.18,2.18,0,0,1,.5-.8,1.79,1.79,0,0,1,.7-.5,2.92,2.92,0,0,1,.9-.2,1.88,1.88,0,0,1,.8.2,2.65,2.65,0,0,1,.6.5,1.61,1.61,0,0,1,.4.7C90.7,10.2,90.8,10.5,90.8,10.9Zm-1-.3a1.22,1.22,0,0,0-.3-.9,1,1,0,0,0-.8-.3,1.14,1.14,0,0,0-.8.3,1.88,1.88,0,0,0-.4.9ZM95,8.8c.2,0,.4-.1.7-.1h1.6a1.85,1.85,0,0,1,.7.2,2.09,2.09,0,0,1,.6.4.84.84,0,0,1,.2.7.6.6,0,0,1-.1.4c-.1.1-.1.2-.2.3s-.2.2-.3.2-.2.1-.4.1a2,2,0,0,1,.8.4,1,1,0,0,1,.3.8,1,1,0,0,1-.3.8,1.61,1.61,0,0,1-.7.4,2.35,2.35,0,0,1-.8.2H94.9V8.8Zm1,1.8h1c.1,0,.3-.1.4-.1s.2-.1.3-.2a.37.37,0,0,0,.1-.3.55.55,0,0,0-.3-.5,2,2,0,0,0-.8-.1h-.6A4.87,4.87,0,0,0,96,10.6Zm0,2.1h1c.1,0,.3-.1.4-.1s.2-.1.3-.2.1-.2.1-.4a.55.55,0,0,0-.4-.6,2.51,2.51,0,0,0-1-.2H96Z"/></g></g></svg>