<svg width="659" height="863" xmlns="http://www.w3.org/2000/svg">

 <g>
  <title>background</title>
  <rect fill="none" id="canvas_background" height="402" width="582" y="-1" x="-1"/>
 </g>
 <g>
  <title>Layer 1</title>
  <g opacity="0.7" id="svg_1">
   <path id="svg_2" d="m652.999944,156.000005c0,0 4.999978,232.99996 4.999978,232.99996c0,0 -7.000002,-2.999967 -7.000002,-2.999967c0,0 -5.999909,2.999967 -5.999909,2.999967c0,0 0,18.000004 0,18.000004c0,0 -168.999977,95.000065 -168.999977,95.000065c0,0 -1.000092,-20.000083 -1.000092,-20.000083c0,0 -28.999939,15.000037 -28.999939,15.000037c0,0 25.000053,365.000022 25.000053,365.000022c0,0 -387.000129,-236.000028 -387.000129,-236.000028c0,0 -82.99993,-533.999979 -82.99993,-533.999979c0,0 224.999992,-72.000015 224.999992,-72.000015c0,0 67.000064,20.999971 67.000064,20.999971c0,0 -1.000092,-21.99996 -1.000092,-21.99996c0,0 35.000009,-9.999991 35.000009,-9.999991c0,0 4.000048,0 4.000048,0c0,0 -2.879866,-4.511773 0.999931,-6.000035c4.071551,-1.56171 18.861008,4.332078 18.999982,9.999991c3.286779,1.055728 11.000049,4.000057 11.000049,4.000057c0,0 1.329206,-3.543175 9.000025,-0.99999c7.67082,2.543186 9.000026,3.999957 9.000026,3.999957c0,0 -2.000024,1.999978 -2.000024,1.999978c0,0 60.999994,18.000003 60.999994,18.000003c0,0 2.000024,32.000052 2.000024,32.000052c0,0 21.000005,5.999934 21.000005,5.999934c0,0 0.999931,17.000015 0.999931,17.000015c0,0 189.999983,61.000035 189.999983,61.000035z" fill-rule="evenodd" fill="rgb(89,150,42)"/>
  </g>
 </g>
</svg>