<svg width="370" height="434" xmlns="http://www.w3.org/2000/svg">

 <g>
  <title>background</title>
  <rect fill="none" id="canvas_background" height="402" width="582" y="-1" x="-1"/>
 </g>
 <g>
  <title>Layer 1</title>
  <g opacity="0.7" id="svg_1">
   <path id="svg_2" d="m1.000038,67.000041c0,0 154.999973,-43.000032 154.999973,-43.000032c0,0 44.000035,8.000013 44.000035,8.000013c0,0 0,-18.999993 0,-18.999993c0,0 30.000032,-8.000013 30.000032,-8.000013c0,0 1.999862,0 1.999862,0c0,0 -1.032052,-2.007624 0,-2.999967c1.032213,-0.992443 14.210482,0.477206 14.000004,5.999934c7.009848,1.040536 11.000049,0.999989 11.000049,0.999989c0,0 2.288946,-2.268613 4.999978,-1.999978c2.711193,0.268636 9.000026,0.999989 9.000026,0.999989c0,0 -2.999955,2.999967 -2.999955,2.999967c0,0 30.000031,6.000035 30.000031,6.000035c0,0 -1.000092,33.000041 -1.000092,33.000041c0,0 72.000042,11.999969 72.000042,11.999969c0,0 -100.999981,35.000018 -100.999981,35.000018c0,0 -10.000118,330.999992 -10.000118,330.999992c0,0 -102.999844,-30.999962 -102.999844,-30.999962c0,0 -83.000091,35.999907 -83.000091,35.999907c0,0 -65.000041,-18.999992 -65.000041,-18.999992c0,0 -5.99991,-346.999917 -5.99991,-346.999917z" fill-rule="evenodd" fill="rgb(192,150,98)"/>
  </g>
 </g>
</svg>