<svg width="722" height="763" xmlns="http://www.w3.org/2000/svg">

 <g>
  <title>background</title>
  <rect fill="none" id="canvas_background" height="402" width="582" y="-1" x="-1"/>
 </g>
 <g>
  <title>Layer 1</title>
  <g opacity="0.7" id="svg_1">
   <path id="svg_2" d="m205.99992,25.999998c0,0 47.000152,18.000004 47.000152,18.000004c0,0 4.999978,-2.999967 4.999978,-2.999967c0,0 -1.000093,-0.999989 -1.000093,-0.999989c0,0 0,-4.000057 0,-4.000057c0,0 63.000017,-35.000019 63.000017,-35.000019c0,0 46.000059,18.000004 46.000059,18.000004c0,0 0,17.000015 0,17.000015c0,0 82.999931,30.999962 82.999931,30.999962c0,0 0,3.000068 0,3.000068c0,0 4.000047,0.999989 4.000047,0.999989c0,0 4.000047,-0.999989 4.000047,-0.999989c0,0 24.999891,-16.000026 24.999891,-16.000026c0,0 238.999996,89.00003 238.999996,89.00003c0,0 -32.999986,370.999956 -32.999986,370.999956c0,0 -241.99995,247.999996 -241.99995,247.999996c0,0 -419.999953,-259.999965 -419.999953,-259.999965c0,0 -25.000053,-365.000022 -25.000053,-365.000022c0,0 28.999939,-15.000037 28.999939,-15.000037c0,0 1.000092,20.000083 1.000092,20.000083c0,0 168.999977,-95.000065 168.999977,-95.000065c0,0 0,-18.000004 0,-18.000004c0,0 5.999909,-2.999967 5.999909,-2.999967z" fill-rule="evenodd" fill="rgb(253,185,65)"/>
  </g>
 </g>
</svg>