<svg width="443" height="551" xmlns="http://www.w3.org/2000/svg">

 <g>
  <title>background</title>
  <rect fill="none" id="canvas_background" height="402" width="582" y="-1" x="-1"/>
 </g>
 <g>
  <title>Layer 1</title>
  <g opacity="0.7" id="svg_1">
   <path id="svg_2" d="m1.000053,140.000028c0,0 50.999876,-31.000063 50.999876,-31.000063c0,0 2.000023,-22.999949 2.000023,-22.999949c0,0 32.000055,-18.999993 32.000055,-18.999993c0,0 7.000002,0.999989 7.000002,0.999989c0,0 2.000024,-22.00006 2.000024,-22.00006c0,0 51.999968,-30.999962 51.999968,-30.999962c0,0 42.000011,9.999991 42.000011,9.999991c0,0 37.999964,-23.999938 37.999964,-23.999938c0,0 215.000036,50.999944 215.000036,50.999944c0,0 -58.000039,311.00001 -58.000039,311.00001c0,0 -199.000008,186.999961 -199.000008,186.999961c0,0 39.000057,-331.999981 39.000057,-331.999981c0,0 -222.999969,-77.999949 -222.999969,-77.999949z" fill-rule="evenodd" fill="rgb(0,166,93)"/>
  </g>
 </g>
</svg>