<svg width="351" height="468" xmlns="http://www.w3.org/2000/svg">

 <g>
  <title>background</title>
  <rect fill="none" id="canvas_background" height="402" width="582" y="-1" x="-1"/>
 </g>
 <g>
  <title>Layer 1</title>
  <g opacity="0.7" id="svg_1">
   <path id="svg_2" d="m11.000042,55.000013c0,0 101.999912,-35.000018 101.999912,-35.000018c0,0 84.000023,15.000036 84.000023,15.000036c0,0 1.000093,-19.999981 1.000093,-19.999981c0,0 28.000007,-10.000092 28.000007,-10.000092c0,0 5.99991,1.00009 5.99991,1.00009c0,0 0,-3.000068 0,-3.000068c0,0 16.116242,-1.295187 16.000027,6.000035c8.610868,1.905 14.000004,1.999978 14.000004,1.999978c0,0 1.095647,-5.249767 14.999935,-0.999989c-1.123893,3.075929 -2.000024,3.999956 -2.000024,3.999956c0,0 31.000124,4.000057 31.000124,4.000057c0,0 -3.000116,36.999996 -3.000116,36.999996c0,0 46.99999,8.000013 46.99999,8.000013c0,0 -35.999941,370.999956 -35.999941,370.999956c0,0 -53.00006,33.00004 -53.00006,33.00004c0,0 -260.000002,-81.000017 -260.000002,-81.000017c0,0 10.000118,-330.999992 10.000118,-330.999992z" fill-rule="evenodd" fill="rgb(253,185,65)"/>
  </g>
 </g>
</svg>