<svg width="593" height="814" xmlns="http://www.w3.org/2000/svg">

 <g>
  <title>background</title>
  <rect fill="none" id="canvas_background" height="402" width="582" y="-1" x="-1"/>
 </g>
 <g>
  <title>Layer 1</title>
  <g opacity="0.7" id="svg_1">
   <path id="svg_2" d="m0.999986,585.999982c0,0 51.000037,-530.000023 51.000037,-530.000023c0,0 7.000002,-0.999989 7.000002,-0.999989c0,0 0,-9.000002 0,-9.000002c0,0 -4.999978,-0.999989 -4.999978,-0.999989c0,0 0.999931,-11.999969 0.999931,-11.999969c0,0 105.000028,-32.000051 105.000028,-32.000051c0,0 431.999934,52.000033 431.999934,52.000033c0,0 -1.999863,11.999969 -1.999863,11.999969c0,0 -12.000141,6.000035 -12.000141,6.000035c0,0 0,6.000035 0,6.000035c0,0 10.000118,0 10.000118,0c0,0 -128.000058,652.999981 -128.000058,652.999981c0,0 -84.000023,82.999996 -84.000023,82.999996c0,0 58.000039,-310.000021 58.000039,-310.000021c0,0 -215.000036,-50.999944 -215.000036,-50.999944c0,0 -39.000056,24.999927 -39.000056,24.999927c0,0 -40.999919,-10.99998 -40.999919,-10.99998c0,0 -51.999968,30.999962 -51.999968,30.999962c0,0 -2.000024,23.000049 -2.000024,23.000049c0,0 -6.000071,-1.999978 -6.000071,-1.999978c0,0 -32.999986,18.999993 -32.999986,18.999993c0,0 -2.000023,22.999949 -2.000023,22.999949c0,0 -42.999943,26.000017 -42.999943,26.000017z" fill-rule="evenodd" fill="rgb(89,150,42)"/>
  </g>
 </g>
</svg>