<svg width="548" height="667" xmlns="http://www.w3.org/2000/svg">

 <g>
  <title>background</title>
  <rect fill="none" id="canvas_background" height="402" width="582" y="-1" x="-1"/>
 </g>
 <g>
  <title>Layer 1</title>
  <g opacity="0.7" id="svg_1">
   <path id="svg_2" d="m0.999965,222.000019c0,0 1.000093,-23.00005 1.000093,-23.00005c0,0 87.999909,-52.999922 87.999909,-52.999922c0,0 1.000092,-27.000006 1.000092,-27.000006c0,0 44.999966,-27.000005 44.999966,-27.000005c0,0 2.000024,-18.000004 2.000024,-18.000004c0,0 47.999921,-30.000073 47.999921,-30.000073c0,0 0,-3.999957 0,-3.999957c0,0 4.53867,0.276283 6.000071,0.999989c9.061199,-5.051257 18.999982,-10.99998 18.999982,-10.99998c0,0 44.000035,12.999958 44.000035,12.999958c0,0 67.999995,-41.999941 67.999995,-41.999941c0,0 223.9999,77.999949 223.9999,77.999949c0,0 -39.999988,331.999981 -39.999988,331.999981c0,0 -274.000006,255.000021 -274.000006,255.000021c0,0 32.999986,-370.999956 32.999986,-370.999956c0,0 -238.999996,-89.00003 -238.999996,-89.00003c0,0 -25.999984,16.000026 -25.999984,16.000026z" fill-rule="evenodd" fill="rgb(192,150,98)"/>
  </g>
 </g>
</svg>