<svg width="569" height="753" xmlns="http://www.w3.org/2000/svg">

 <g>
  <title>background</title>
  <rect fill="none" id="canvas_background" height="402" width="582" y="-1" x="-1"/>
 </g>
 <g>
  <title>Layer 1</title>
  <g opacity="0.7" id="svg_1">
   <path id="svg_2" d="m248,218c0,0 82.99993,533.99998 82.99993,533.99998c0,0 -227.99995,-137 -227.99995,-137c0,0 -4.99998,-50.99995 -4.99998,-50.99995c0,0 -21.99993,-13.00006 -21.99993,-13.00006c0,0 -2.00003,0.99999 -2.00003,0.99999c0,0 -11.00005,-6.99992 -11.00005,-6.99992c0,0 0,-8.00001 0,-8.00001c0,0 20.00008,-9.00001 20.00008,-9.00001c0,0 -82,-403 -82,-403c0,0 186.99986,-49.00007 186.99986,-49.00007c0,0 -5.9999,-41.99994 -5.9999,-41.99994c0,0 66.9999,-16.00003 66.9999,-16.00003c0,0 -0.99993,-3.99995 -0.99993,-3.99995c0,0 9.55075,-3.50706 14,-3.00007c4.44925,0.50709 6.00007,2.00008 6.00007,2.00008c0,0 17.99989,-4.00006 17.99989,-4.00006c0,0 0.1945,-4.52978 8.0001,-5.99993c5.54957,-1.19045 7.99993,-2.00008 7.99993,-2.00008c0,0 2.99995,0 2.99995,0c0,0 0.20967,4.40653 -0.99993,5.00004c17.22254,4.53804 37.00004,9.99999 37.00004,9.99999c0,0 2.00002,19.99999 2.00002,19.99999c0,0 80.99991,-21.99996 80.99991,-21.99996c0,0 135.99999,37.99998 135.99999,37.99998c0,0 8.00009,84.99998 8.00009,84.99998c0,0 -29.0001,8.00001 -29.0001,8.00001c0,0 1.00009,21.99996 1.00009,21.99996c0,0 -66.00013,-20.99997 -66.00013,-20.99997c0,0 -225.99992,72.00001 -225.99992,72.00001z" fill-rule="evenodd" fill="rgb(0,166,93)"/>
  </g>
 </g>
</svg>