<svg xmlns="http://www.w3.org/2000/svg" width="215" height="549" viewBox="0 0 215 549">
  <metadata><?xpacket begin="﻿" id="W5M0MpCehiHzreSzNTczkc9d"?>
<x:xmpmeta xmlns:x="adobe:ns:meta/" x:xmptk="Adobe XMP Core 5.6-c142 79.160924, 2017/07/13-01:06:39        ">
   <rdf:RDF xmlns:rdf="http://www.w3.org/1999/02/22-rdf-syntax-ns#">
      <rdf:Description rdf:about=""/>
   </rdf:RDF>
</x:xmpmeta>
                                                                                                    
                                                                                                    
                                                                                                    
                                                                                                    
                                                                                                    
                                                                                                    
                                                                                                    
                                                                                                    
                                                                                                    
                                                                                                    
                                                                                                    
                                                                                                    
                                                                                                    
                                                                                                    
                                                                                                    
                                                                                                    
                                                                                                    
                                                                                                    
                                                                                                    
                                                                                                    
                           
<?xpacket end="w"?></metadata>
<defs>
    <style>
      .cls-1 {
        fill: #5c9637;
        fill-rule: evenodd;
        opacity: 0.8;
      }
    </style>
  </defs>
  <path class="cls-1" d="M524,573c1.488-5.283-10-11-10-11s5.285-6.725,4-11c-6.352-21.123-31-17-31-17s-11.652,11.539-21,9c-23-6.247-13.384,9.879-17,11-7.879,2.444-5.867,7.355-3,16a27.6,27.6,0,0,0,9,13l1,6-17,3-36-10s-7.035-4.686-6-7c7.972-17.827-11.525-11.662-12-15s-18-5-18-5,6.44-9.545-13-7-9,12-9,12l-5,3-4-2-1-430,46-36V92l7-6,7,4,6-5s1.03,1.7,1.079,1.21C402.315,83.847,402,77,402,77l43-34,41,23-1,72,8,3,12-8,44,22V405l-12,1v10l11,1,2,113h-6l-1,43S522.512,578.283,524,573Z" transform="translate(-335 -43)"/>
</svg>
