<svg version="1.1" xmlns="http://www.w3.org/2000/svg" xmlns:xlink="http://www.w3.org/1999/xlink" width="339" height="451"><defs/><g><path fill="rgba(89,150,42, .8)" stroke="none" paint-order="stroke fill markers" fill-rule="evenodd" d=" M 1.0000123977661133 449.0000351667404 C 1.0000123977661133 449.0000351667404 1.0000123977661133 93.99999541044235 1.0000123977661133 93.99999541044235 C 1.0000123977661133 93.99999541044235 110.99997901916504 40.99999272823334 110.99997901916504 40.99999272823334 C 110.99997901916504 40.99999272823334 113.99997615814209 42.99999010562897 113.99997615814209 42.99999010562897 C 113.99997615814209 42.99999010562897 113.99997615814209 35.00000059604645 113.99997615814209 35.00000059604645 C 113.99997615814209 35.00000059604645 152.0000114440918 17.00002419948578 152.0000114440918 17.00002419948578 C 152.0000114440918 17.00002419948578 171.99999237060547 25.0000137090683 171.99999237060547 25.0000137090683 C 171.99999237060547 25.0000137090683 171.99999237060547 26.000012397766113 171.99999237060547 26.000012397766113 C 171.99999237060547 26.000012397766113 223.00001525878906 1.9999716877937317 223.00001525878906 1.9999716877937317 C 223.00001525878906 1.9999716877937317 293.00002002716064 36.99999797344208 293.00002002716064 36.99999797344208 C 293.00002002716064 36.99999797344208 293.00002002716064 29.000008463859558 293.00002002716064 29.000008463859558 C 293.00002002716064 29.000008463859558 337.9999771118164 51.9999783039093 337.9999771118164 51.9999783039093 C 337.9999771118164 51.9999783039093 337.9999771118164 70.0000268816948 337.9999771118164 70.0000268816948 C 337.9999771118164 70.0000268816948 335.99997901916504 70.0000268816948 335.99997901916504 70.0000268816948 C 335.99997901916504 70.0000268816948 336.9999780654907 443.9999695420265 336.9999780654907 443.9999695420265 C 336.9999780654907 443.9999695420265 1.0000123977661133 449.0000351667404 1.0000123977661133 449.0000351667404 Z"/></g></svg>