<svg version="1.1" xmlns="http://www.w3.org/2000/svg" xmlns:xlink="http://www.w3.org/1999/xlink" width="399" height="916"><defs/><g><path fill="rgba(0,166,93, .8)" stroke="none" paint-order="stroke fill markers" fill-rule="evenodd" d=" M 1.0000286102294922 169.00000417232513 C 1.0000286102294922 169.00000417232513 258.99999713897705 1.0000079274177551 258.99999713897705 1.0000079274177551 C 258.99999713897705 1.0000079274177551 343.9999876022339 216.00001472234726 343.9999876022339 216.00001472234726 C 343.9999876022339 216.00001472234726 360.9999713897705 208.00002521276474 360.9999713897705 208.00002521276474 C 360.9999713897705 208.00002521276474 383.0000219345093 269.0000174045563 383.0000219345093 269.0000174045563 C 383.0000219345093 269.0000174045563 383.0000219345093 296.9999806880951 383.0000219345093 296.9999806880951 C 383.0000219345093 296.9999806880951 382.0000228881836 296.9999806880951 382.0000228881836 296.9999806880951 C 382.0000228881836 296.9999806880951 382.0000228881836 316.0000279545784 382.0000228881836 316.0000279545784 C 382.0000228881836 316.0000279545784 397.00000858306885 351.99998074769974 397.00000858306885 351.99998074769974 C 397.00000858306885 351.99998074769974 397.00000858306885 897.9999865889549 397.00000858306885 897.9999865889549 C 397.00000858306885 897.9999865889549 258.99999713897705 914.9999642968178 258.99999713897705 914.9999642968178 C 258.99999713897705 914.9999642968178 1.0000286102294922 904.9999774098396 1.0000286102294922 904.9999774098396 C 1.0000286102294922 904.9999774098396 1.0000286102294922 169.00000417232513 1.0000286102294922 169.00000417232513 Z"/></g></svg>