<svg xmlns="http://www.w3.org/2000/svg" width="266" height="270" viewBox="0 0 266 270">
  <metadata><?xpacket begin="﻿" id="W5M0MpCehiHzreSzNTczkc9d"?>
<x:xmpmeta xmlns:x="adobe:ns:meta/" x:xmptk="Adobe XMP Core 5.6-c140 79.160451, 2017/05/06-01:08:21        ">
   <rdf:RDF xmlns:rdf="http://www.w3.org/1999/02/22-rdf-syntax-ns#">
      <rdf:Description rdf:about=""/>
   </rdf:RDF>
</x:xmpmeta>
                                                                                                    
                                                                                                    
                                                                                                    
                                                                                                    
                                                                                                    
                                                                                                    
                                                                                                    
                                                                                                    
                                                                                                    
                                                                                                    
                                                                                                    
                                                                                                    
                                                                                                    
                                                                                                    
                                                                                                    
                                                                                                    
                                                                                                    
                                                                                                    
                                                                                                    
                                                                                                    
                           
<?xpacket end="w"?></metadata>
<defs>
    <style>
      .cls-1 {
        fill: #f9b851;
        fill-rule: evenodd;
        opacity: 0.8;
      }
    </style>
  </defs>
  <path class="cls-1" d="M521,532l-4-14,1-4-1-144,4-1-1-20,12-36h9l3-9,38,1,1-2,18,1,4,3,36,1v-8l37,2,1-2h22l3,5h8l4,3,40,1,6,18h11l10,34L765,544l-3,1v13l-29-1v4l-8-1-1-2H711v12l-7-1-1-7-50-2v-6l-45-2-2,3h-7l-1-2-16,1v4h-6l-3-12v-7Z" transform="translate(-517 -300)"/>
</svg>
