<svg xmlns="http://www.w3.org/2000/svg" width="211" height="254" viewBox="0 0 211 254">
  <metadata><?xpacket begin="﻿" id="W5M0MpCehiHzreSzNTczkc9d"?>
<x:xmpmeta xmlns:x="adobe:ns:meta/" x:xmptk="Adobe XMP Core 5.6-c142 79.160924, 2017/07/13-01:06:39        ">
   <rdf:RDF xmlns:rdf="http://www.w3.org/1999/02/22-rdf-syntax-ns#">
      <rdf:Description rdf:about=""/>
   </rdf:RDF>
</x:xmpmeta>
                                                                                                    
                                                                                                    
                                                                                                    
                                                                                                    
                                                                                                    
                                                                                                    
                                                                                                    
                                                                                                    
                                                                                                    
                                                                                                    
                                                                                                    
                                                                                                    
                                                                                                    
                                                                                                    
                                                                                                    
                                                                                                    
                                                                                                    
                                                                                                    
                                                                                                    
                                                                                                    
                           
<?xpacket end="w"?></metadata>
<defs>
    <style>
      .cls-1 {
        fill: #22a662;
        fill-rule: evenodd;
        opacity: 0.8;
      }
    </style>
  </defs>
  <path class="cls-1" d="M667,341l30,8,58-109-3-2-1-21,2-5-2-23,2-5v-2h-2l-1-21,4-7-2-2-1-26,3-4v-4l-2-2,3-4L673,95l-12,18,2,3,6,87,2,24s10.264,10,11,21c0.534,7.97,3,2,3,2s7.392-6.122,7-3-28,48-28,48Zm-67-32,10-15-1-9,27-34s-0.229-9.163,5-11c1.524-.535-9-92-9-92l-28-5-60,78,1,5,5,1,2,1,4,38-2,1v3h2l6,39,7,3,6-9Z" transform="translate(-544 -95)"/>
</svg>
