<svg xmlns="http://www.w3.org/2000/svg" width="275" height="179" viewBox="0 0 275 179">
  <metadata><?xpacket begin="﻿" id="W5M0MpCehiHzreSzNTczkc9d"?>
<x:xmpmeta xmlns:x="adobe:ns:meta/" x:xmptk="Adobe XMP Core 5.6-c142 79.160924, 2017/07/13-01:06:39        ">
   <rdf:RDF xmlns:rdf="http://www.w3.org/1999/02/22-rdf-syntax-ns#">
      <rdf:Description rdf:about=""/>
   </rdf:RDF>
</x:xmpmeta>
                                                                                                    
                                                                                                    
                                                                                                    
                                                                                                    
                                                                                                    
                                                                                                    
                                                                                                    
                                                                                                    
                                                                                                    
                                                                                                    
                                                                                                    
                                                                                                    
                                                                                                    
                                                                                                    
                                                                                                    
                                                                                                    
                                                                                                    
                                                                                                    
                                                                                                    
                                                                                                    
                           
<?xpacket end="w"?></metadata>
<defs>
    <style>
      .cls-1 {
        fill: #be9567;
        fill-rule: evenodd;
        opacity: 0.8;
      }
    </style>
  </defs>
  <path class="cls-1" d="M1128,411l2,9,26,34,26-5,8-8h4l3,3,153-39,53-66-5-6-4,2-10-11,2-4-30-31-48-10-38,60,1,21,29,5,10,12-9,3-11-12-93,22-2,6-4,1-20-26-8,1,5-30,19,5s12.47-10.972,18,4a19.439,19.439,0,0,1,0,4l23,5,27-44,1-21-89-20-20,45-11,73Z" transform="translate(-1128 -275)"/>
</svg>
