<svg xmlns="http://www.w3.org/2000/svg" width="335" height="260" viewBox="0 0 335 260">
  <metadata><?xpacket begin="﻿" id="W5M0MpCehiHzreSzNTczkc9d"?>
<x:xmpmeta xmlns:x="adobe:ns:meta/" x:xmptk="Adobe XMP Core 5.6-c142 79.160924, 2017/07/13-01:06:39        ">
   <rdf:RDF xmlns:rdf="http://www.w3.org/1999/02/22-rdf-syntax-ns#">
      <rdf:Description rdf:about=""/>
   </rdf:RDF>
</x:xmpmeta>
                                                                                                    
                                                                                                    
                                                                                                    
                                                                                                    
                                                                                                    
                                                                                                    
                                                                                                    
                                                                                                    
                                                                                                    
                                                                                                    
                                                                                                    
                                                                                                    
                                                                                                    
                                                                                                    
                                                                                                    
                                                                                                    
                                                                                                    
                                                                                                    
                                                                                                    
                                                                                                    
                           
<?xpacket end="w"?></metadata>
<defs>
    <style>
      .cls-1 {
        fill: #5c9637;
        fill-rule: evenodd;
        opacity: 0.8;
      }
    </style>
  </defs>
  <path id="liter_3" class="cls-1" d="M741,473l29-6V441l-33-4-1-2H725v-7l-12-2h-8l-27,3v12l-39,2-50,6H578l-8,1-1-4-15-2-37,3v10l-46,3-36,3,1,62h4l25,8v17l23-2,19,7v15l11-1,16,4v4l30-5,30,10v14l11,4,7-1,21,6v5l2,1,1,75,25-5,4-4h7l9-2,25-5h12l11-2v-2l15-3-2-163,19-5v-8l-20-4V473Z" transform="translate(-435 -426)"/>
</svg>
