<svg xmlns="http://www.w3.org/2000/svg" width="319" height="299" viewBox="0 0 319 299">
  <defs>
    <style>
      .cls-1 {
        fill: #80c342;
        fill-rule: evenodd;
        opacity: 0.8;
      }
    </style>
  </defs>
  <path class="cls-1" d="M525,566l53-43-7-6,19-16,8,5,37-31-8-5,8-4,6,3,36-29-8-4,6-6h4V418l-37-10,2-55-4-1,1-4-17-6-3,2-7-6V294l-5-2v-6l-74-19-58,33-6-4-37,16-2,8-63,28,1,6-6,1,3,104-1,43,2,13-4,2-2,1-2,12,44,21,12-6,5,4-1,8,20,9" transform="translate(-360 -267)"/>
</svg>
