<svg id="Layer_1" data-name="Layer 1" xmlns="http://www.w3.org/2000/svg" xmlns:xlink="http://www.w3.org/1999/xlink" viewBox="0 0 38 38"><defs><style>.cls-1{fill:url(#White_Black_2);}.cls-2{fill:#fbbb31;}.cls-3{opacity:0.55;}.cls-4{fill:#c2bcab;}.cls-5{fill:#fc7e00;}.cls-6{opacity:0.99;}.cls-7{fill:#fc8202;}.cls-8{opacity:0.99;}.cls-9{fill:#fc8503;}.cls-10{opacity:0.98;}.cls-11{fill:#fc8905;}.cls-12{opacity:0.97;}.cls-13{fill:#fc8d06;}.cls-14{opacity:0.97;}.cls-15{fill:#fc9008;}.cls-16{opacity:0.96;}.cls-17{fill:#fc9409;}.cls-18{opacity:0.95;}.cls-19{fill:#fc980b;}.cls-20{opacity:0.95;}.cls-21{fill:#fc9b0c;}.cls-22{opacity:0.94;}.cls-23{fill:#fc9f0e;}.cls-24{opacity:0.94;}.cls-25{fill:#fca30f;}.cls-26{opacity:0.93;}.cls-27{fill:#fca611;}.cls-28{opacity:0.92;}.cls-29{fill:#fcaa12;}.cls-30{opacity:0.92;}.cls-31{fill:#fcae14;}.cls-32{opacity:0.91;}.cls-33{fill:#fcb115;}.cls-34{opacity:0.9;}.cls-35{fill:#fcb517;}.cls-36{opacity:0.9;}.cls-37{fill:#fdb918;}.cls-38{opacity:0.89;}.cls-39{fill:#fdbd1a;}.cls-40{opacity:0.88;}.cls-41{fill:#fdc01b;}.cls-42{opacity:0.88;}.cls-43{fill:#fdc41d;}.cls-44{opacity:0.87;}.cls-45{fill:#fdc81e;}.cls-46{opacity:0.86;}.cls-47{fill:#fdcb20;}.cls-48{opacity:0.86;}.cls-49{fill:#fdcf21;}.cls-50{opacity:0.85;}.cls-51{fill:#fdd323;}.cls-52{opacity:0.85;}.cls-53{fill:#fdd624;}.cls-54{opacity:0.84;}.cls-55{fill:#fdda26;}.cls-56{opacity:0.83;}.cls-57{fill:#fdde27;}.cls-58{opacity:0.83;}.cls-59{fill:#fde129;}.cls-60{opacity:0.82;}.cls-61{fill:#fde52a;}.cls-62{opacity:0.81;}.cls-63{fill:#fde92c;}.cls-64{opacity:0.81;}.cls-65{fill:#fdec2d;}.cls-66{opacity:0.8;}.cls-67{fill:#fdf02f;}.cls-68{mask:url(#mask);}.cls-69{fill:#fff;}.cls-70{fill:#282625;}</style><linearGradient id="White_Black_2" x1="19" y1="-6.06" x2="19" y2="30.03" gradientUnits="userSpaceOnUse"><stop offset="0" stop-color="#fff"/><stop offset="1" stop-color="#231f20"/></linearGradient><mask id="mask" x="4.15" y="2.95" width="29.7" height="29.7" maskUnits="userSpaceOnUse"><path class="cls-1" d="M33.85,17.8A14.85,14.85,0,1,1,19,3,14.85,14.85,0,0,1,33.85,17.8Z"/></mask></defs><title>ico_3</title><path class="cls-2" d="M38,19A18.57,18.57,0,1,1,19.43.43,18.56,18.56,0,0,1,38,19Z"/><g class="cls-3"><path class="cls-4" d="M37.57,19A18.57,18.57,0,1,1,19,.43,18.56,18.56,0,0,1,37.57,19Z"/><path class="cls-5" d="M38,19A19,19,0,1,1,19,0,19,19,0,0,1,38,19Z"/><g class="cls-6"><path class="cls-7" d="M37.89,18.93A18.91,18.91,0,1,1,19,0,18.86,18.86,0,0,1,37.89,18.93Z"/></g><g class="cls-8"><path class="cls-9" d="M37.78,18.86A18.81,18.81,0,1,1,19,.07,18.74,18.74,0,0,1,37.78,18.86Z"/></g><g class="cls-10"><path class="cls-11" d="M37.67,18.79A18.59,18.59,0,0,1,19,37.19,18.63,18.63,0,0,1,.23,18.79C0,8.49,8.63.1,19,.1A18.62,18.62,0,0,1,37.67,18.79Z"/></g><g class="cls-12"><path class="cls-13" d="M37.56,18.72A18.47,18.47,0,0,1,19,36.92,18.5,18.5,0,0,1,.31,18.72C0,8.49,8.67.13,19,.13S37.83,8.62,37.56,18.72Z"/></g><g class="cls-14"><path class="cls-15" d="M37.45,18.65A18.33,18.33,0,0,1,19,36.65a18.36,18.36,0,0,1-18.57-18C.05,8.48,8.71.16,19,.16S37.79,8.65,37.45,18.65Z"/></g><g class="cls-16"><path class="cls-17" d="M37.34,18.58A18.18,18.18,0,0,1,19,36.38,18.24,18.24,0,0,1,.47,18.58C.05,8.47,8.75.2,19,.2S37.77,8.68,37.34,18.58Z"/></g><g class="cls-18"><path class="cls-19" d="M37.23,18.51c-.52,10-8.12,17.6-18.28,17.6A18.11,18.11,0,0,1,.55,18.51C.06,8.47,8.78.23,19,.23S37.74,8.71,37.23,18.51Z"/></g><g class="cls-20"><path class="cls-21" d="M37.12,18.44c-.59,10-8.06,17.4-18.18,17.4A18,18,0,0,1,.62,18.44C.07,8.46,8.82.26,18.94.26S37.7,8.74,37.12,18.44Z"/></g><g class="cls-22"><path class="cls-23" d="M37,18.37c-.67,9.88-8,17.2-18.08,17.2A17.87,17.87,0,0,1,.7,18.37C.08,8.46,8.86.3,18.93.3S37.66,8.77,37,18.37Z"/></g><g class="cls-24"><path class="cls-25" d="M36.9,18.3c-.74,9.82-7.95,17-18,17S1.47,28.14.78,18.3,8.9.33,18.92.33,37.62,8.8,36.9,18.3Z"/></g><g class="cls-26"><path class="cls-27" d="M36.79,18.23C36,28,28.89,35,18.92,35S1.61,28,.86,18.23,8.94.36,18.92.36,37.58,8.83,36.79,18.23Z"/></g><g class="cls-28"><path class="cls-29" d="M36.68,18.16c-.9,9.68-7.84,16.6-17.77,16.6S1.76,27.87.94,18.16,9,.4,18.91.4,37.54,8.86,36.68,18.16Z"/></g><g class="cls-30"><path class="cls-31" d="M36.57,18.09c-1,9.61-7.79,16.4-17.67,16.4S1.91,27.73,1,18.09,9,.43,18.9.43,37.5,8.89,36.57,18.09Z"/></g><g class="cls-32"><path class="cls-33" d="M36.46,18c-1.05,9.55-7.73,16.2-17.57,16.2S2.05,27.59,1.09,18,9.06.46,18.89.46,37.46,8.92,36.46,18Z"/></g><g class="cls-34"><path class="cls-35" d="M36.35,18c-1.13,9.48-7.68,16-17.46,16S2.2,27.46,1.17,18,9.1.49,18.89.49,37.42,9,36.35,18Z"/></g><g class="cls-36"><path class="cls-37" d="M36.24,17.88c-1.2,9.41-7.62,15.8-17.36,15.8S2.35,27.32,1.25,17.88,9.14.53,18.88.53,37.38,9,36.24,17.88Z"/></g><g class="cls-38"><path class="cls-39" d="M36.13,17.81c-1.28,9.34-7.57,15.6-17.26,15.6S2.49,27.19,1.33,17.81,9.18.56,18.87.56,37.33,9,36.13,17.81Z"/></g><g class="cls-40"><path class="cls-41" d="M36,17.74c-1.36,9.27-7.51,15.4-17.16,15.4S2.64,27.05,1.4,17.74,9.22.59,18.86.59,37.29,9,36,17.74Z"/></g><g class="cls-42"><path class="cls-43" d="M35.91,17.67c-1.44,9.21-7.46,15.2-17,15.2S2.79,26.92,1.48,17.67,9.26.63,18.86.63,37.25,9.07,35.91,17.67Z"/></g><g class="cls-44"><path class="cls-45" d="M35.8,17.6c-1.52,9.14-7.4,15-16.95,15S2.93,26.78,1.56,17.6,9.3.66,18.85.66,37.21,9.09,35.8,17.6Z"/></g><g class="cls-46"><path class="cls-47" d="M35.69,17.53c-1.6,9.07-7.35,14.8-16.85,14.8S3.08,26.64,1.64,17.53,9.34.69,18.84.69,37.16,9.12,35.69,17.53Z"/></g><g class="cls-48"><path class="cls-49" d="M35.58,17.46c-1.67,9-7.29,14.6-16.75,14.6S3.23,26.51,1.72,17.46,9.38.72,18.83.72,37.12,9.15,35.58,17.46Z"/></g><g class="cls-50"><path class="cls-51" d="M35.47,17.39c-1.75,8.93-7.24,14.4-16.64,14.4s-15.45-5.42-17-14.4S9.42.76,18.83.76,37.08,9.18,35.47,17.39Z"/></g><g class="cls-52"><path class="cls-53" d="M35.36,17.32c-1.83,8.87-7.18,14.2-16.54,14.2S3.52,26.24,1.87,17.32,9.46.79,18.82.79,37,9.21,35.36,17.32Z"/></g><g class="cls-54"><path class="cls-55" d="M35.25,17.25c-1.92,8.8-7.13,14-16.44,14S3.67,26.1,2,17.25,9.5.82,18.81.82,37,9.24,35.25,17.25Z"/></g><g class="cls-56"><path class="cls-57" d="M35.14,17.18C33.14,25.91,28.07,31,18.8,31S3.82,26,2,17.18,9.54.86,18.8.86,36.94,9.27,35.14,17.18Z"/></g><g class="cls-58"><path class="cls-59" d="M35,17.11C33,25.77,28,30.71,18.8,30.71S4,25.83,2.11,17.11,9.58.89,18.8.89,36.9,9.3,35,17.11Z"/></g><g class="cls-60"><path class="cls-61" d="M34.92,17c-2.18,8.6-7,13.41-16.13,13.41S4.11,25.69,2.18,17,9.62.92,18.79.92,36.84,9.32,34.92,17Z"/></g><g class="cls-62"><path class="cls-63" d="M34.81,17c-2.25,8.53-6.91,13.21-16,13.21S4.26,25.56,2.26,17,9.66,1,18.78,1,36.8,9.35,34.81,17Z"/></g><g class="cls-64"><path class="cls-65" d="M34.7,16.89c-2.33,8.46-6.85,13-15.93,13S4.4,25.42,2.34,16.89,9.7,1,18.77,1,36.76,9.38,34.7,16.89Z"/></g><g class="cls-66"><path class="cls-67" d="M34.59,16.82c-2.41,8.39-6.8,12.81-15.82,12.81S4.55,25.29,2.42,16.82,9.74,1,18.77,1,36.72,9.41,34.59,16.82Z"/></g><g class="cls-68"><path class="cls-69" d="M33.85,17.8A14.85,14.85,0,1,1,19,3,14.85,14.85,0,0,1,33.85,17.8Z"/></g></g><path class="cls-70" d="M27.47,25.87H10.53a.91.91,0,1,1,0-1.81H27.47a.91.91,0,1,1,0,1.81Z"/><path class="cls-70" d="M28.72,17a2,2,0,1,1-2-2A2,2,0,0,1,28.72,17Z"/><path class="cls-70" d="M13.2,17a2,2,0,1,1-2-2A2,2,0,0,1,13.2,17Z"/></svg>