<svg width="22" height="22" viewBox="0 0 22 22" fill="none" xmlns="http://www.w3.org/2000/svg">
<path fill-rule="evenodd" clip-rule="evenodd" d="M4.09301 0.767442C4.09301 0.343595 4.43661 0 4.86045 0H17.1395C17.5634 0 17.907 0.343595 17.907 0.767442V7.16277H19.186C19.9324 7.16277 20.6481 7.45924 21.1758 7.98696C21.7035 8.51468 22 9.23042 22 9.97672V15.093C22 15.8393 21.7035 16.555 21.1758 17.0828C20.6481 17.6105 19.9324 17.907 19.186 17.907H17.9067V21.2325C17.9067 21.6564 17.5631 22 17.1393 22H4.86022C4.43637 22 4.09277 21.6564 4.09277 21.2325V17.907H2.81395C2.06765 17.907 1.35191 17.6105 0.824188 17.0828C0.296469 16.555 0 15.8393 0 15.093V9.97672C0 9.23042 0.296469 8.51468 0.824188 7.98696C1.35191 7.45924 2.06765 7.16277 2.81395 7.16277H4.09301V0.767442ZM5.62766 17.1593C5.62782 17.1527 5.62791 17.1461 5.62791 17.1395C5.62791 17.1329 5.62782 17.1263 5.62766 17.1197V13.8139H16.3718V20.4651H5.62766V17.1593ZM4.09277 16.3721H2.81395C2.47472 16.3721 2.14939 16.2373 1.90951 15.9974C1.66964 15.7576 1.53488 15.4322 1.53488 15.093V9.97672C1.53488 9.63749 1.66964 9.31216 1.90951 9.07229C2.14939 8.83241 2.47472 8.69765 2.81395 8.69765H4.85499L4.86045 8.69767L4.86592 8.69765H17.1341L17.1395 8.69767L17.145 8.69765H19.186C19.5253 8.69765 19.8506 8.83241 20.0905 9.07229C20.3304 9.31216 20.4651 9.6375 20.4651 9.97672V15.093C20.4651 15.4322 20.3304 15.7576 20.0905 15.9974C19.8506 16.2373 19.5253 16.3721 19.186 16.3721H17.9067V13.0465C17.9067 12.6226 17.5631 12.279 17.1393 12.279H4.86022C4.43637 12.279 4.09277 12.6226 4.09277 13.0465V16.3721ZM16.3721 1.53488V7.16277H5.6279V1.53488H16.3721Z" fill="white"/>
</svg>
