<svg width="20" height="20" viewBox="0 0 20 20" fill="none" xmlns="http://www.w3.org/2000/svg">
<path fill-rule="evenodd" clip-rule="evenodd" d="M5.83337 18.2609C5.83337 17.3004 6.57957 16.5217 7.50004 16.5217C8.42051 16.5217 9.16671 17.3004 9.16671 18.2609C9.16671 19.2214 8.42051 20 7.50004 20C6.57957 20 5.83337 19.2214 5.83337 18.2609Z" fill="#45A56B"/>
<path fill-rule="evenodd" clip-rule="evenodd" d="M15 18.2609C15 17.3004 15.7462 16.5217 16.6667 16.5217C17.5871 16.5217 18.3333 17.3004 18.3333 18.2609C18.3333 19.2214 17.5871 20 16.6667 20C15.7462 20 15 19.2214 15 18.2609Z" fill="#45A56B"/>
<path fill-rule="evenodd" clip-rule="evenodd" d="M0 0.869565C0 0.389318 0.373096 0 0.833333 0H4.16667C4.56385 0 4.90584 0.292509 4.98379 0.698907L5.68369 4.34783H19.1667C19.415 4.34783 19.6504 4.46342 19.8087 4.66309C19.9671 4.86277 20.0318 5.12572 19.9852 5.38028L18.6507 12.6825C18.5364 13.283 18.2233 13.8224 17.7663 14.2063C17.3115 14.5883 16.743 14.7921 16.1595 14.7826H8.07387C7.49031 14.7921 6.92183 14.5883 6.46706 14.2063C6.0102 13.8226 5.69719 13.2834 5.58277 12.6832C5.58273 12.6829 5.58282 12.6834 5.58277 12.6832L4.19066 5.42539C4.18501 5.40139 4.18032 5.37699 4.17663 5.35224L3.4836 1.73913H0.833333C0.373096 1.73913 0 1.34981 0 0.869565ZM6.01727 6.08696L7.21737 12.3436C7.25547 12.5438 7.35983 12.7236 7.51217 12.8516C7.66452 12.9796 7.85515 13.0475 8.0507 13.0436L8.06666 13.0435H16.1667L16.1826 13.0436C16.3782 13.0475 16.5688 12.9796 16.7212 12.8516C16.8728 12.7242 16.9769 12.5455 17.0154 12.3464L18.1594 6.08696H6.01727Z" fill="#45A56B"/>
</svg>
