<svg width="22" height="22" viewBox="0 0 22 22" fill="none" xmlns="http://www.w3.org/2000/svg">
<path d="M12.5071 0.850216C12.5653 0.325653 13.0373 -0.0523475 13.5613 0.00592727C15.7137 0.245302 17.7209 1.21023 19.2533 2.74227C20.7857 4.27432 21.7521 6.28242 21.9939 8.43686C22.0528 8.96135 21.6758 9.43431 21.1519 9.49325C20.6279 9.55218 20.1555 9.17477 20.0966 8.65028C19.9031 6.92673 19.13 5.32025 17.9041 4.09461C16.6782 2.86898 15.0724 2.09704 13.3505 1.90554C12.8264 1.84726 12.4488 1.37478 12.5071 0.850216Z" fill="#45A56B"/>
<path d="M12.5189 4.59532C12.6198 4.0773 13.1212 3.73929 13.6387 3.84036C14.7576 4.0589 15.7859 4.6067 16.592 5.41366C17.3981 6.22063 17.9454 7.25003 18.1637 8.37013C18.2646 8.88815 17.927 9.39002 17.4095 9.49109C16.892 9.59216 16.3907 9.25415 16.2897 8.73613C16.1442 7.9894 15.7794 7.30313 15.242 6.76515C14.7045 6.22718 14.019 5.86198 13.2731 5.71629C12.7556 5.61522 12.4179 5.11334 12.5189 4.59532Z" fill="#45A56B"/>
<path d="M18.1241 22C18.0282 22 17.9323 22 17.8365 22C14.7688 21.6164 11.7011 20.5616 9.11275 18.9315C6.71613 17.3973 4.6071 15.2877 3.07326 12.8904C1.44355 10.3014 0.389041 7.23288 0.00558077 4.16438C-0.0902842 2.53425 1.0601 1.19178 2.59393 1C2.6898 1 2.78566 1 2.88153 1H5.75748C7.19545 1 8.44169 2.05479 8.63342 3.49315C8.72929 4.35616 8.92102 5.21918 9.20861 5.9863C9.59207 7.0411 9.40034 8.19178 8.63342 8.9589L7.8665 9.72603C9.01688 11.4521 10.4549 12.9863 12.2763 14.137L12.9473 13.4658C13.7143 12.6986 14.9605 12.411 16.015 12.7945C16.7819 13.0822 17.6447 13.274 18.5075 13.3699C19.9455 13.5616 21 14.8082 21 16.2466V19.1233C21 19.8904 20.7124 20.6575 20.1372 21.137C19.6579 21.7123 18.891 22 18.1241 22ZM5.75748 2.91781H2.88153C2.30634 3.0137 1.92288 3.39726 1.92288 3.9726C2.21047 6.75342 3.16912 9.43836 4.70296 11.8356C6.14094 14.0411 7.96237 15.9589 10.1673 17.3014C12.5639 18.8356 15.2481 19.7945 18.0282 20.0822C18.3158 20.0822 18.6034 19.9863 18.7951 19.7945C18.9868 19.6027 19.0827 19.411 19.0827 19.1233V16.2466C19.0827 15.7671 18.6992 15.3836 18.2199 15.2877C17.2613 15.1918 16.3026 14.9041 15.344 14.5205C14.9605 14.4247 14.5771 14.5205 14.2895 14.7123L13.0432 15.9589C12.7556 16.2466 12.2763 16.3425 11.8928 16.1507C9.30448 14.7123 7.19545 12.6027 5.75748 10.0137C5.66161 9.63014 5.75748 9.15069 6.04507 8.86301L7.29132 7.61644C7.57891 7.32877 7.67478 6.94521 7.48305 6.56164C7.09959 5.60274 6.90786 4.64384 6.71613 3.68493C6.62026 3.30137 6.2368 2.91781 5.75748 2.91781Z" fill="#45A56B"/>
</svg>
